<svg class="animated" id="jeevan-mobile-marketing" xmlns="http://www.w3.org/2000/svg" viewBox="0 0 500 500" xmlns:xlink="http://www.w3.org/1999/xlink" ><style>svg#jeevan-mobile-marketing:not(.animated) .animable{opacity:0}svg#jeevan-mobile-marketing.animated #jvn--Shadow--inject-24{animation:1s 1 forwards cubic-bezier(.36,-0.01,.5,1.38) slideRight;animation-delay:0s}svg#jeevan-mobile-marketing.animated #jvn--Smartphone--inject-24{animation:1s 1 forwards cubic-bezier(.36,-0.01,.5,1.38) zoomOut,1.5s Infinite linear floating;animation-delay:0s,1s}svg#jeevan-mobile-marketing.animated #jvn--Character--inject-24{animation:1s 1 forwards cubic-bezier(.36,-0.01,.5,1.38) zoomOut,1.5s Infinite linear floating;animation-delay:0s,1s}svg#jeevan-mobile-marketing.animated #jvn--Megaphone--inject-24{animation:1s 1 forwards cubic-bezier(.36,-0.01,.5,1.38) slideUp,1.5s Infinite linear floating;animation-delay:0s,1s}@keyframes slideRight{0%{opacity:0;transform:translateX(30px)}100%{opacity:1;transform:translateX(0)}}@keyframes zoomOut{0%{opacity:0;transform:scale(1.5)}100%{opacity:1;transform:scale(1)}}@keyframes floating{0%{opacity:1;transform:translateY(0px)}50%{transform:translateY(-10px)}100%{opacity:1;transform:translateY(0px)}}@keyframes slideUp{0%{opacity:0;transform:translateY(30px)}100%{opacity:1;transform:inherit}}</style><g id="jvn--Shadow--inject-24" style="transform-origin:250px 416.24px 0" class="animable"><ellipse id="jvn--path--inject-24" cx="250" cy="416.24" rx="193.89" ry="11.32" style="fill:#f5f5f5;transform-origin:250px 416.24px 0" class="animable"/></g><g id="jvn--Smartphone--inject-24" style="transform-origin:182.005px 271.215px 0" class="animable animator-active"><path d="M232.51 129.33H113.22A13.62 13.62.0 0 0 99.5 144l17.1 254.4a16 16 0 0 0 15.7 14.7H251.59a13.6 13.6.0 0 0 13.71-14.7L248.2 144A16 16 0 0 0 232.51 129.33z" style="fill:#90caf9;transform-origin:182.402px 271.215px 0" id="elmpxh361hvno" class="animable"/><g id="el9hetsmft3rt"><path d="M232.51 129.33H113.22A13.62 13.62.0 0 0 99.5 144l17.1 254.4a16 16 0 0 0 15.7 14.7H251.59a13.6 13.6.0 0 0 13.71-14.7L248.2 144A16 16 0 0 0 232.51 129.33z" style="fill:#fff;opacity:.3;transform-origin:182.402px 271.215px 0" class="animable"/></g><g id="el5inb1g61yes"><path d="M99.47 183.84h1v24.05h-1z" style="fill:#90caf9;transform-origin:99.97px 195.865px 0;transform:rotate(-3.84deg)" class="animable"/></g><g id="elma5j4dsijer"><path d="M101.49 220.48h1v10.78h-1z" style="fill:#90caf9;transform-origin:101.99px 225.87px 0;transform:rotate(-3.85deg)" class="animable"/></g><path d="M125.26 401a4 4 0 0 1-7.76 1.66 15.27 15.27.0 0 1-.9-4.21L99.5 144a14.33 14.33.0 0 1 .34-4.27 4 4 0 0 1 7.91.65z" style="fill:#90caf9;transform-origin:112.371px 270.945px 0" id="eltvxyj5nvva" class="animable"/><path d="M251.59 408.33H140.76a11.24 11.24.0 0 1-10.89-10.22l-17.1-254.39a8.79 8.79.0 0 1 8.91-9.57H232.51a11.24 11.24.0 0 1 10.89 10.21l17.1 254.4a8.81 8.81.0 0 1-8.91 9.57zM121.68 135.22a7.73 7.73.0 0 0-7.84 8.43L130.94 398a10.13 10.13.0 0 0 9.82 9.22H251.59a7.73 7.73.0 0 0 7.84-8.43l-17.1-254.39a10.13 10.13.0 0 0-9.82-9.22z" style="fill:#fff;transform-origin:186.633px 271.238px 0" id="elagbbdwk50tb" class="animable"/><g id="eldj7drdckksq"><g style="opacity:.5;transform-origin:187.809px 215.42px 0" class="animable"><g id="elr4vkfwk3jwg"><ellipse cx="187.81" cy="215.42" rx="44.54" ry="49.79" style="fill:#90caf9;transform-origin:187.81px 215.42px 0;transform:rotate(-46.6deg)" class="animable"/></g><g id="ele5iigdx1hfv"><ellipse cx="187.81" cy="215.42" rx="35.63" ry="39.83" style="fill:#fff;transform-origin:187.81px 215.42px 0;transform:rotate(-46.6deg)" class="animable"/></g><g id="el2rxc7o4v42a"><ellipse cx="187.81" cy="215.42" rx="26.72" ry="29.87" style="fill:#90caf9;transform-origin:187.81px 215.42px 0;transform:rotate(-46.59deg)" class="animable"/></g><g id="el3vbwt4e0rz1"><ellipse cx="187.81" cy="215.42" rx="17.82" ry="19.92" style="fill:#fff;transform-origin:187.81px 215.42px 0;transform:rotate(-46.6deg)" class="animable"/></g><g id="elrfk36d52n8i"><ellipse cx="187.81" cy="215.42" rx="8.91" ry="9.96" style="fill:#90caf9;transform-origin:187.81px 215.42px 0;transform:rotate(-46.59deg)" class="animable"/></g></g></g><path d="M196.89 279.51c-.18.0-.35.0-.53.0a16.48 16.48.0 0 0-14.42-8.9 14.79 14.79.0 0 0-4.51.7 16.91 16.91.0 0 0-14.64-8.81 14.34 14.34.0 0 0-14.55 14.18 11.2 11.2.0 0 0-10.5 12.13 13.21 13.21.0 0 0 13 12.17h47.62a9.92 9.92.0 0 0 10-10.75A11.67 11.67.0 0 0 196.89 279.51z" style="fill:#fff;transform-origin:173.047px 281.74px 0" id="eldhoil3a2e5f" class="animable"/><path d="M227.22 163.16h-.41a12.84 12.84.0 0 0-11.24-6.93 11.58 11.58.0 0 0-3.52.54 13.19 13.19.0 0 0-11.41-6.86 11.18 11.18.0 0 0-11.34 11 8.74 8.74.0 0 0-8.19 9.46 10.3 10.3.0 0 0 10.13 9.48h37.12a7.73 7.73.0 0 0 7.81-8.38A9.11 9.11.0 0 0 227.22 163.16z" style="fill:#fff;transform-origin:208.639px 164.881px 0" id="elp3qfxzq6o7r" class="animable"/><g id="elkkyno732lqc"><path d="M242 318.86H173.44a3.56 3.56.0 0 0-3.59 3.85l2.78 40.89a4.17 4.17.0 0 0 4.11 3.85h9.2l.77 11.31 10.53-11.31h48a3.55 3.55.0 0 0 3.59-3.85l-2.77-40.89A4.19 4.19.0 0 0 242 318.86z" style="fill:#fff;opacity:.3;transform-origin:209.34px 348.811px 0" class="animable"/></g><path d="M241.47 345.74H177.61L177.26 340.57H241.13L241.47 345.74z" style="fill:#fff;transform-origin:209.365px 343.155px 0" id="ellyynafrk2h" class="animable"/><path d="M222 356.48H178.34L177.99 351.31h43.66L222 356.48z" style="fill:#fff;transform-origin:199.995px 353.895px 0" id="elyjxa5sppb5o" class="animable"/><path d="M240.75 335H176.88L176.53 329.83H240.4L240.75 335z" style="fill:#fff;transform-origin:208.64px 332.415px 0" id="elpr5kl4co4qm" class="animable"/></g><g id="jvn--Character--inject-24" style="transform-origin:243.936px 253.756px 0" class="animable"><path d="M295.64 146l2.63 1.89q1.37 1 2.76 1.89c1.85 1.23 3.71 2.46 5.59 3.58s3.78 2.18 5.66 3.12a40.57 40.57.0 0 0 5.46 2.27 3.27 3.27.0 0 0-1.27-.06 2.41 2.41.0 0 0-.73.21c-.29.15-.2.16-.05.07a7.77 7.77.0 0 0 1.55-1.42 39.05 39.05.0 0 0 3.56-5c1.17-1.84 2.29-3.79 3.36-5.79s2.14-4.05 3.13-6l.07-.13a4.5 4.5.0 0 1 8.34 3.27 97.21 97.21.0 0 1-5.15 13.92 48.06 48.06.0 0 1-3.95 6.95 20.53 20.53.0 0 1-3.29 3.71 11.32 11.32.0 0 1-3.05 1.9 9.83 9.83.0 0 1-2.44.65 8.89 8.89.0 0 1-3-.17 49.81 49.81.0 0 1-7.82-2.51 71.33 71.33.0 0 1-6.94-3.27q-3.33-1.77-6.49-3.73c-1.05-.66-2.09-1.33-3.12-2s-2-1.37-3.13-2.19a7 7 0 0 1 8.19-11.24z" style="fill:#90caf9;transform-origin:310.467px 154.627px 0" id="elwt5cax0w14m" class="animable"/><g id="elqkn9qizpj2b"><path d="M295.64 146l2.63 1.89q1.37 1 2.76 1.89c1.85 1.23 3.71 2.46 5.59 3.58s3.78 2.18 5.66 3.12a40.57 40.57.0 0 0 5.46 2.27 3.27 3.27.0 0 0-1.27-.06 2.41 2.41.0 0 0-.73.21c-.29.15-.2.16-.05.07a7.77 7.77.0 0 0 1.55-1.42 39.05 39.05.0 0 0 3.56-5c1.17-1.84 2.29-3.79 3.36-5.79s2.14-4.05 3.13-6l.07-.13a4.5 4.5.0 0 1 8.34 3.27 97.21 97.21.0 0 1-5.15 13.92 48.06 48.06.0 0 1-3.95 6.95 20.53 20.53.0 0 1-3.29 3.71 11.32 11.32.0 0 1-3.05 1.9 9.83 9.83.0 0 1-2.44.65 8.89 8.89.0 0 1-3-.17 49.81 49.81.0 0 1-7.82-2.51 71.33 71.33.0 0 1-6.94-3.27q-3.33-1.77-6.49-3.73c-1.05-.66-2.09-1.33-3.12-2s-2-1.37-3.13-2.19a7 7 0 0 1 8.19-11.24z" style="opacity:.2;transform-origin:310.467px 154.627px 0" class="animable"/></g><path d="M329.81 138.89l2.71-4.58 5.2 5.61a6.91 6.91.0 0 1-3.78 3.55 2.58 2.58.0 0 1-2.27-.3l-1-.64A2.71 2.71.0 0 1 329.81 138.89z" style="fill:#ffb573;transform-origin:333.578px 138.959px 0" id="eldrlx55bfeg8" class="animable"/><path d="M339.89 131.58l1.15.71a2.72 2.72.0 0 1 .37 4.35l-3.69 3.28-5.2-5.61 4.53-2.74A2.71 2.71.0 0 1 339.89 131.58z" style="fill:#ffb573;transform-origin:337.424px 135.549px 0" id="elt7jok1x8kg" class="animable"/><path d="M232.02 408.12 239.94 408.35 242.92 390.01 235.01 389.78 232.02 408.12z" style="fill:#ffb573;transform-origin:237.47px 399.065px 0" id="eltb6rmdrd1" class="animable"/><path d="M241.19 406.12 232.34 405a.57.57.0 0 0-.65.47l-1.31 6.94a1.4 1.4.0 0 0 1.2 1.57c3.09.34 4.58.34 8.47.83 2.39.31 8.62 1.81 11.93 1.4s2.81-3.66 1.37-3.78c-6.45-.56-8.87-3.63-10.87-5.66A2.25 2.25.0 0 0 241.19 406.12z" style="fill:#263238;transform-origin:242.414px 410.637px 0" id="elc5h06i9hjpw" class="animable"/><g id="el5fvo2o8x8lp"><path d="M235 389.79 242.92 390.02 241.38 399.47 233.46 399.24 235 389.79z" style="opacity:.2;transform-origin:238.19px 394.63px 0" class="animable"/></g><path d="M278.29 214s-6.91 65.59-11.51 87.87c-5 24.4-21.17 95.78-21.17 95.78l-14.49-1.07s7.94-73.84 14.44-97.74c0-24.82 6-94.38 6-94.38z" style="fill:#263238;transform-origin:254.705px 301.055px 0" id="elct994rug1h5" class="animable"/><g id="elg4ysnhjozvi"><path d="M255.2 236.17c-.13-5.13-2.91-6.78-5.65-6.72-1 12.34-2.07 27.47-2.88 41.12C251.53 262.69 255.56 250.42 255.2 236.17z" style="opacity:.3;transform-origin:250.947px 250.01px 0" class="animable"/></g><path d="M230.69 396.68 246.21 397.83 247.99 391.98 230.12 391.8 230.69 396.68z" style="fill:#fff;transform-origin:239.055px 394.815px 0" id="ell9toh101rfe" class="animable"/><path d="M151.71 346.65 156.7 352.82 171.63 342.05 166.63 335.89 151.71 346.65z" style="fill:#ffb573;transform-origin:161.67px 344.355px 0" id="elttzb5xs0qy" class="animable"/><path d="M157.78 352.83l-4.44-7.73a.57.57.0 0 0-.76-.24L146.25 348a1.4 1.4.0 0 0-.53 1.9c1.59 2.67 2.49 3.86 4.44 7.26 1.2 2.09 4.36 8.1 6 11s4.47 1.17 4-.2c-2-6.16-2.57-10.87-2.16-13.68A2.24 2.24.0 0 0 157.78 352.83z" style="fill:#263238;transform-origin:152.877px 357.266px 0" id="elienpeyp07d" class="animable"/><g id="el879cybkzr2a"><path d="M166.63 335.89 171.63 342.06 163.93 347.6 158.93 341.44 166.63 335.89z" style="opacity:.2;transform-origin:165.28px 341.745px 0" class="animable"/></g><path d="M263.84 208.36s-19.49 55.78-28.35 76.74c-9.69 22.95-67.64 63.71-67.64 63.71l-9.15-11.29s39.38-39.47 54-58.19c8.1-25.49 25.39-80.18 25.39-80.18z" style="fill:#263238;transform-origin:211.27px 273.979px 0" id="elnrs4o48szm" class="animable"/><path d="M158.33 337.06 168.22 349.26 173.05 346.47 161.47 333.55 158.33 337.06z" style="fill:#fff;transform-origin:165.69px 341.405px 0" id="eld7e7lme8m5g" class="animable"/><path d="M278.21 214.38l-40.16-15.23c1-3.67 6.25-14.45 10.92-29.46a202.64 202.64.0 0 0 7.68-34v0a2.49 2.49.0 0 1 2.91-2.15c.75.13 1.64.3 2.62.49 2.53.51 5.69 1.23 8.7 2.15a157.65 157.65.0 0 1 17 6.06 51.8 51.8.0 0 1 5.41 2.83 14.81 14.81.0 0 1 2.87 2.13 3 3 0 0 1 1.11 2.06C297.27 155 291.52 177.24 278.21 214.38z" style="fill:#f0f0f0;transform-origin:267.66px 173.939px 0" id="elyheha1xypua" class="animable"/><path d="M287.08 141.87c-4.52-2.94-4.3-6.3-2.77-9.54A22.74 22.74.0 0 1 285.6 130l-4.35-7.35-3.2-5.39c-.7 5.92-2.84 16.4-7.84 18.72a22 22 0 0 0 11.13 8.2C288.72 146.48 287.08 141.87 287.08 141.87z" style="fill:#ffb573;transform-origin:278.723px 131.043px 0" id="el3astwm5p3n9" class="animable"/><path d="M281.06 144.06 280.99 142.18 275.99 143.16 281.06 144.06z" style="fill:#e0e0e0;transform-origin:278.525px 143.12px 0" id="elnhvjcyq09gl" class="animable"/><path d="M281.06 144.06 281.99 142.53 285.22 146.46 281.06 144.06z" style="fill:#e0e0e0;transform-origin:283.14px 144.495px 0" id="elbgs8qh05d3k" class="animable"/><path d="M270.89 135.08a47.22 47.22.0 0 0 10.1 7.1c-2 1.23-3.9 4.47-4.62 7.15-1.62-1.13-8.1-11.79-9-14.72z" style="fill:#fff;transform-origin:274.18px 141.969px 0" id="el6te8zu0whkb" class="animable"/><path d="M286.14 140.73a8 8 0 0 1-4.16 1.8c1.07 1.57 2 5.64 2 8 1.87-1.22 4.76-5.48 5.22-7.41z" style="fill:#fff;transform-origin:285.59px 145.631px 0" id="ellg23ux02mkp" class="animable"/><g id="elzw4lk15en3"><path d="M286.3 140.59s4.37 2.1 8.23 4.48a8.57 8.57.0 0 1 3.76 9.59c-4.77 16.86-11.21 33.23-13.88 42.34-2.83 9.71-6.77 21.89-6.77 21.89l-6.81 1.61S287.9 155.21 286.3 140.59z" style="opacity:.3;transform-origin:284.715px 180.545px 0" class="animable"/></g><g id="elt7rb4q9aa1r"><path d="M270.79 134.32s-5.87-.77-11-1a7.83 7.83.0 0 0-7.94 5.89c-2.6 10.28-4.52 29.94-7.15 37.59C241.43 186.36 237 205 237 205l23.26 13.44S283.76 146.25 270.79 134.32z" style="opacity:.3;transform-origin:255.848px 175.877px 0" class="animable"/></g><path d="M270.79 134.32s-5.87-.77-11-1a7.83 7.83.0 0 0-7.94 5.89c-2.6 10.28-6.14 29.48-8.78 37.14-3.29 9.56-10.27 25.81-10.27 25.81l29.34 13.76S283.76 146.25 270.79 134.32z" style="fill:#90caf9;transform-origin:253.867px 174.617px 0" id="elm2n0g5jk4j" class="animable"/><g id="elj66wq8dw35"><path d="M270.79 134.32s-5.87-.77-11-1a7.83 7.83.0 0 0-7.94 5.89c-2.6 10.28-6.14 29.48-8.78 37.14-3.29 9.56-10.27 25.81-10.27 25.81l29.34 13.76S283.76 146.25 270.79 134.32z" style="opacity:.2;transform-origin:253.867px 174.617px 0" class="animable"/></g><path d="M286.3 140.59s4.37 2.1 8.23 4.48a8.57 8.57.0 0 1 3.76 9.59c-4.77 16.86-8.54 34.53-10.44 43.83-2 9.9-4.09 18.91-4.09 18.91l-11 1.49S287.9 155.21 286.3 140.59z" style="fill:#90caf9;transform-origin:285.682px 179.74px 0" id="elh81ndk0q81r" class="animable"/><g id="ellizc3drmjs"><path d="M286.3 140.59s4.37 2.1 8.23 4.48a8.57 8.57.0 0 1 3.76 9.59c-4.77 16.86-8.54 34.53-10.44 43.83-2 9.9-4.09 18.91-4.09 18.91l-11 1.49S287.9 155.21 286.3 140.59z" style="opacity:.2;transform-origin:285.682px 179.74px 0" class="animable"/></g><g id="elof0g6misuih"><path d="M285.6 130a22.74 22.74.0 0 0-1.29 2.36c-2.14-1.29-4.34-4.85-3.82-7.32a11.24 11.24.0 0 1 .76-2.39z" style="opacity:.2;transform-origin:283.006px 127.504px 0" class="animable"/></g><path d="M291.77 99.68c5.32.69 7.27 7.87 4.33 12.61C291.28 105.3 291.77 99.68 291.77 99.68z" style="fill:#263238;transform-origin:294.611px 105.984px 0" id="elope4ics3eq" class="animable"/><path d="M275.21 112.92c1.8 7.69 2.45 12.27 7.06 15.72A10.26 10.26.0 0 0 298.76 121c.5-7.19-2.52-18.56-10.67-20.62A10.38 10.38.0 0 0 275.21 112.92z" style="fill:#ffb573;transform-origin:286.854px 115.375px 0" id="elh0eso092s" class="animable"/><path d="M277.58 119.77c4.63.13 3.91-7.54 1.89-10.44 6.42 1 17.06-4.67 18.13-10.61 1.55-8.61-11.58-8.61-15.83-5.87 1.83.13 2.76 1.68 2.32 2.48.0.0-6.34-1.92-10.44.31 1.79.66 3.69 3.24-3.12 4.06-6.48.78-4.52 7.3-1.25 7.18-1.74 2.67-3.83 8.74.09 11.32s6.6 5.94 5.75 7.32C276.49 125.47 279.4 123.82 277.58 119.77z" style="fill:#263238;transform-origin:281.986px 108.375px 0" id="elhk3x4rxzpu7" class="animable"/><path d="M270.21 106.28c-3.1.3-4.88 2.72-5 6a24 24 0 0 1 5-6z" style="fill:#263238;transform-origin:267.711px 109.281px 0" id="elkxskhevphv" class="animable"/><path d="M273.36 119.87a7 7 0 0 0 3.8 3.42c2.17.79 3.31-1.13 2.75-3.27-.51-1.94-2.25-4.67-4.45-4.53S272.4 117.91 273.36 119.87z" style="fill:#ffb573;transform-origin:276.51px 119.477px 0" id="elbln60w10cda" class="animable"/><path d="M287.4 113.51c.1.63.53 1.09.94 1s.66-.61.56-1.24-.53-1.1-.95-1S287.29 112.88 287.4 113.51z" style="fill:#263238;transform-origin:288.146px 113.391px 0" id="elxuhbtjyvarm" class="animable"/><path d="M294.57 112.55c.1.63.52 1.09.94 1s.66-.61.56-1.25-.53-1.09-.95-1S294.46 111.91 294.57 112.55z" style="fill:#263238;transform-origin:295.318px 112.426px 0" id="elthsaamx9lx" class="animable"/><path d="M292.34 113.17a24.21 24.21.0 0 0 3.94 5c-.94 1.19-2.93 1-2.93 1z" style="fill:#ed893e;transform-origin:294.311px 116.178px 0" id="elh307enfhggp" class="animable"/><path d="M291.05 121.18a5.46 5.46.0 0 1-4-1.59.19.19.0 0 1 0-.26.19.19.0 0 1 .27.0 5.22 5.22.0 0 0 4.43 1.41.19.19.0 1 1 .05.37A4.81 4.81.0 0 1 291.05 121.18z" style="fill:#263238;transform-origin:289.5px 120.227px 0" id="elg2hyefjd14" class="animable"/><path d="M289.05 123.26a5.46 5.46.0 0 1-2.18-3.73.19.19.0 0 1 .17-.2.18.18.0 0 1 .2.17 5.33 5.33.0 0 0 2.62 3.85.18.18.0 0 1 .07.25.19.19.0 0 1-.26.07A7.4 7.4.0 0 1 289.05 123.26z" style="fill:#263238;transform-origin:288.412px 121.512px 0" id="el6ircs748ywh" class="animable"/><path d="M284.79 111.5a.37.37.0 0 1-.18.0.37.37.0 0 1-.16-.51 3.64 3.64.0 0 1 2.78-2 .37.37.0 0 1 .4.35.37.37.0 0 1-.35.4 2.9 2.9.0 0 0-2.17 1.55A.35.35.0 0 1 284.79 111.5z" style="fill:#263238;transform-origin:286.018px 110.25px 0" id="elp8c63e4kl1" class="animable"/><path d="M297.23 109.68a.36.36.0 0 1-.31-.16 3.14 3.14.0 0 0-2.4-1.4.38.38.0 0 1 0-.75h0a3.86 3.86.0 0 1 3 1.72.37.37.0 0 1-.09.52A.33.33.0 0 1 297.23 109.68z" style="fill:#263238;transform-origin:295.896px 108.525px 0" id="el0hf42ib40owm" class="animable"/><path d="M261.94 146.26c-2 1.63-4.11 3.44-6.12 5.21s-4.06 3.59-6 5.45A117.1 117.1.0 0 0 239 168.38l-1.14 1.48-.14.19a1.09 1.09.0 0 0 .08-.14 2.17 2.17.0 0 0 .15-.35 1.86 1.86.0 0 0 .12-.63c0-.34-.06-.34.0-.18a3.25 3.25.0 0 0 .26.89 14.4 14.4.0 0 0 1.5 2.68 35.22 35.22.0 0 0 2.22 2.92c1.61 2 3.41 3.91 5.3 5.8s3.89 3.8 5.8 5.55l.13.11a4.49 4.49.0 0 1-5.47 7.09 90.11 90.11.0 0 1-14-10.95c-1.09-1.09-2.16-2.23-3.21-3.49a28.27 28.27.0 0 1-3-4.39 16.53 16.53.0 0 1-1.27-3 11.21 11.21.0 0 1-.46-4.33 9.9 9.9.0 0 1 .62-2.67 10.13 10.13.0 0 1 .61-1.29l.36-.59.16-.24 1.3-1.93a108.8 108.8.0 0 1 11.53-13.59c2-2.08 4.1-4.11 6.23-6.07s4.24-3.85 6.59-5.77A7 7 0 0 1 262 146.23z" style="fill:#90caf9;transform-origin:244.83px 164.518px 0" id="eljpbmkohne5" class="animable"/><g id="elfup0x23y39m"><path d="M261.94 146.26c-2 1.63-4.11 3.44-6.12 5.21s-4.06 3.59-6 5.45A117.1 117.1.0 0 0 239 168.38l-1.14 1.48-.14.19a1.09 1.09.0 0 0 .08-.14 2.17 2.17.0 0 0 .15-.35 1.86 1.86.0 0 0 .12-.63c0-.34-.06-.34.0-.18a3.25 3.25.0 0 0 .26.89 14.4 14.4.0 0 0 1.5 2.68 35.22 35.22.0 0 0 2.22 2.92c1.61 2 3.41 3.91 5.3 5.8s3.89 3.8 5.8 5.55l.13.11a4.49 4.49.0 0 1-5.47 7.09 90.11 90.11.0 0 1-14-10.95c-1.09-1.09-2.16-2.23-3.21-3.49a28.27 28.27.0 0 1-3-4.39 16.53 16.53.0 0 1-1.27-3 11.21 11.21.0 0 1-.46-4.33 9.9 9.9.0 0 1 .62-2.67 10.13 10.13.0 0 1 .61-1.29l.36-.59.16-.24 1.3-1.93a108.8 108.8.0 0 1 11.53-13.59c2-2.08 4.1-4.11 6.23-6.07s4.24-3.85 6.59-5.77A7 7 0 0 1 262 146.23z" style="opacity:.2;transform-origin:244.83px 164.518px 0" class="animable"/></g><path d="M254.67 188.24l6.8 4.16-8.69 4.95s-5.78-4.32-3.31-7.11l2.9-2A2.11 2.11.0 0 1 254.67 188.24z" style="fill:#ffb573;transform-origin:255.162px 192.625px 0" id="ele0ois1p0a5p" class="animable"/><path d="M261.84 2e2l-3.74 2.2a2.25 2.25.0 0 1-3.12-.84l-2.2-4 8.69-4.95 1.4 5A2.28 2.28.0 0 1 261.84 2e2z" style="fill:#ffb573;transform-origin:257.871px 197.463px 0" id="ele1dgl0s4ds" class="animable"/></g><g id="jvn--Megaphone--inject-24" style="transform-origin:374.983px 110.027px 0" class="animable"><path d="M326.89 129.38l9.21-1.81c-2.53 4.46 1.19 8.73 4.53 11.41 1.59 1.28.47 3.57-2 4l-6 1.18C325.39 145.62 326.89 129.38 326.89 129.38z" style="fill:#90caf9;transform-origin:334.064px 135.912px 0" id="el68ansq29dd" class="animable"/><path d="M323.23 130.09 344.35 126a12.72 12.72.0 0 0 10-14.9h0a12.74 12.74.0 0 0-14.9-10l-21.11 4.14a12.75 12.75.0 0 0-10 14.91h0A12.73 12.73.0 0 0 323.23 130.09z" style="fill:#90caf9;transform-origin:331.346px 115.596px 0" id="el4adphdrwwgs" class="animable"/><g id="eli1sjsnu774f"><path d="M323.23 130.09 344.35 126a12.72 12.72.0 0 0 10-14.9h0a12.74 12.74.0 0 0-14.9-10l-21.11 4.14a12.75 12.75.0 0 0-10 14.91h0A12.73 12.73.0 0 0 323.23 130.09z" style="fill:#fff;opacity:.3;transform-origin:331.346px 115.596px 0" class="animable"/></g><path d="M380.71 134.4l-36-.48c-3.12.61-11-39.79-7.92-40.4l33.14-14z" style="fill:#90caf9;transform-origin:358.4px 106.959px 0" id="elaed3e7xizmp" class="animable"/><path d="M372.45 107.51c3 15.16 6.67 27.2 8.26 26.89s.47-12.86-2.51-28-6.67-27.2-8.26-26.89S369.48 92.34 372.45 107.51z" style="fill:#90caf9;transform-origin:375.326px 106.955px 0" id="elo44fwz5zgm" class="animable"/><g id="eli0xh6aojb9"><path d="M372.45 107.51c3 15.16 6.67 27.2 8.26 26.89s.47-12.86-2.51-28-6.67-27.2-8.26-26.89S369.48 92.34 372.45 107.51z" style="opacity:.3;transform-origin:375.326px 106.955px 0" class="animable"/></g><path d="M386 105.64c-.73-3.71-9-5.22-10.75-4.87s-2.6 3.63-1.88 7.34 2.75 6.43 4.51 6.09S386.7 109.34 386 105.64z" style="fill:#90caf9;transform-origin:379.58px 107.475px 0" id="el20ki503mlzm" class="animable"/><g id="elcyv7xsdejt"><path d="M394.63 99.81h47.45v1.07H394.63z" style="fill:#90caf9;transform-origin:418.355px 100.345px 0;transform:rotate(-9.19deg)" class="animable"/></g><g id="el8nkwuz3py7u"><path d="M387.77 83.86h25.24v1.07H387.77z" style="fill:#90caf9;transform-origin:400.39px 84.395px 0;transform:rotate(-40.45deg)" class="animable"/></g><g id="elcfyk67910ie"><path d="M421.95 124.44h1.07v7.47H421.95z" style="fill:#90caf9;transform-origin:422.485px 128.175px 0;transform:rotate(-70.56deg)" class="animable"/></g><g id="elwksqd4itqc9"><path d="M401.82 111.83h1.07v18.8H401.82z" style="fill:#90caf9;transform-origin:402.355px 121.23px 0;transform:rotate(-71.46deg)" class="animable"/></g></g><defs><filter id="active" height="200%"><feMorphology in="SourceAlpha" result="DILATED" operator="dilate" radius="2"/><feFlood flood-color="#32dfec" flood-opacity="1" result="PINK"/><feComposite in="PINK" in2="DILATED" operator="in" result="OUTLINE"/><feMerge><feMergeNode in="OUTLINE"/><feMergeNode in="SourceGraphic"/></feMerge></filter><filter id="hover" height="200%"><feMorphology in="SourceAlpha" result="DILATED" operator="dilate" radius="2"/><feFlood flood-color="red" flood-opacity=".5" result="PINK"/><feComposite in="PINK" in2="DILATED" operator="in" result="OUTLINE"/><feMerge><feMergeNode in="OUTLINE"/><feMergeNode in="SourceGraphic"/></feMerge><feColorMatrix type="matrix" values="0 0 0 0 0 0 1 0 0 0 0 0 0 0 0 0 0 0 1 0"/></filter></defs></svg>