<svg class="animated" id="jeevan-growing" xmlns="http://www.w3.org/2000/svg" xmlns:xlink="http://www.w3.org/1999/xlink" viewBox="0 0 500 500" ><style>svg#jeevan-growing:not(.animated) .animable{opacity:0}svg#jeevan-growing.animated #elv3va2fh707s{animation:4.3s 1 forwards cubic-bezier(.36,-0.01,.5,1.38) slideLeft;animation-delay:.2s;opacity:0}svg#jeevan-growing.animated #elw5ckmqisf8{animation:4.3s 1 forwards cubic-bezier(.36,-0.01,.5,1.38) slideLeft;animation-delay:2.15s;opacity:0}svg#jeevan-growing.animated #jvn--background-simple--inject-6{animation:4.3s 1 forwards cubic-bezier(.36,-0.01,.5,1.38) slideLeft,1.5s Infinite linear floating;animation-delay:.2s,4.5s;opacity:0}svg#jeevan-growing.animated #elp0chhxk1kq{animation:2.9s 1 forwards cubic-bezier(.36,-0.01,.5,1.38) slideLeft;animation-delay:0s}svg#jeevan-growing.animated #elawvyk3zcdig{animation:2.9s 1 forwards cubic-bezier(.36,-0.01,.5,1.38) slideLeft;animation-delay:.145s;opacity:0}svg#jeevan-growing.animated #el2317832gfgo{animation:2.9s 1 forwards cubic-bezier(.36,-0.01,.5,1.38) slideLeft;animation-delay:.29s;opacity:0}svg#jeevan-growing.animated #elkbvppm6mgxk{animation:2.9s 1 forwards cubic-bezier(.36,-0.01,.5,1.38) slideLeft;animation-delay:.43499999999999994s;opacity:0}svg#jeevan-growing.animated #elwaic5zf7poh{animation:2.9s 1 forwards cubic-bezier(.36,-0.01,.5,1.38) slideLeft;animation-delay:.58s;opacity:0}svg#jeevan-growing.animated #eltvickysmgf{animation:2.9s 1 forwards cubic-bezier(.36,-0.01,.5,1.38) slideLeft;animation-delay:.725s;opacity:0}svg#jeevan-growing.animated #elduz4fky9kii{animation:2.9s 1 forwards cubic-bezier(.36,-0.01,.5,1.38) slideLeft;animation-delay:.8699999999999999s;opacity:0}svg#jeevan-growing.animated #el75470jvqaqt{animation:2.9s 1 forwards cubic-bezier(.36,-0.01,.5,1.38) slideLeft;animation-delay:1.015s;opacity:0}svg#jeevan-growing.animated #elvwrhipzm40d{animation:2.9s 1 forwards cubic-bezier(.36,-0.01,.5,1.38) slideLeft;animation-delay:1.16s;opacity:0}svg#jeevan-growing.animated #ell6mwuqmwmjg{animation:2.9s 1 forwards cubic-bezier(.36,-0.01,.5,1.38) slideLeft;animation-delay:1.305s;opacity:0}svg#jeevan-growing.animated #eli3oomw2xlg8{animation:2.9s 1 forwards cubic-bezier(.36,-0.01,.5,1.38) slideLeft;animation-delay:1.45s;opacity:0}svg#jeevan-growing.animated #elh1xpg6ex78{animation:2.9s 1 forwards cubic-bezier(.36,-0.01,.5,1.38) slideLeft;animation-delay:1.595s;opacity:0}svg#jeevan-growing.animated #el7paucd3q8hg{animation:2.9s 1 forwards cubic-bezier(.36,-0.01,.5,1.38) slideLeft;animation-delay:1.7399999999999998s;opacity:0}svg#jeevan-growing.animated #elq84u5dknyyi{animation:2.9s 1 forwards cubic-bezier(.36,-0.01,.5,1.38) slideLeft;animation-delay:1.8849999999999998s;opacity:0}svg#jeevan-growing.animated #elp5i0eiyja8{animation:2.9s 1 forwards cubic-bezier(.36,-0.01,.5,1.38) slideLeft;animation-delay:2.03s;opacity:0}svg#jeevan-growing.animated #elk9gij0zwzcc{animation:2.9s 1 forwards cubic-bezier(.36,-0.01,.5,1.38) slideLeft;animation-delay:2.175s;opacity:0}svg#jeevan-growing.animated #eltyatvsvqdsn{animation:2.9s 1 forwards cubic-bezier(.36,-0.01,.5,1.38) slideLeft;animation-delay:2.32s;opacity:0}svg#jeevan-growing.animated #eljdmjq1l6rb{animation:2.9s 1 forwards cubic-bezier(.36,-0.01,.5,1.38) slideLeft;animation-delay:2.465s;opacity:0}svg#jeevan-growing.animated #el7d9bey64o95{animation:2.9s 1 forwards cubic-bezier(.36,-0.01,.5,1.38) slideLeft;animation-delay:2.61s;opacity:0}svg#jeevan-growing.animated #elkr67iwnwsdb{animation:2.9s 1 forwards cubic-bezier(.36,-0.01,.5,1.38) slideLeft;animation-delay:2.755s;opacity:0}svg#jeevan-growing.animated #jvn--Charts--inject-6{animation:2.9s 1 forwards cubic-bezier(.36,-0.01,.5,1.38) slideLeft,1.5s Infinite linear floating;animation-delay:0s,2.9s}svg#jeevan-growing.animated #jvn--Character--inject-6{animation:1.8s 1 forwards ease-in slideLeft,1.5s Infinite linear floating;animation-delay:.2s,2s;opacity:0}@keyframes slideLeft{0%{opacity:0;transform:translateX(-30px)}100%{opacity:1;transform:translateX(0)}}@keyframes floating{0%{opacity:1;transform:translateY(0px)}50%{transform:translateY(-10px)}100%{opacity:1;transform:translateY(0px)}}</style><g id="jvn--background-simple--inject-6" style="transform-origin:254.008px 282.447px 0" class="animable"><path d="M441.09 359.28c19.47-48.76 26-106.38 9.67-156.9-19-58.95-72.44-92.81-134-98.31C275 100.32 232 116.25 207.74 150.82c-14.52 20.67-25.81 44.44-44.86 61.67S117.7 233.13 95 243.4c-22 9.95-35.62 28.3-42.21 50.94A123.72 123.72.0 0 0 58 377.2c17.51 40.64 55.12 66.69 98.35 75.71 54 11.28 115.21 11.18 169.34.21S420.86 410 441.09 359.28z" style="fill:#90caf9;transform-origin:254.008px 282.447px 0" id="elv3va2fh707s" class="animable"/><g id="elw5ckmqisf8"><path d="M441.09 359.28c19.47-48.76 26-106.38 9.67-156.9-19-58.95-72.44-92.81-134-98.31C275 100.32 232 116.25 207.74 150.82c-14.52 20.67-25.81 44.44-44.86 61.67S117.7 233.13 95 243.4c-22 9.95-35.62 28.3-42.21 50.94A123.72 123.72.0 0 0 58 377.2c17.51 40.64 55.12 66.69 98.35 75.71 54 11.28 115.21 11.18 169.34.21S420.86 410 441.09 359.28z" style="fill:#fff;opacity:.7;transform-origin:254.008px 282.447px 0" class="animable"/></g></g><g id="jvn--Charts--inject-6" style="transform-origin:242.404px 282.918px 0" class="animable"><g id="elp0chhxk1kq"><path d="M453.58 212.08H163.31c-.15.14-.28.28-.43.41C149.16 224.9 131.7 230.15 114.5 236H458.22A193.22 193.22.0 0 0 453.58 212.08z" style="opacity:.03;transform-origin:286.359px 224.039px 0" class="animable"/></g><g id="elawvyk3zcdig"><path d="M460 260.55H71.19a80.07 80.07.0 0 0-14.92 23.89H459.08A235.51 235.51.0 0 0 460 260.55z" style="opacity:.03;transform-origin:258.145px 272.496px 0" class="animable"/></g><g id="el2317832gfgo"><path d="M48.08 332.91h402q3.35-11.78 5.63-23.9H49.52A123.37 123.37.0 0 0 48.08 332.91z" style="opacity:.03;transform-origin:251.854px 320.961px 0" class="animable"/></g><g id="elkbvppm6mgxk"><path d="M58 377.2c.6 1.41 1.24 2.8 1.9 4.17H430.28a159.91 159.91.0 0 0 10.81-22.09c.24-.6.47-1.2.7-1.8H51.41A120.59 120.59.0 0 0 58 377.2z" style="opacity:.03;transform-origin:246.6px 369.426px 0" class="animable"/></g><g id="elwaic5zf7poh"><path d="M101.57 429.84H384a145.6 145.6.0 0 0 28.2-23.9H75.49A127.37 127.37.0 0 0 101.57 429.84z" style="opacity:.03;transform-origin:243.844px 417.891px 0" class="animable"/></g><path d="M262 460.87a419.39 419.39.0 0 0 63.61-7.75 172.84 172.84.0 0 0 45.58-15.87V351.4H262z" style="fill:#90caf9;transform-origin:316.596px 406.135px 0" id="eltvickysmgf" class="animable"/><g id="elduz4fky9kii"><path d="M262 460.87a419.39 419.39.0 0 0 63.61-7.75 172.84 172.84.0 0 0 45.58-15.87V351.4H262z" style="fill-opacity:.5;stroke:#263238;stroke-linecap:round;stroke-linejoin:round;transform-origin:316.596px 406.135px 0" class="animable"/></g><path d="M262 460.87V351.4L252.55 329V461.21C255.71 461.13 258.88 461 262 460.87z" style="fill:#263238;transform-origin:257.275px 395.105px 0" id="el75470jvqaqt" class="animable"/><g id="elvwrhipzm40d"><path d="M371.23 351.58H262.03L252.55 328.99H361.74L371.23 351.58z" style="fill:#fff;stroke:#263238;stroke-linecap:round;stroke-linejoin:round;stroke-width:1.16992px;opacity:.5;transform-origin:311.89px 340.285px 0" class="animable"/></g><path d="M371.23 351.58H262.03L252.55 328.99H361.74L371.23 351.58z" style="fill:#90caf9;stroke:#263238;stroke-linecap:round;stroke-linejoin:round;transform-origin:311.89px 340.285px 0" id="ell6mwuqmwmjg" class="animable"/><path d="M255.35 411H146.16v39.41q5 1.4 10.14 2.47a423.39 423.39.0 0 0 99 8.22z" style="fill:#90caf9;stroke:#263238;stroke-linecap:round;stroke-linejoin:round;transform-origin:200.756px 436.178px 0" id="eli3oomw2xlg8" class="animable"/><path d="M255.35 411.2H146.16L136.67 388.61H245.87L255.35 411.2z" style="fill:#90caf9;transform-origin:196.01px 399.905px 0" id="elh1xpg6ex78" class="animable"/><g style='clip-path:url("#jvn--clip-path--inject-6");transform-origin:196.01px 399.905px 0' id="el7paucd3q8hg" class="animable"><g id="elx85is5u24h"><path d="M255.35 411.2H146.16L136.67 388.61H245.87L255.35 411.2z" style="fill:#fff;stroke:#263238;stroke-linecap:round;stroke-linejoin:round;opacity:.5;transform-origin:196.01px 399.905px 0" class="animable"/></g></g><path d="M255.35 411.2H146.16L136.67 388.61H245.87L255.35 411.2z" style="fill:none;stroke:#263238;stroke-linecap:round;stroke-linejoin:round;stroke-width:1.16992px;transform-origin:196.01px 399.905px 0" id="elq84u5dknyyi" class="animable"/><path d="M136.67 447.5c3.12 1.08 6.29 2.05 9.49 2.94V411l-9.49-22.42z" style="fill:#263238;transform-origin:141.416px 419.51px 0" id="elp5i0eiyja8" class="animable"/><path d="M58 377.2C72.94 412 102.67 436.07 138 448V375.36H57.2C57.46 376 57.69 376.59 58 377.2z" style="fill:#90caf9;transform-origin:97.5996px 411.68px 0" id="elk9gij0zwzcc" class="animable"/><g id="eltyatvsvqdsn"><path d="M58 377.2C72.94 412 102.67 436.07 138 448V375.36H57.2C57.46 376 57.69 376.59 58 377.2z" style="fill-opacity:.5;stroke:#263238;stroke-linecap:round;stroke-linejoin:round;transform-origin:97.5996px 411.68px 0" class="animable"/></g><path d="M57.28 375.54H138L128.55 353H50.42A121.83 121.83.0 0 0 57.28 375.54z" style="fill:#90caf9;stroke:#263238;stroke-linecap:round;stroke-linejoin:round;transform-origin:94.2109px 364.27px 0" id="eljdmjq1l6rb" class="animable"/><path d="M421.3 185.62l-55.56-66.08-5.84 5.84 20.25 24.08L186.39 312.38l-44.7-50.7a11.69 11.69.0 0 0-17.84.35L24.79 383.7l18.15 14.78 90.33-111 43.13 48.92a11.69 11.69.0 0 0 16.3 1.22L395.21 167.37l20.25 24.09z" style="fill:#fff;stroke:#263238;stroke-linecap:round;stroke-linejoin:round;transform-origin:223.045px 259.01px 0" id="el7d9bey64o95" class="animable"/><path d="M450.74 104.48l-85 15.06L386 143.63 192.23 306.55l-44.7-50.71a11.7 11.7.0 0 0-17.85.35L30.63 377.87l18.14 14.77 90.34-111 43.13 48.92a11.69 11.69.0 0 0 16.3 1.22L401.05 161.54l20.25 24.08z" style="fill:#263238;stroke:#263238;stroke-linecap:round;stroke-linejoin:round;transform-origin:240.684px 248.561px 0" id="elkr67iwnwsdb" class="animable"/></g><g id="jvn--Character--inject-6" style="transform-origin:311.605px 206.467px 0" class="animable animator-active"><g id="el112ovkyc5rae"><ellipse cx="313.14" cy="340.31" rx="41.18" ry="7.13" style="opacity:.15;transform-origin:313.14px 340.31px 0" class="animable"/></g><path d="M287.89 326.54s-6.62 10.14-6.23 12.87 7.79 5.85 10.13 7 17.16 2.73 19.11.39-2.73-3.12-5.46-4.29-9.75-7-9.75-7l-.78-6.63z" style="fill:#263238;stroke:#263238;stroke-miterlimit:10;stroke-width:1.16992px;transform-origin:296.504px 337.273px 0" id="elngtkqg6mgz8" class="animable"/><path d="M310.9 346.82c.61-.73.57-1.31.15-1.8-4.46.43-11.28.82-16.14-.15-5.68-1.13-10.72-4.95-13.05-6.94a3.75 3.75.0 0 0-.2 1.48c.39 2.73 7.79 5.85 10.13 7S309 349.16 310.9 346.82z" style="fill:#fff;stroke:#263238;stroke-linecap:round;stroke-linejoin:round;stroke-width:1.16992px;transform-origin:296.508px 342.977px 0" id="el5y2wkfl57zj" class="animable"/><path d="M328.45 319.13s-7 7.8-5.46 10.14 6.63 1.56 9.75 4.29 7.8 6.24 12.48 7.8 8.58-1.17 6.63-2.73-10.92-9.36-11.7-12.09a32.11 32.11.0 0 1-.78-7z" style="fill:#263238;stroke:#263238;stroke-miterlimit:10;stroke-width:1.16992px;transform-origin:337.564px 330.479px 0" id="elpcanufu72a" class="animable"/><path d="M352.1 340.29a21.19 21.19.0 0 1-6.1-.49c-3.51-.78-8.19-5.85-12.87-9.36-2.91-2.18-7.32-2.7-10.25-2.79a2.07 2.07.0 0 0 .11 1.62c1.56 2.34 6.63 1.56 9.75 4.29s7.8 6.24 12.48 7.8C348.42 342.43 351.26 341.49 352.1 340.29z" style="fill:#fff;stroke:#263238;stroke-linecap:round;stroke-linejoin:round;stroke-width:1.16992px;transform-origin:337.434px 334.738px 0" id="elvf185dtexqc" class="animable"/><path d="M309.37 197s-5.62 20.3-4.45 26.15 9.1 54.25 9.1 54.25l-26.13 49.13 9.75 5.46s34.32-44.84 34.71-50.3 1.32-47.82 1.32-47.82l22.47 40.41-29.25 44.45s4.68 3.9 7.8 3.9h5.07s37.05-46 37.44-48.74-24.92-58.07-24.92-58.07l-1.58-12.58z" style="fill:#90caf9;stroke:#263238;stroke-linecap:round;stroke-linejoin:round;stroke-width:1.16992px;transform-origin:332.547px 264.494px 0" id="elud6qpmaf3hb" class="animable"/><path d="M317.09 211.05s2.83 6.8.28 10.49-7.65 5.1-7.65 5.1" style="fill:none;stroke:#263238;stroke-linecap:round;stroke-linejoin:round;stroke-width:1.16992px;transform-origin:314.078px 218.846px 0" id="elcriz3sigtxn" class="animable"/><path d="M333.67 233.88 346.85 222.11z" style="fill:none;stroke:#263238;stroke-linecap:round;stroke-linejoin:round;stroke-width:1.16992px;transform-origin:340.26px 227.995px 0" id="elwz4zjuqhefe" class="animable"/><path d="M342.9 213.05l-2.09 4.47s5.67 1.49 3.29 4.18-3.88 3-3.88 3" style="fill:none;stroke:#263238;stroke-linecap:round;stroke-linejoin:round;stroke-width:1.16992px;transform-origin:342.451px 218.875px 0" id="eln2zuviml6q" class="animable"/><path d="M334.66 233.73 344.87 227.49z" style="fill:none;stroke:#263238;stroke-linecap:round;stroke-linejoin:round;stroke-width:1.16992px;transform-origin:339.765px 230.61px 0" id="elzkkenvvyoqk" class="animable"/><path d="M310 211.05a132.55 132.55.0 0 0-1.42 13.89" style="fill:none;stroke:#263238;stroke-linecap:round;stroke-linejoin:round;stroke-width:1.16992px;transform-origin:309.289px 217.996px 0" id="ele6gyp6j7lx9" class="animable"/><path d="M294.59 324.5 292.99 327.27z" style="fill:none;stroke:#263238;stroke-linecap:round;stroke-linejoin:round;stroke-width:1.16992px;transform-origin:293.79px 325.885px 0" id="el9j2owjl2d5d" class="animable"/><path d="M309.72 230.61s6.23 44.22 6.8 45.64 2.83 1.42 2.27 2.55a5.91 5.91.0 0 1-2.27 2l1.42 3.12-21.07 36.64" style="fill:none;stroke:#263238;stroke-linecap:round;stroke-linejoin:round;stroke-width:1.16992px;transform-origin:307.875px 275.584px 0" id="eliob26uur1p" class="animable"/><path d="M335.13 315.77 332.68 319.62z" style="fill:none;stroke:#263238;stroke-linecap:round;stroke-linejoin:round;stroke-width:1.16992px;transform-origin:333.905px 317.695px 0" id="eldba35syobyl" class="animable"/><path d="M336.93 233.44S356.21 266 359 270.86s6.8 2.55 5.67 4.25-5.39 2.56-5.39 2.56L337.4 312.19" style="fill:none;stroke:#263238;stroke-linecap:round;stroke-linejoin:round;stroke-width:1.16992px;transform-origin:350.898px 272.816px 0" id="el0ty007ln6ifj" class="animable"/><path d="M307.57 205.61a14.11 14.11.0 0 0 2.17 1.27c3.11 1.55 4.41 2.33 4.41 2.33l1-5.18 3.89.77-.52 4.41s-.52 1 4.67 1.3S330 211.8 330 211.8l1-6 3.89-.26v6.74a77.78 77.78.0 0 0 9.07-.52 13.12 13.12.0 0 0 5.44-2.07v-4.67l-2.11-2.33L309.37 197S308.53 201.58 307.57 205.61z" style="fill:#263238;transform-origin:328.484px 204.641px 0" id="elp3rsvc7pc7" class="animable"/><path d="M340.58 208.17v3.63a27.12 27.12.0 0 0 6.74-1.55l.51-3.11S341.87 207.65 340.58 208.17z" style="fill:#fff;stroke:#263238;stroke-linecap:round;stroke-linejoin:round;stroke-width:1.16992px;transform-origin:344.203px 209.471px 0" id="el4nf1tq10364" class="animable"/><path d="M376.17 207.41l-6.05.51-4.66 5.53s4.49 3.62 6.91 5.87 4.49 4.31 6.39 3.79 8.45-9.49 8.45-11.56S379.79 205.68 376.17 207.41z" style="fill:#fff;stroke:#263238;stroke-linecap:round;stroke-linejoin:round;stroke-width:1.16992px;transform-origin:376.336px 215.082px 0" id="elfl2bjrautr9" class="animable"/><path d="M372.54 209.13a16.44 16.44.0 0 1 3.63-2.93 6.07 6.07.0 0 1 6.38.17c2.25 1.38 2.59 2.76 1.38 4.31s-5.86 7.08-6.21 5.7 1.73-5.7 1.73-5.7-2.77 6.39-6.56 2.25" style="fill:#fff;stroke:#263238;stroke-linecap:round;stroke-linejoin:round;stroke-width:1.16992px;transform-origin:378.578px 210.986px 0" id="elsm2q5maqhe" class="animable"/><path d="M377.55 221.73s-2.76-2.59-2.76-3.79 3.62-4.32 3.62-4.32" style="fill:none;stroke:#263238;stroke-linecap:round;stroke-linejoin:round;stroke-width:1.16992px;transform-origin:376.6px 217.676px 0" id="elq80nkaqp3hn" class="animable"/><path d="M368.74 204.64 372.2 207.41 366.5 214.14 363.39 211.2 368.74 204.64z" style="fill:#fff;stroke:#263238;stroke-linecap:round;stroke-linejoin:round;stroke-width:1.16992px;transform-origin:367.795px 209.39px 0" id="elmnovtc5293r" class="animable"/><path d="M351.66 188.88 370.12 204.56 362.46 212.22 346.78 201.77 351.66 188.88z" style="fill:#90caf9;stroke:#263238;stroke-linecap:round;stroke-linejoin:round;stroke-width:1.16992px;transform-origin:358.45px 200.55px 0" id="elcvuvcb1trvi" class="animable"/><path d="M325 129.41s-9 4.81-10.46 12.76-5.86 52.77-5.86 56.74 11.29 8.79 21.12 9 19.87.0 21.34-3.35 4.4-41.47 3.14-52.35-4-16.94-8-19.66S330.45 126.28 325 129.41z" style="fill:#fff;stroke:#263238;stroke-linecap:round;stroke-linejoin:round;stroke-width:1.16992px;transform-origin:331.633px 168.078px 0" id="el79o27myamwx" class="animable"/><path d="M312.64 199s22.44-8.9 31.33-20.89" style="fill:none;stroke:#263238;stroke-linecap:round;stroke-linejoin:round;stroke-width:1.16992px;transform-origin:328.305px 188.555px 0" id="elfusemo1fzdt" class="animable"/><path d="M311.09 201.66a62.71 62.71.0 0 0 27.85-3.48" style="fill:none;stroke:#263238;stroke-linecap:round;stroke-linejoin:round;stroke-width:1.16992px;transform-origin:325.016px 200.08px 0" id="eld3y10ays5tq" class="animable"/><path d="M328.35 110.17s0 .39.06 1.06a69 69 0 0 1-.26 10.23l-.63 5.65 15.89 4.6s.63-3.34 2.1-8.15a49.18 49.18.0 0 1 4.39-9.63s-7.32-2.3-11.51-5.85S329.82 105.78 328.35 110.17z" style="fill:#fff;stroke:#263238;stroke-linecap:round;stroke-linejoin:round;stroke-width:1.16992px;transform-origin:338.709px 118.865px 0" id="elgj2v33u2ox6" class="animable"/><path d="M343.83 80.68s4.6-3.56 1.89-10.46-14.23-6.07-18.41-3.14-2.09 4.81.21 5 3.34 2.72.42 3.56-6.28-1.26-11.09 4-.21 9.83.63 8.58 2.3-4.19 2.72-2.3S316 90.3 315.39 96.16s4.81 11.71 8.36 14.64 8.16 3.76 10.25 1 4.19-7.32 6.49-10.25-.42-10-1.26-12.76S343.83 80.68 343.83 80.68z" style="fill:#263238;stroke:#263238;stroke-linecap:round;stroke-linejoin:round;stroke-width:1.16992px;transform-origin:330.631px 89.1992px 0" id="eldod60s7jsgt" class="animable"/><path d="M333.37 104.73s-2.92-4.39-5.64-2.93.0 7.53 2.51 9.42 5.85-1 5.85-1 5 7.11 8.79 7.11 15.27-.63 16.1-4.39-5.23-16.11-5.23-16.11 1.89-2.3 1.68-3.76-4.19-.84-5-1.47-2.93-6.06-5.44-9-3.76-2.93-3.76-2.93S330 86.32 333 88.42s4 .21 3.76 1.67-4.81 6.9-4 7.53 3.76 2.3 3.34 4.18S335.88 105.36 333.37 104.73z" style="fill:#fff;stroke:#263238;stroke-linecap:round;stroke-linejoin:round;stroke-width:1.16992px;transform-origin:343.828px 98.5px 0" id="ely4f4trb6x7q" class="animable"/><path d="M350.43 92.08c.5 1.21.49 2.36.0 2.58s-1.35-.58-1.86-1.78-.49-2.36.0-2.58S349.92 90.88 350.43 92.08z" style="fill:#263238;transform-origin:349.498px 92.4785px 0" id="el3hb4znhltqo" class="animable"/><path d="M348.6 87.91s-3.08-.91-4.35 1.45" style="fill:none;stroke:#263238;stroke-linecap:round;stroke-linejoin:round;stroke-width:1.16992px;transform-origin:346.426px 88.5488px 0" id="el3diju1chcge" class="animable"/><path d="M355.68 102.25s-1.45 1.63-3.81.18" style="fill:none;stroke:#263238;stroke-linecap:round;stroke-linejoin:round;stroke-width:1.16992px;transform-origin:353.775px 102.641px 0" id="el534gopkzc0q" class="animable"/><path d="M295.9 157.51s-21.38.11-25.76.83.32 12.33.77 15.07S295.9 157.51 295.9 157.51z" style="fill:#90caf9;stroke:#263238;stroke-linecap:round;stroke-linejoin:round;stroke-width:1.16992px;transform-origin:282.094px 165.598px 0" id="el8e60cnppdai" class="animable"/><path d="M341.71 134.29a19.68 19.68.0 0 1 3.12 19.5c-4.29 11.3-28.86 31.58-42.12 40.94a256.6 256.6.0 0 1-26.9 16.38S261 199 256.7 187.71s1.15-17 16.75-22.44 35.5-12.26 39-22 7.88-17.08 15.06-16.15S341.71 134.29 341.71 134.29z" style="fill:#90caf9;stroke:#263238;stroke-linecap:round;stroke-linejoin:round;stroke-width:1.16992px;transform-origin:300.711px 169.076px 0" id="el50x1eez7vig" class="animable"/><path d="M313.24 186.54s-14.43 5.46-26.91 9.36-28.07 3.12-27.68 6.24 9.36 9 11.31 10.14 5.85-1.56 10.53-2.73S307 194.34 313.24 186.54z" style="fill:#263238;stroke:#263238;stroke-linecap:round;stroke-linejoin:round;stroke-width:1.16992px;transform-origin:285.939px 199.547px 0" id="eldc9cs3iwqed" class="animable"/><path d="M265.69 221.88 264.16 234.25 266.63 234.56 267.9 224.31 288.76 226.89 287.5 237.14 289.97 237.45 291.5 225.08 265.69 221.88z" style="fill:#fff;stroke:#263238;stroke-linecap:round;stroke-linejoin:round;stroke-width:1.16992px;transform-origin:277.83px 229.665px 0" id="ell727af5h3vm" class="animable"/><g id="el9nx9h5xoo1"><rect x="243.55" y="234.26" width="61.63" height="46.67" rx="4.75" style="fill:#fff;stroke:#263238;stroke-linecap:round;stroke-linejoin:round;stroke-width:1.16992px;transform-origin:274.365px 257.595px 0;transform:rotate(6.91123deg)" class="animable"/></g><path d="M246.22 253.62 302.42 260.81z" style="fill:none;stroke:#263238;stroke-linecap:round;stroke-linejoin:round;stroke-width:1.16992px;transform-origin:274.32px 257.215px 0" id="el71ontzdbi8" class="animable"/><path d="M253.07 232.81 248.56 270.1 251.74 275.93 256.25 271.42 261.03 233.75" style="fill:#fff;stroke:#263238;stroke-linecap:round;stroke-linejoin:round;stroke-width:1.16992px;transform-origin:254.795px 254.37px 0" id="elj0kquetzft" class="animable"/><g id="el9mj8xexvh8c"><path d="M247.76 258.42h11.14v5.31H247.76z" style="fill:#fff;stroke:#263238;stroke-linecap:round;stroke-linejoin:round;stroke-width:1.16992px;transform-origin:253.33px 261.075px 0;transform:rotate(7.52deg)" class="animable"/></g><g id="elvepiz3gwy5m"><path d="M247.76 260.41h11.14v1.33H247.76z" style="fill:#fff;stroke:#263238;stroke-linecap:round;stroke-linejoin:round;stroke-width:1.16992px;transform-origin:253.33px 261.075px 0;transform:rotate(7.48089deg)" class="animable"/></g><path d="M292.36 237.91 287.83 275.14 291.01 280.98 295.52 276.46 300.3 238.79" style="fill:#fff;stroke:#263238;stroke-linecap:round;stroke-linejoin:round;stroke-width:1.16992px;transform-origin:294.065px 259.445px 0" id="elobsqo6lwzzb" class="animable"/><g id="elq87dl7r9yh"><path d="M287.03 263.46h11.14v5.31H287.03z" style="fill:#fff;stroke:#263238;stroke-linecap:round;stroke-linejoin:round;stroke-width:1.16992px;transform-origin:292.6px 266.115px 0;transform:rotate(7.52deg)" class="animable"/></g><g id="elj6x3racwzvg"><path d="M287.03 265.45h11.14v1.33H287.03z" style="fill:#fff;stroke:#263238;stroke-linecap:round;stroke-linejoin:round;stroke-width:1.16992px;transform-origin:292.6px 266.115px 0;transform:rotate(7.52deg)" class="animable"/></g><path d="M335.08 137.8s-4.29-2.34-11.31-1.56S282.05 158.08 277 160.42s-4.68 9.35-4.68 9.35l3.12 44.85h9.74l6.24-43.68s44.69-11.86 46.09-20.7" style="fill:#90caf9;stroke:#263238;stroke-linecap:round;stroke-linejoin:round;stroke-width:1.16992px;transform-origin:304.912px 175.35px 0" id="elw8m2043ozen" class="animable"/><path d="M285.16 214.62l2.34 8.19s0 7.8-1.17 8.58-1.56 2.34-3.5.78l-1.95-1.56a29.14 29.14.0 0 0-4.29-.78c-1.17.0-3.51.0-4.29-2s3.12-13.26 3.12-13.26z" style="fill:#fff;stroke:#263238;stroke-linecap:round;stroke-linejoin:round;stroke-width:1.16992px;transform-origin:279.85px 223.705px 0" id="el7bsutwgek78" class="animable"/><path d="M344.3 137.6l1.63 7.2a36 36 0 0 1-11.7 1.95c-6.63.0-17.94-10.53-25.73-16.38s-15.6 1.95-22.62 4.29-12.48 1.17-23.4-2.73-23 5.07-23 5.07L236 145.58l10.92 5.85s10.14-11.31 17.55-11.31 21.84 5.46 27.3 2.34 9.75-9 13.65-8.19S326.43 152.21 335 153a12.39 12.39.0 0 0 12.09-5.85l3.12-9S345 130.78 344.3 137.6z" style="fill:#263238;stroke:#263238;stroke-linecap:round;stroke-linejoin:round;stroke-width:1.16992px;transform-origin:293.105px 140.666px 0" id="eltmbqvguih0j" class="animable"/><path d="M346.13 131.29 350.11 131.71 355.75 141.54 349.9 137.15 346.33 138.61 345.92 135.27 346.13 131.29z" style="fill:#fff;stroke:#263238;stroke-linecap:round;stroke-linejoin:round;stroke-width:1.16992px;transform-origin:350.835px 136.415px 0" id="elzk1o7gsx21o" class="animable"/><path d="M324.5 120.39 347.18 129.62 346.76 139.24 321.57 127.09 324.5 120.39z" style="fill:#fff;stroke:#263238;stroke-linecap:round;stroke-linejoin:round;stroke-width:1.16992px;transform-origin:334.375px 129.815px 0" id="el4vtu4qm19d" class="animable"/></g><defs><filter id="active" height="200%"><feMorphology in="SourceAlpha" result="DILATED" operator="dilate" radius="2"/><feFlood flood-color="#32dfec" flood-opacity="1" result="PINK"/><feComposite in="PINK" in2="DILATED" operator="in" result="OUTLINE"/><feMerge><feMergeNode in="OUTLINE"/><feMergeNode in="SourceGraphic"/></feMerge></filter><filter id="hover" height="200%"><feMorphology in="SourceAlpha" result="DILATED" operator="dilate" radius="2"/><feFlood flood-color="red" flood-opacity=".5" result="PINK"/><feComposite in="PINK" in2="DILATED" operator="in" result="OUTLINE"/><feMerge><feMergeNode in="OUTLINE"/><feMergeNode in="SourceGraphic"/></feMerge><feColorMatrix type="matrix" values="0 0 0 0 0 0 1 0 0 0 0 0 0 0 0 0 0 0 1 0"/></filter></defs><defs><clipPath id="jvn--clip-path--inject-6"><path d="M255.35 411.2H146.16L136.67 388.61H245.87L255.35 411.2z" style="fill:#90caf9;stroke:#263238;stroke-linecap:round;stroke-linejoin:round;stroke-width:1.1699198484420776px"/></clipPath></defs></svg>