<?xml version="1.0" encoding="utf-8"?>
<!-- Generator: Adobe Illustrator 26.0.0, SVG Export Plug-In . SVG Version: 6.00 Build 0)  -->
<svg version="1.1" id="Layer_1" xmlns="http://www.w3.org/2000/svg" xmlns:xlink="http://www.w3.org/1999/xlink" x="0px" y="0px"
	 viewBox="0 0 78 60" style="enable-background:new 0 0 78 60;" xml:space="preserve">
<style type="text/css">
	.st0{fill:#FFFFFF;}
	.st1{fill:#007F78;}
	.st2{fill:#C6C717;}
	.st3{fill:#E9C507;}
	.st4{fill:#F4C402;}
	.st5{fill:#F7C401;}
	.st6{fill:#F9C400;}
	.st7{fill:#FAC400;}
	.st8{fill:#FAC300;}
	.st9{fill:#F8B001;}
	.st10{fill:#F49703;}
	.st11{fill:#F17E05;}
	.st12{fill:#EE6706;}
	.st13{fill:#008A77;}
	.st14{fill:#009476;}
	.st15{fill:#009F76;}
	.st16{fill:#00AA75;}
	.st17{fill:#00B474;}
	.st18{fill:#00BE73;}
	.st19{fill:#00C672;}
	.st20{fill:#00D071;}
	.st21{fill:#37CD58;}
	.st22{fill:#8CC931;}
	.st23{fill:#EF4C26;}
	.st24{fill:#07847B;}
	.st25{fill:#034EA1;}
	.st26{fill-rule:evenodd;clip-rule:evenodd;fill:#FFFFFF;}
	.st27{fill:none;stroke:#FFFFFF;stroke-width:0.75;}
	.st28{fill:none;}
</style>
<g>
	<g>
		<path class="st0" d="M2.7,57.3c-0.3,0-0.6-0.1-0.7-0.2c-0.2-0.1-0.3-0.2-0.4-0.4s-0.2-0.4-0.2-0.6c0-0.2,0.1-0.5,0.2-0.7
			c0.2-0.2,0.3-0.3,0.6-0.4c0.2-0.1,0.5-0.2,0.8-0.2h1c0-0.2,0-0.5-0.1-0.7s-0.2-0.3-0.3-0.4c-0.2-0.1-0.3-0.2-0.6-0.2
			s-0.4,0.1-0.6,0.2c-0.2,0.1-0.2,0.2-0.3,0.5H1.4c0-0.2,0.1-0.5,0.2-0.7s0.3-0.3,0.6-0.4c0.2-0.1,0.5-0.2,0.7-0.2
			c0.3,0,0.7,0.1,0.9,0.2c0.2,0.2,0.4,0.3,0.5,0.5c0.1,0.2,0.2,0.5,0.2,0.8V57H3.9v-0.7c-0.1,0.1-0.1,0.2-0.2,0.3
			c-0.1,0.1-0.2,0.2-0.2,0.2s-0.2,0.2-0.3,0.2C3,57.2,2.9,57.3,2.7,57.3z M2.9,56.7c0.2,0,0.3,0,0.5-0.1c0.2-0.1,0.2-0.2,0.3-0.3
			s0.2-0.2,0.2-0.4S4,55.6,4,55.4v-0.1H3.1c-0.2,0-0.4,0-0.6,0.1c-0.2,0.1-0.2,0.2-0.3,0.2c-0.1,0.1-0.1,0.2-0.1,0.3
			c0,0.2,0,0.2,0.1,0.4s0.2,0.2,0.2,0.2C2.5,56.7,2.7,56.7,2.9,56.7z"/>
		<path class="st0" d="M41,57.3c-0.3,0-0.7-0.1-1-0.2c-0.2-0.2-0.5-0.4-0.7-0.7c-0.2-0.3-0.2-0.7-0.2-1.1s0.1-0.7,0.2-1.1
			c0.2-0.3,0.4-0.6,0.7-0.7s0.6-0.2,1-0.2s0.8,0.1,1.1,0.3c0.3,0.2,0.5,0.6,0.6,1H42c-0.1-0.2-0.2-0.4-0.4-0.6
			c-0.2-0.2-0.4-0.2-0.7-0.2s-0.4,0.1-0.6,0.2c-0.2,0.1-0.3,0.2-0.4,0.5s-0.2,0.5-0.2,0.8c0,0.2,0,0.5,0.1,0.7
			c0.1,0.2,0.2,0.3,0.2,0.5c0.1,0.2,0.2,0.2,0.4,0.2c0.2,0.1,0.3,0.1,0.5,0.1c0.2,0,0.3,0,0.5-0.1c0.2-0.1,0.2-0.2,0.4-0.2
			c0.1-0.1,0.2-0.2,0.2-0.4h0.7c-0.1,0.4-0.2,0.7-0.6,1C41.8,57.1,41.5,57.3,41,57.3z"/>
		<path class="st0" d="M45.2,57.3c-0.3,0-0.7-0.1-1-0.2c-0.3-0.2-0.5-0.4-0.7-0.7s-0.2-0.7-0.2-1.1s0.1-0.7,0.2-1.1
			c0.2-0.3,0.4-0.6,0.7-0.7c0.2-0.2,0.6-0.2,1-0.2c0.3,0,0.7,0.1,1,0.2s0.5,0.4,0.7,0.7s0.2,0.7,0.2,1.1S47,56,46.8,56.3
			c-0.2,0.3-0.4,0.6-0.7,0.7S45.6,57.3,45.2,57.3z M45.2,56.7c0.2,0,0.4-0.1,0.7-0.2s0.3-0.2,0.4-0.5c0.1-0.2,0.2-0.5,0.2-0.8
			c0-0.3-0.1-0.7-0.2-0.8c-0.1-0.2-0.2-0.4-0.4-0.5c-0.2-0.1-0.4-0.2-0.6-0.2c-0.2,0-0.4,0.1-0.6,0.2c-0.2,0.1-0.3,0.2-0.4,0.5
			s-0.2,0.5-0.2,0.8c0,0.3,0.1,0.6,0.2,0.8c0.1,0.2,0.2,0.4,0.4,0.5C44.8,56.6,45,56.7,45.2,56.7z"/>
		<path class="st0" d="M48,57.1v-3.9h0.6v0.6c0.1-0.2,0.2-0.3,0.5-0.5c0.2-0.1,0.4-0.2,0.7-0.2c0.2,0,0.3,0,0.5,0.1
			c0.2,0.1,0.2,0.2,0.4,0.2c0.2,0.1,0.2,0.2,0.2,0.4c0.2-0.2,0.3-0.4,0.5-0.5c0.2-0.1,0.5-0.2,0.7-0.2c0.3,0,0.6,0.1,0.7,0.2
			c0.2,0.1,0.3,0.2,0.5,0.5c0.1,0.2,0.2,0.5,0.2,0.8v2.4h-0.7v-2.4c0-0.3-0.1-0.6-0.2-0.8c-0.2-0.2-0.3-0.2-0.7-0.2
			c-0.2,0-0.3,0.1-0.5,0.2c-0.2,0.1-0.2,0.2-0.3,0.4c-0.1,0.2-0.2,0.4-0.2,0.7v2.2h-0.7v-2.4c0-0.3-0.1-0.6-0.2-0.8
			c-0.2-0.2-0.3-0.2-0.7-0.2c-0.2,0-0.3,0.1-0.5,0.2c-0.2,0.1-0.2,0.2-0.3,0.4c-0.1,0.2-0.2,0.4-0.2,0.7v2.2H48z"/>
		<path class="st0" d="M54.5,58.7v-5.5h0.6l0.1,0.6c0.1-0.2,0.2-0.2,0.3-0.3c0.1-0.1,0.2-0.2,0.4-0.2s0.3-0.1,0.6-0.1
			c0.3,0,0.7,0.1,0.9,0.2c0.2,0.2,0.5,0.4,0.7,0.7c0.2,0.3,0.2,0.7,0.2,1.1s-0.1,0.7-0.2,1.1c-0.2,0.3-0.3,0.6-0.7,0.7
			c-0.3,0.2-0.6,0.2-0.9,0.2c-0.3,0-0.6-0.1-0.8-0.2c-0.2-0.2-0.4-0.3-0.5-0.5v2.2L54.5,58.7L54.5,58.7z M56.3,56.7
			c0.2,0,0.4-0.1,0.7-0.2c0.2-0.1,0.3-0.3,0.4-0.5c0.1-0.2,0.2-0.5,0.2-0.8c0-0.3-0.1-0.6-0.2-0.8c-0.1-0.2-0.2-0.4-0.4-0.5
			c-0.2-0.1-0.4-0.2-0.7-0.2s-0.5,0.1-0.7,0.2c-0.2,0.1-0.3,0.3-0.4,0.5c-0.1,0.2-0.2,0.5-0.2,0.8c0,0.3,0.1,0.6,0.2,0.8
			c0.1,0.2,0.2,0.4,0.4,0.5C55.9,56.6,56,56.7,56.3,56.7z"/>
		<path class="st0" d="M60.3,57.3c-0.3,0-0.6-0.1-0.7-0.2s-0.3-0.2-0.4-0.4c-0.1-0.2-0.2-0.4-0.2-0.6c0-0.2,0.1-0.5,0.2-0.7
			c0.1-0.2,0.3-0.3,0.6-0.4c0.2-0.1,0.5-0.2,0.8-0.2h1c0-0.2,0-0.5-0.1-0.7c-0.1-0.2-0.2-0.3-0.3-0.4s-0.3-0.2-0.6-0.2
			s-0.4,0.1-0.6,0.2c-0.2,0.1-0.2,0.2-0.3,0.5h-0.6c0-0.2,0.1-0.5,0.2-0.7c0.2-0.2,0.3-0.3,0.6-0.4c0.2-0.1,0.5-0.2,0.7-0.2
			c0.3,0,0.7,0.1,0.9,0.2c0.2,0.2,0.4,0.3,0.5,0.5c0.1,0.2,0.2,0.5,0.2,0.8V57h-0.7v-0.7c-0.1,0.1-0.1,0.2-0.2,0.3
			c-0.1,0.1-0.2,0.2-0.2,0.2c-0.1,0.1-0.2,0.2-0.3,0.2C60.5,57.2,60.4,57.3,60.3,57.3z M60.4,56.7c0.2,0,0.3,0,0.5-0.1
			c0.2-0.1,0.2-0.2,0.3-0.3s0.2-0.2,0.2-0.4c0.1-0.2,0.1-0.3,0.1-0.5v-0.1h-0.9c-0.2,0-0.4,0-0.6,0.1c-0.2,0.1-0.2,0.2-0.3,0.2
			c-0.1,0.1-0.1,0.2-0.1,0.3c0,0.2,0,0.2,0.1,0.4c0.1,0.1,0.2,0.2,0.2,0.2C60,56.7,60.2,56.7,60.4,56.7z"/>
		<path class="st0" d="M63.1,57.1v-3.9h0.6v0.7c0.1-0.2,0.2-0.4,0.5-0.5c0.2-0.2,0.5-0.2,0.7-0.2c0.3,0,0.6,0.1,0.7,0.2
			c0.2,0.1,0.4,0.2,0.5,0.5c0.1,0.2,0.2,0.5,0.2,0.8v2.4h-0.7v-2.4c0-0.3-0.1-0.6-0.2-0.8c-0.2-0.2-0.4-0.2-0.7-0.2
			c-0.2,0-0.4,0.1-0.6,0.2c-0.2,0.1-0.3,0.2-0.4,0.4s-0.2,0.4-0.2,0.7v2.3H63.1z"/>
		<path class="st0" d="M67.8,58.7l0.9-2h-0.2L67,53.2h0.7l1.2,3l1.2-3h0.7l-2.4,5.5H67.8z"/>
	</g>
</g>
<g>
	<g>
		<path class="st1" d="M12.8,55.7l-4-5.5C8.6,50.1,8.5,50,8.2,50c-0.4,0-0.7,0.3-0.7,0.7v6.7h1v-5.8l4,5.5c0.2,0.2,0.3,0.2,0.6,0.2
			c0.4,0,0.7-0.3,0.7-0.7v-6.8h-1V55.7L12.8,55.7z"/>
		<path class="st1" d="M17.2,51.8c-1.6,0-2.9,1.2-2.9,2.9c0,1.6,1.2,2.9,2.9,2.9c1.6,0,2.9-1.2,2.9-2.9C20.1,53,18.8,51.8,17.2,51.8
			z M17.2,56.6c-1.1,0-2-0.8-2-2s0.8-2,2-2s2,0.8,2,2S18.3,56.6,17.2,56.6L17.2,56.6z"/>
		<path class="st1" d="M23.5,51.8c-0.8,0-1.5,0.2-2,0.7v-2.9h-0.9v5.1l0,0c0.1,1.5,1.3,2.8,2.9,2.8s2.9-1.2,2.9-2.9
			C26.3,53,25.1,51.8,23.5,51.8L23.5,51.8z M23.5,56.6c-1.1,0-2-0.8-2-2s0.8-2,2-2s2,0.8,2,2S24.5,56.6,23.5,56.6z"/>
		<rect x="26.8" y="49.6" class="st1" width="0.9" height="7.7"/>
	</g>
	<path class="st2" d="M32.2,51.1c0.1,0,0.1-0.1,0.2-0.1l-0.8-1.5l-0.2,0.2L32.2,51.1L32.2,51.1z"/>
	<path class="st3" d="M31.7,51.6c0.1-0.1,0.1-0.1,0.2-0.2l-1.1-1.2c-0.1,0.1-0.2,0.2-0.2,0.2L31.7,51.6L31.7,51.6z"/>
	<path class="st4" d="M31.4,52.1c0-0.1,0.1-0.1,0.1-0.2l-1.5-1c-0.1,0.1-0.1,0.2-0.2,0.3L31.4,52.1L31.4,52.1z"/>
	<path class="st5" d="M29.4,52.1l1.6,0.4l0,0c0-0.1,0-0.2,0.1-0.2l-1.6-0.6C29.5,51.9,29.5,52,29.4,52.1L29.4,52.1z"/>
	<path class="st6" d="M29.3,53.1H31c0-0.1,0-0.2,0-0.2l-1.7-0.2c0,0.1,0,0.2,0,0.2V53.1L29.3,53.1z"/>
	<path class="st7" d="M29.4,54.2l1.7-0.4c0-0.1,0-0.2-0.1-0.2l-1.7,0.2C29.3,53.9,29.4,54,29.4,54.2L29.4,54.2z"/>
	<path class="st7" d="M31.2,54.2c0,0,0-0.1-0.1-0.2l-1.6,0.6l0.1,0.2c0,0.1,0.1,0.2,0.1,0.2L31.2,54.2
		C31.3,54.3,31.2,54.3,31.2,54.2"/>
	<path class="st8" d="M30.3,55.9l1.3-1.1c-0.1-0.1-0.2-0.2-0.2-0.2l-1.5,1l0.1,0.1l0.1,0.1C30.2,55.8,30.3,55.9,30.3,55.9L30.3,55.9
		z"/>
	<path class="st9" d="M31.1,56.6l1-1.4c-0.1-0.1-0.2-0.2-0.2-0.2l-1.1,1.2C30.8,56.4,31,56.5,31.1,56.6z"/>
	<path class="st10" d="M31.9,57.1l0.7-1.6c-0.1-0.1-0.2-0.1-0.3-0.2l-0.8,1.5C31.6,57,31.8,57,31.9,57.1L31.9,57.1z"/>
	<path class="st11" d="M32.7,57.3c0.1,0,0.2,0,0.3,0.1l0.2-1.7c-0.1,0-0.2,0-0.3-0.1l0,0l-0.5,1.6C32.4,57.2,32.5,57.3,32.7,57.3
		L32.7,57.3z"/>
	<path class="st12" d="M33.2,57.4h0.2c0.1,0,0.1,0,0.2,0c0.1,0,0.2,0,0.3,0l-0.2-1.7c-0.2,0-0.2,0-0.4,0L33.2,57.4L33.2,57.4z"/>
	<path class="st1" d="M36.7,55.7c0.1-0.1,0.2-0.2,0.2-0.3c0-0.1,0.1-0.1,0.1-0.2l0.1-0.2l-1.5-0.8c-0.1,0.1-0.2,0.2-0.2,0.3
		L36.7,55.7L36.7,55.7z"/>
	<path class="st13" d="M37.2,54.9c0.1-0.1,0.1-0.2,0.1-0.3s0.1-0.2,0.1-0.3l-1.6-0.4l0,0c0,0.1-0.1,0.2-0.1,0.3L37.2,54.9L37.2,54.9
		z"/>
	<path class="st14" d="M35.8,53.6l1.7,0.3c0-0.2,0.1-0.4,0.1-0.7l-1.7-0.1C35.9,53.4,35.9,53.5,35.8,53.6L35.8,53.6z"/>
	<path class="st15" d="M35.9,53l1.7-0.1c0-0.2-0.1-0.4-0.1-0.6l-1.7,0.3C35.8,52.8,35.9,53,35.9,53L35.9,53z"/>
	<path class="st16" d="M35.8,52.5l1.6-0.6c0-0.1-0.1-0.2-0.1-0.2l-0.1-0.2l-0.1-0.1l-1.5,0.7C35.7,52.2,35.8,52.4,35.8,52.5
		L35.8,52.5z"/>
	<path class="st17" d="M35.5,51.9L37,51c-0.1-0.1-0.1-0.2-0.2-0.2l-0.2-0.2l-1.3,1.1C35.4,51.7,35.5,51.8,35.5,51.9L35.5,51.9z"/>
	<path class="st18" d="M35.1,51.4l1.2-1.2c-0.1-0.1-0.2-0.2-0.3-0.3l-1.1,1.4C35,51.3,35.1,51.4,35.1,51.4L35.1,51.4z"/>
	<path class="st19" d="M34.7,51.1l0.9-1.5l-0.2-0.1c-0.1,0-0.2-0.1-0.2-0.1L34.5,51C34.5,51,34.6,51.1,34.7,51.1L34.7,51.1z"/>
	<path class="st20" d="M34,50.8c0.1,0,0.2,0,0.2,0.1l0,0l0.5-1.6c-0.2,0-0.2-0.1-0.4-0.1L34,50.8L34,50.8z"/>
	<path class="st21" d="M33.4,50.8c0.1,0,0.2,0,0.2,0l0.1-1.7c-0.1,0-0.2,0-0.3,0L33.4,50.8L33.4,50.8z"/>
	<path class="st22" d="M32.8,50.8c0.1,0,0.1,0,0.2-0.1l-0.3-1.7c-0.1,0-0.2,0.1-0.3,0.1L32.8,50.8L32.8,50.8z"/>
	<path class="st23" d="M34.3,57.3h0.2c0.1,0,0.2-0.1,0.2-0.1c0.1,0,0.3-0.1,0.4-0.2l-0.7-1.5c-0.2,0.1-0.2,0.1-0.4,0.1L34.3,57.3
		L34.3,57.3z"/>
	<path class="st24" d="M37.5,57.2c-0.3,0.4-0.8,0.7-1.3,1l-2.4-4.2c0.1-0.1,0.2-0.1,0.2-0.2L37.5,57.2L37.5,57.2z"/>
</g>
<ellipse transform="matrix(0.8857 -0.4642 0.4642 0.8857 -4.7388 16.6668)" class="st25" cx="31.5" cy="18" rx="26.3" ry="8.8"/>
<g>
	<path class="st26" d="M6.6,46.3V42L5,42v-1l4.3,0.1v1H7.9v4.2H6.6z M10.9,46.3l-0.7-5.2l3.4-0.4l0.1,1.1L11.6,42l0.1,0.9l2-0.2
		l0.1,1.1l-2,0.2l0.2,1.3l2.2-0.2l0.1,1C14.3,46,10.9,46.3,10.9,46.3z M18.4,45.4c-0.7,0.1-1.4,0-2-0.4c-0.5-0.4-0.9-1.1-1.1-1.9
		c-0.2-0.8-0.1-1.5,0.3-2.1c0.3-0.6,0.9-0.9,1.6-1.1c0.2,0,0.4-0.1,0.6-0.1h0.5c0.1,0,0.2,0.1,0.4,0.1s0.2,0.1,0.3,0.1l0.2,1.2h-0.2
		c-0.1-0.1-0.2-0.1-0.2-0.2c-0.1-0.1-0.2-0.2-0.3-0.2c-0.2-0.1-0.2-0.1-0.4-0.2h-0.5c-0.2,0-0.3,0.1-0.5,0.2
		c-0.2,0.1-0.2,0.2-0.4,0.4c-0.1,0.2-0.2,0.3-0.2,0.6v0.8c0.1,0.3,0.2,0.6,0.2,0.8c0.2,0.2,0.2,0.4,0.4,0.5l0.5,0.2h0.5
		c0.2,0,0.3-0.1,0.5-0.2c0.2-0.1,0.2-0.2,0.3-0.2l0.2-0.2c0.1-0.1,0.2-0.2,0.2-0.2h0.1l0.2,1.2c-0.1,0.1-0.2,0.2-0.3,0.2
		c-0.1,0.1-0.2,0.2-0.3,0.2c-0.2,0.1-0.3,0.2-0.4,0.2C18.8,45.3,18.6,45.4,18.4,45.4z M25.8,43.7L24.6,44L24,41.7L22.3,42l0.7,2.3
		l-1.3,0.3l-1.3-5.1l1.3-0.3l0.4,1.9l1.7-0.3l-0.5-2l1.3-0.2L25.8,43.7z"/>
	<path class="st26" d="M31.9,41.8l-1.2,0.3l-3-2.9l1.1,3.5l-1.1,0.3l-1.6-5l1.5-0.5l2.4,2.4l-0.9-2.9l1.1-0.3
		C30.3,36.8,31.9,41.8,31.9,41.8z"/>
	<path class="st26" d="M37.1,36.9c0.3,0.8,0.3,1.5,0.2,2.1c-0.2,0.7-0.7,1.1-1.4,1.4c-0.7,0.2-1.4,0.2-2,0c-0.6-0.3-1.1-0.8-1.4-1.6
		c-0.3-0.8-0.3-1.5-0.2-2.1c0.2-0.7,0.7-1.1,1.4-1.4c0.7-0.2,1.4-0.2,2,0C36.3,35.6,36.7,36.1,37.1,36.9z M35.8,37.4
		c-0.1-0.3-0.2-0.6-0.4-0.7s-0.2-0.3-0.4-0.4c-0.2-0.1-0.3-0.2-0.5-0.2c-0.2,0-0.3,0-0.4,0.1c-0.2,0.1-0.2,0.2-0.3,0.2
		c-0.1,0.1-0.2,0.2-0.2,0.4c-0.1,0.2-0.1,0.4,0,0.6c0,0.2,0.1,0.5,0.2,0.8c0.1,0.3,0.2,0.6,0.4,0.7s0.2,0.3,0.4,0.4s0.3,0.2,0.5,0.2
		c0.2,0,0.3,0,0.4-0.1c0.2-0.1,0.2-0.2,0.4-0.2c0.1-0.1,0.2-0.2,0.2-0.4c0.1-0.2,0.1-0.4,0-0.6C36.1,38,36,37.7,35.8,37.4z
		 M42.7,37.2l-3.1,1.4l-2.2-4.8l1.1-0.6l1.8,3.9l1.9-0.9L42.7,37.2z M46.9,32c0.4,0.7,0.5,1.5,0.3,2.1c-0.2,0.7-0.6,1.1-1.2,1.5
		c-0.7,0.3-1.3,0.4-2,0.2c-0.7-0.2-1.1-0.7-1.5-1.5c-0.4-0.7-0.5-1.5-0.3-2.1c0.2-0.7,0.6-1.1,1.2-1.5c0.7-0.3,1.3-0.4,2-0.2
		C46,30.8,46.5,31.3,46.9,32z M45.8,32.7c-0.2-0.2-0.3-0.5-0.5-0.7c-0.2-0.2-0.3-0.3-0.5-0.4c-0.2-0.1-0.3-0.1-0.5-0.1
		c-0.2,0-0.3,0.1-0.4,0.1c-0.2,0.1-0.2,0.2-0.3,0.2c-0.1,0.1-0.2,0.2-0.2,0.5v0.6c0.1,0.2,0.2,0.5,0.3,0.7c0.2,0.3,0.3,0.5,0.5,0.7
		c0.2,0.2,0.3,0.2,0.5,0.3c0.2,0.1,0.3,0.1,0.5,0.1c0.2,0,0.3-0.1,0.4-0.1c0.2-0.1,0.2-0.2,0.3-0.3c0.1-0.2,0.2-0.2,0.2-0.5v-0.6
		C46,33.3,45.9,33,45.8,32.7z M52.9,31.1c-0.2,0.2-0.3,0.4-0.6,0.7c-0.2,0.2-0.5,0.5-0.8,0.7c-0.7,0.4-1.3,0.6-2,0.4
		c-0.7-0.2-1.2-0.6-1.7-1.3c-0.4-0.7-0.6-1.4-0.5-2c0.2-0.7,0.6-1.2,1.2-1.7c0.3-0.2,0.7-0.4,0.9-0.5s0.6-0.2,0.9-0.2l0.7,1.1
		L51,28.3h-0.7c-0.2,0-0.3,0-0.5,0.1c-0.2,0.1-0.3,0.1-0.5,0.2c-0.2,0.1-0.3,0.2-0.4,0.4c-0.1,0.2-0.2,0.3-0.2,0.6v0.7
		c0.1,0.2,0.2,0.5,0.3,0.7c0.3,0.5,0.7,0.8,1.1,0.9c0.4,0.1,0.8,0,1.2-0.3c0,0,0.1-0.1,0.2-0.1c0.1,0,0.1-0.1,0.2-0.1l-0.6-0.9
		l-0.8,0.6l-0.5-0.8l1.9-1.2C51.6,29,52.9,31.1,52.9,31.1z M56.8,28.7l-2.3,1.5L54,29.5l0.6-0.4l-1.9-2.9L52,26.7l-0.5-0.7l2.2-1.6
		l0.6,0.8l-0.7,0.4l2,2.9l0.6-0.4L56.8,28.7L56.8,28.7z M58.2,27.6l-3.3-4.2l2.6-2.2l0.7,0.8l-1.6,1.4l0.6,0.7l1.5-1.3l0.7,0.8
		L57.7,25l0.8,1l1.7-1.3l0.6,0.7L58.2,27.6z M63.3,23.1c-0.2,0.2-0.6,0.5-0.8,0.7c-0.2,0.2-0.5,0.3-0.7,0.4l-0.9-0.9l0.1-0.1
		c0.3,0,0.7-0.1,1-0.2c0.3-0.2,0.6-0.3,0.7-0.5c0.1-0.1,0.1-0.2,0.2-0.2c0.1-0.1,0.1-0.2,0.2-0.2c0-0.1,0.1-0.2,0-0.2
		c0-0.1-0.1-0.2-0.2-0.2c-0.1-0.1-0.2-0.2-0.3-0.1c-0.2,0-0.2,0.1-0.4,0.2s-0.3,0.2-0.5,0.3c-0.2,0.1-0.3,0.2-0.5,0.3
		c-0.4,0.2-0.7,0.2-1,0.2c-0.3-0.1-0.6-0.2-0.8-0.5c-0.3-0.3-0.5-0.8-0.4-1.3c0.1-0.5,0.3-1,0.7-1.5c0.2-0.2,0.4-0.4,0.7-0.6
		c0.2-0.2,0.5-0.3,0.7-0.4l0.8,0.8l-0.1,0.1c-0.2,0-0.5,0.1-0.8,0.2c-0.2,0.1-0.5,0.2-0.7,0.5C60.1,19.8,60,19.9,60,20
		c-0.1,0.1-0.1,0.2-0.2,0.2v0.2c0,0.1,0.1,0.2,0.1,0.2c0.1,0.1,0.2,0.2,0.3,0.2c0.1,0,0.3-0.1,0.5-0.2c0.2-0.1,0.3-0.2,0.4-0.2
		l0.5-0.2c0.3-0.2,0.7-0.2,0.9-0.2c0.2,0,0.6,0.2,0.8,0.4c0.4,0.4,0.5,0.8,0.5,1.3C64,22.1,63.7,22.6,63.3,23.1z"/>
	<g>
		<path class="st27" d="M26.6,7.8c16-7.4,31.1-8.8,33.8-3s-8.1,16.5-24,23.9c-16,7.4-31.1,8.8-33.8,3S10.7,15.2,26.6,7.8L26.6,7.8z"
			/>
		<path class="st28" d="M35.5,10.8L34.9,11l-1.8,9.1l-0.6-8L32,12.4l-0.7,0.2l1.1,10.4l0.5-0.2l0.5-0.2l2.7-12.1L35.5,10.8z
			 M26,26.1l4.1-2l0.1-1l0.1-1l-2.9,1.4l0.2-2.9l2.7-1.2l0.1-1v-1l-2.6,1.2l0.2-2.4l2.9-1.4l0.1-1l0.1-1l-3.9,1.8L26,26.1z
			 M19.5,18.2l-0.6,8c-0.1,0.6-0.1,1-0.2,1.3c-0.1,0.3-0.3,0.6-0.5,0.7c-0.2,0.2-0.4,0-0.5-0.3c-0.1-0.3-0.1-1,0-2l-1.1,0.5
			c-0.2,1.6-0.1,2.7,0.1,3.3c0.2,0.6,0.7,0.7,1.3,0.4c0.6-0.2,1.1-0.7,1.4-1.5c0.3-0.7,0.5-1.7,0.7-2.9l0.6-8l-0.6,0.2
			C20.1,17.9,19.5,18.2,19.5,18.2z M45.4,6.1l-0.6,7.7l-1.5-6.8l-0.7,0.3l-0.6,0.2l-0.8,11.2l0.5-0.2l0.6-0.2l0.6-8.1l1.5,7.1
			l0.6-0.2l0.6-0.3l0.8-11.2l-0.5,0.2L45.4,6.1z M38.9,9.1l-0.7,0.3l-2.8,12.1l0.6-0.2l0.7-0.3l0.5-2.4l2-1l0.2,2.1l0.6-0.3l0.7-0.2
			L39.6,8.9L38.9,9.1z"/>
		<path class="st0" d="M58.4,5.6C56,0.6,42,2.1,27.1,9.1C12.3,16,2.1,25.8,4.5,30.8s16.4,3.5,31.3-3.4C50.6,20.5,60.8,10.7,58.4,5.6
			z M20,25.7c-0.1,1.2-0.3,2.2-0.7,2.9c-0.3,0.7-0.7,1.2-1.4,1.5c-0.7,0.3-1.1,0.2-1.3-0.4c-0.2-0.6-0.2-1.6-0.1-3.3l1.1-0.5
			c-0.1,1-0.1,1.6,0,2c0.1,0.3,0.2,0.4,0.5,0.3c0.2-0.1,0.4-0.3,0.5-0.7c0.1-0.3,0.2-0.7,0.2-1.3l0.6-8L20,18l0.6-0.2
			C20.6,17.8,20,25.7,20,25.7z M25.7,16.2l-0.1,1l-2.9,1.3l-0.2,2.4l2.6-1.2v1.1l-0.1,1l-2.6,1.2l-0.2,2.9l2.9-1.4l-0.1,1l-0.1,1
			L21,28.3L21.8,17l3.9-1.9L25.7,16.2L25.7,16.2z M30.7,13.9l-0.1,1l-2.9,1.3l-0.2,2.4l2.6-1.2l-0.1,1l-0.1,1l-2.6,1.2l-0.2,2.9
			l2.9-1.4v1.1l-0.1,1L26,26l0.8-11.2l3.9-1.9C30.7,12.9,30.7,13.9,30.7,13.9z M32.9,22.8l-0.5,0.2l-1-10.4l0.6-0.2l0.6-0.2l0.5,8
			l1.8-9.1l0.6-0.2l0.6-0.2l-2.7,12.1C33.3,22.7,32.9,22.8,32.9,22.8z M40,19.5l-0.6,0.2l-0.2-2.1l-2,1L36.7,21l-0.7,0.3l-0.6,0.2
			l2.8-12.1l0.7-0.3l0.7-0.3l1.1,10.3L40,19.5z M45.6,16.9L45,17.2l-0.6,0.2l-1.6-7l-0.6,8.1l-0.5,0.2l-0.5,0.2l0.8-11.2l0.6-0.2
			l0.6-0.2l1.5,6.8l0.6-7.7L45.9,6l0.5-0.2C46.3,5.7,45.6,16.9,45.6,16.9z"/>
		<path class="st0" d="M38.7,11.6l-1.1,4.9l1.5-0.7L38.7,11.6z"/>
	</g>
</g>
</svg>
