<?xml version="1.0" encoding="utf-8"?>
<!-- Generator: Adobe Illustrator 26.0.0, SVG Export Plug-In . SVG Version: 6.00 Build 0)  -->
<svg version="1.1" id="Layer_1" xmlns="http://www.w3.org/2000/svg" xmlns:xlink="http://www.w3.org/1999/xlink" x="0px" y="0px"
	 viewBox="0 0 41.7 24" style="enable-background:new 0 0 41.7 24;" xml:space="preserve">
<style type="text/css">
	.st0{display:none;fill:none;stroke:#FFFFFF;stroke-width:0.25;stroke-dasharray:79,81;stroke-dashoffset:80;}
	.st1{display:none;fill:none;}
	.st2{display:none;fill:#FFFFFF;}
	.st3{display:none;}
	.st4{display:inline;fill-rule:evenodd;clip-rule:evenodd;fill:#FFFFFF;}
	.st5{display:inline;fill-rule:evenodd;clip-rule:evenodd;fill:#F7F7F7;}
	.st6{fill:#FFFFFF;}
	.st7{fill:#007F78;}
	.st8{fill:#C6C717;}
	.st9{fill:#E9C507;}
	.st10{fill:#F4C402;}
	.st11{fill:#F7C401;}
	.st12{fill:#F9C400;}
	.st13{fill:#FAC400;}
	.st14{fill:#FAC300;}
	.st15{fill:#F8B001;}
	.st16{fill:#F49703;}
	.st17{fill:#F17E05;}
	.st18{fill:#EE6706;}
	.st19{fill:#008A77;}
	.st20{fill:#009476;}
	.st21{fill:#009F76;}
	.st22{fill:#00AA75;}
	.st23{fill:#00B474;}
	.st24{fill:#00BE73;}
	.st25{fill:#00C672;}
	.st26{fill:#00D071;}
	.st27{fill:#37CD58;}
	.st28{fill:#8CC931;}
	.st29{fill:#EF4C26;}
	.st30{fill:#07847B;}
	.st31{fill:#034EA1;}
	.st32{fill-rule:evenodd;clip-rule:evenodd;fill:#FFFFFF;}
	.st33{fill:none;stroke:#FFFFFF;stroke-width:0.25;}
	.st34{fill:none;}
</style>
<path class="st0" d="M16.6,4.4c8.7-4.1,17-4.8,18.4-1.6c1.5,3.1-4.4,9-13.1,13.1s-17,4.8-18.4,1.6C2.1,14.4,8,8.5,16.6,4.4L16.6,4.4
	z"/>
<path class="st1" d="M21.5,6.1l-0.3,0.1l-1,5l-0.3-4.4L19.6,7l-0.3,0.1l0.5,5.7l0.3-0.1l0.3-0.2l1.4-6.6L21.5,6.1z"/>
<path class="st1" d="M16.3,14.4l2.3-1v-1.1L17,13.1l0.1-1.6l1.5-0.7v-0.5l0.1-0.6l-1.5,0.7l0.1-1.3l1.6-0.7V7.3l-2.1,1L16.3,14.4z"
	/>
<path class="st1" d="M12.8,10.1l-0.3,4.4c0,0.3-0.1,0.6-0.1,0.7c-0.1,0.2-0.2,0.3-0.3,0.3c-0.1,0.1-0.2,0-0.3-0.2v-1.1l-0.6,0.3
	c-0.1,0.9-0.1,1.5,0.1,1.8c0.1,0.3,0.4,0.4,0.7,0.2c0.3-0.2,0.6-0.4,0.7-0.8c0.2-0.4,0.3-0.9,0.3-1.6l0.3-4.4L13.1,10
	C13.1,10,12.8,10.1,12.8,10.1z"/>
<path class="st1" d="M26.9,3.6l-0.3,4.2l-0.8-3.7l-0.4,0.1l-0.3,0.2l-0.4,6.1l0.3-0.1l0.2-0.1l0.4-4.4l0.8,3.8l0.3-0.1L27,9.4
	l0.5-6.1l-0.3,0.1L26.9,3.6z"/>
<path class="st1" d="M23.4,5.2L23,5.4L21.5,12l0.4-0.1l0.3-0.2l0.2-1.3l1.2-0.5l0.1,1.1l0.3-0.1l0.3-0.2L23.7,5L23.4,5.2z"/>
<path class="st2" d="M34,3.3c-1.3-2.8-9-1.9-17.1,1.9C8.9,8.9,3.3,14.3,4.6,17c1.3,2.8,9,1.9,17.1-1.9C29.8,11.4,35.3,6,34,3.3z
	 M13.1,14.2c0,0.7-0.2,1.2-0.3,1.6c-0.2,0.4-0.4,0.6-0.7,0.8c-0.4,0.2-0.6,0.1-0.7-0.2c-0.1-0.3-0.1-0.9-0.1-1.8l0.6-0.3
	c0,0.5-0.1,0.9,0,1.1c0,0.2,0.1,0.2,0.3,0.2l0.3-0.3c0.1-0.2,0.1-0.4,0.1-0.7l0.3-4.4l0.3-0.1l0.3-0.1C13.5,10,13.1,14.2,13.1,14.2z
	 M16.2,9.1v0.5l-1.6,0.7l-0.1,1.3l1.4-0.7v1l-1.4,0.7l-0.1,1.6l1.6-0.8v1l-2.2,1l0.5-6.1l2.2-1C16.5,8.3,16.2,9.1,16.2,9.1z
	 M18.9,7.8v0.5L17.3,9l-0.1,1.3l1.4-0.7v1l-1.4,0.7L17,13.1l1.6-0.8v1l-2.2,1l0.5-6.1l2.2-1C19.1,7.2,18.9,7.8,18.9,7.8z M20.1,12.7
	l-0.3,0.1l-0.5-5.7L19.6,7l0.3-0.2l0.3,4.4l1-5l0.3-0.1L21.8,6l-1.5,6.6C20.3,12.6,20.1,12.7,20.1,12.7z M24,10.9L23.7,11l-0.1-1.1
	l-1.1,0.5l-0.3,1.3l-0.3,0.1L21.5,12L23,5.4l0.4-0.2L23.7,5l0.6,5.7C24.3,10.7,24,10.9,24,10.9z M27,9.4l-0.3,0.1l-0.3,0.1l-0.9-3.8
	l-0.3,4.4L25,10.4l-0.3,0.1l0.5-6.1l0.3-0.2L25.8,4l0.8,3.7l0.3-4.2l0.3-0.1l0.3-0.1C27.5,3.3,27,9.4,27,9.4z"/>
<path class="st2" d="M23.3,6.5l-0.6,2.7l0.8-0.3C23.5,8.9,23.3,6.5,23.3,6.5z"/>
<g class="st3">
	<path class="st4" d="M9.8,23.7l-0.1-2.1H8.9v-0.5H11v0.5h-0.7l0.1,2L9.8,23.7z"/>
	<path class="st4" d="M11.8,23.6l-0.4-2.5l1.7-0.3v0.5l-1,0.2l0.1,0.4l0.9-0.1l0.1,0.4l-0.9,0.2l0.1,0.6l1-0.1l0.1,0.4
		C13.5,23.3,11.8,23.6,11.8,23.6z"/>
	<path class="st4" d="M15.4,23c-0.4,0.1-0.7,0-0.9-0.2c-0.3-0.2-0.4-0.5-0.5-0.9s-0.1-0.7,0.1-1c0.2-0.3,0.4-0.5,0.8-0.5h0.9
		l0.1,0.6h-0.1c0,0-0.1,0-0.1-0.1c-0.1,0-0.1-0.1-0.2-0.1s-0.1,0-0.2-0.1h-0.2c-0.1,0-0.2,0-0.2,0.1c-0.1,0-0.1,0.1-0.2,0.2
		c0,0.1-0.1,0.2-0.1,0.3v0.4c0,0.2,0.1,0.3,0.1,0.4c0.1,0.1,0.1,0.2,0.2,0.2c0.1,0.1,0.2,0.1,0.2,0.1h0.2c0.1,0,0.2,0,0.2-0.1
		c0.1,0,0.1-0.1,0.2-0.1l0.1-0.1l0.1-0.1H16l0.1,0.6L16,22.7c-0.1,0-0.1,0.1-0.2,0.1s-0.1,0.1-0.2,0.1C15.6,23,15.5,23,15.4,23z"/>
	<path class="st4" d="M19,22l-0.6,0.2l-0.3-1.1l-0.8,0.2l0.3,1.1L17,22.6l-0.7-2.5l0.6-0.1l0.2,0.9l0.8-0.3l-0.2-0.9l0.6-0.1
		C18.3,19.6,19,22,19,22z"/>
	<path class="st5" d="M21.8,21l-0.5,0.2l-1.5-1.3l0.6,1.6l-0.5,0.2L19,19.3l0.7-0.2l1.2,1.1l-0.5-1.4l0.6-0.2
		C21,18.6,21.8,21,21.8,21z"/>
	<path class="st4" d="M24.2,18.6c0.2,0.4,0.2,0.7,0.1,1s-0.3,0.5-0.6,0.7c-0.3,0.1-0.6,0.2-0.9,0c-0.3-0.1-0.5-0.4-0.7-0.8
		s-0.2-0.7-0.1-1s0.3-0.5,0.6-0.7c0.3-0.1,0.6-0.2,0.9,0C23.8,17.9,24.1,18.2,24.2,18.6z M23.7,18.8c-0.1-0.1-0.1-0.3-0.2-0.3
		l-0.2-0.2c-0.1,0-0.2-0.1-0.2-0.1h-0.2c-0.1,0-0.1,0.1-0.2,0.1c0,0.1-0.1,0.1-0.1,0.2v0.3c0,0.1,0.1,0.2,0.1,0.4
		c0.1,0.1,0.1,0.3,0.2,0.3l0.2,0.2c0.1,0,0.2,0.1,0.2,0.1h0.2c0.1,0,0.1-0.1,0.2-0.1c0-0.1,0.1-0.1,0.1-0.2v-0.3
		C23.8,19.1,23.7,19,23.7,18.8z"/>
	<path class="st4" d="M26.9,18.6l-1.4,0.7l-1.2-2.2l0.6-0.3l0.9,1.8l0.9-0.4L26.9,18.6z"/>
	<path class="st4" d="M28.9,16c0.2,0.4,0.3,0.7,0.2,1c-0.1,0.3-0.3,0.6-0.6,0.7c-0.3,0.2-0.6,0.2-0.9,0.1s-0.6-0.3-0.8-0.7
		c-0.2-0.4-0.3-0.7-0.2-1c0.1-0.3,0.3-0.6,0.6-0.7c0.3-0.2,0.6-0.2,0.9-0.1C28.4,15.5,28.7,15.7,28.9,16z M28.3,16.4
		c-0.1-0.1-0.2-0.2-0.2-0.3C28,16,27.9,16,27.9,15.9h-0.2c-0.1,0-0.1,0-0.2,0.1c-0.1,0-0.1,0.1-0.2,0.1c0,0.1-0.1,0.1-0.1,0.2v0.3
		c0,0.1,0.1,0.2,0.2,0.4c0.1,0.1,0.2,0.2,0.2,0.3c0.1,0.1,0.2,0.1,0.2,0.2H28c0.1,0,0.1,0,0.2-0.1c0.1,0,0.1-0.1,0.2-0.1
		c0-0.1,0.1-0.1,0.1-0.2v-0.3C28.5,16.6,28.4,16.5,28.3,16.4z"/>
	<path class="st4" d="M31.8,15.4c-0.1,0.1-0.1,0.2-0.3,0.4c-0.1,0.1-0.2,0.3-0.4,0.3c-0.3,0.2-0.6,0.3-0.9,0.2
		c-0.3-0.1-0.6-0.3-0.8-0.6c-0.2-0.3-0.3-0.7-0.3-1s0.2-0.6,0.6-0.8c0.2-0.1,0.3-0.2,0.4-0.2s0.3-0.1,0.4-0.1l0.3,0.5h-0.6
		c-0.1,0-0.2,0.1-0.2,0.1c-0.1,0.1-0.2,0.1-0.2,0.2c-0.1,0.1-0.1,0.2-0.1,0.3V15c0,0.1,0.1,0.2,0.2,0.3c0.2,0.2,0.4,0.4,0.5,0.4
		c0.2,0,0.4,0,0.6-0.2h0.2l-0.3-0.4l-0.4,0.3L30.2,15l0.9-0.6C31.1,14.4,31.8,15.4,31.8,15.4z"/>
	<path class="st4" d="M33.6,14.2L32.5,15l-0.3-0.3l0.3-0.2l-1-1.4l-0.2,0.2L31,13l1-0.8l0.3,0.3L32,12.8l1,1.3l0.3-0.2
		C33.3,13.9,33.6,14.2,33.6,14.2z"/>
	<path class="st4" d="M34.2,13.7l-1.6-1.9l1.2-1.1l0.3,0.3l-0.8,0.7l0.3,0.4l0.7-0.7l0.3,0.4l-0.7,0.6l0.4,0.5l0.8-0.7l0.3,0.4
		L34.2,13.7z"/>
	<path class="st4" d="M36.6,11.4c-0.1,0.1-0.2,0.3-0.4,0.3c-0.1,0.1-0.2,0.2-0.4,0.2l-0.4-0.4c0.2,0,0.3-0.1,0.4-0.1
		c0.1-0.1,0.3-0.2,0.3-0.3l0.1-0.1l0.1-0.1v-0.1c0,0,0-0.1-0.1-0.1c0,0-0.1-0.1-0.2-0.1s-0.1,0-0.2,0.1c-0.1,0-0.1,0.1-0.2,0.2
		S35.4,11,35.4,11h-0.3c-0.1,0-0.3-0.1-0.4-0.2c-0.2-0.2-0.3-0.4-0.2-0.6c0-0.2,0.1-0.5,0.3-0.7l0.3-0.3C35.2,9.1,35.3,9,35.4,9
		l0.4,0.4c-0.1,0-0.2,0.1-0.4,0.1c-0.1,0.1-0.2,0.1-0.3,0.2L35,9.8c0,0,0,0.1-0.1,0.1V10c0,0,0,0.1,0.1,0.1c0,0,0.1,0.1,0.2,0.1
		s0.1,0,0.2-0.1c0.1,0,0.1-0.1,0.2-0.1s0.1-0.1,0.2-0.1c0.2-0.1,0.3-0.1,0.4-0.1c0.1,0,0.3,0.1,0.4,0.2c0.2,0.2,0.3,0.4,0.3,0.6
		C36.9,10.9,36.8,11.2,36.6,11.4z"/>
</g>
<g>
	<g>
		<path class="st6" d="M1.7,23c-0.1,0-0.2,0-0.3-0.1c-0.1,0-0.1-0.1-0.2-0.2c0-0.1-0.1-0.2-0.1-0.2c0-0.1,0-0.2,0.1-0.3
			c0.1-0.1,0.1-0.1,0.2-0.2c0.1,0,0.2-0.1,0.3-0.1h0.4c0-0.1,0-0.2,0-0.3c0-0.1-0.1-0.1-0.1-0.2c-0.1,0-0.1-0.1-0.2-0.1
			c-0.1,0-0.2,0-0.2,0.1c-0.1,0-0.1,0.1-0.1,0.2H1.1c0-0.1,0-0.2,0.1-0.3c0.1-0.1,0.1-0.1,0.2-0.2c0.1,0,0.2-0.1,0.3-0.1
			c0.1,0,0.3,0,0.4,0.1c0.1,0.1,0.2,0.1,0.2,0.2c0,0.1,0.1,0.2,0.1,0.3v1H2.2v-0.3c0,0,0,0.1-0.1,0.1c0,0-0.1,0.1-0.1,0.1
			c0,0-0.1,0.1-0.1,0.1C1.8,23,1.7,23,1.7,23z M1.7,22.8c0.1,0,0.1,0,0.2,0c0.1,0,0.1-0.1,0.1-0.1s0.1-0.1,0.1-0.2s0-0.1,0-0.2v0
			H1.8c-0.1,0-0.2,0-0.2,0c-0.1,0-0.1,0.1-0.1,0.1c0,0,0,0.1,0,0.1c0,0.1,0,0.1,0,0.2s0.1,0.1,0.1,0.1C1.6,22.8,1.7,22.8,1.7,22.8z"
			/>
		<path class="st6" d="M17.1,23c-0.1,0-0.3,0-0.4-0.1c-0.1-0.1-0.2-0.2-0.3-0.3c-0.1-0.1-0.1-0.3-0.1-0.4c0-0.2,0-0.3,0.1-0.4
			c0.1-0.1,0.2-0.2,0.3-0.3c0.1-0.1,0.2-0.1,0.4-0.1c0.2,0,0.3,0,0.5,0.1c0.1,0.1,0.2,0.2,0.2,0.4h-0.3c0-0.1-0.1-0.2-0.2-0.2
			c-0.1-0.1-0.2-0.1-0.3-0.1c-0.1,0-0.2,0-0.2,0.1c-0.1,0-0.1,0.1-0.2,0.2c0,0.1-0.1,0.2-0.1,0.3c0,0.1,0,0.2,0,0.3
			c0,0.1,0.1,0.1,0.1,0.2c0,0.1,0.1,0.1,0.2,0.1c0.1,0,0.1,0,0.2,0c0.1,0,0.1,0,0.2,0c0.1,0,0.1-0.1,0.2-0.1c0,0,0.1-0.1,0.1-0.2
			h0.3c0,0.2-0.1,0.3-0.2,0.4C17.4,23,17.3,23,17.1,23z"/>
		<path class="st6" d="M18.8,23c-0.1,0-0.3,0-0.4-0.1c-0.1-0.1-0.2-0.2-0.3-0.3c-0.1-0.1-0.1-0.3-0.1-0.4c0-0.2,0-0.3,0.1-0.4
			c0.1-0.1,0.2-0.2,0.3-0.3c0.1-0.1,0.2-0.1,0.4-0.1c0.1,0,0.3,0,0.4,0.1c0.1,0.1,0.2,0.2,0.3,0.3c0.1,0.1,0.1,0.3,0.1,0.4
			c0,0.2,0,0.3-0.1,0.4c-0.1,0.1-0.2,0.2-0.3,0.3C19.1,23,19,23,18.8,23z M18.8,22.8c0.1,0,0.2,0,0.3-0.1c0.1,0,0.1-0.1,0.2-0.2
			s0.1-0.2,0.1-0.3s0-0.3-0.1-0.3s-0.1-0.2-0.2-0.2c-0.1,0-0.2-0.1-0.2-0.1c-0.1,0-0.2,0-0.2,0.1c-0.1,0-0.1,0.1-0.2,0.2
			c0,0.1-0.1,0.2-0.1,0.3s0,0.2,0.1,0.3c0,0.1,0.1,0.2,0.2,0.2C18.7,22.8,18.7,22.8,18.8,22.8z"/>
		<path class="st6" d="M19.9,23v-1.6h0.2v0.2c0-0.1,0.1-0.1,0.2-0.2c0.1,0,0.2-0.1,0.3-0.1c0.1,0,0.1,0,0.2,0c0.1,0,0.1,0.1,0.2,0.1
			c0.1,0,0.1,0.1,0.1,0.2c0.1-0.1,0.1-0.2,0.2-0.2c0.1,0,0.2-0.1,0.3-0.1c0.1,0,0.2,0,0.3,0.1s0.1,0.1,0.2,0.2
			c0,0.1,0.1,0.2,0.1,0.3v1h-0.3v-1c0-0.1,0-0.2-0.1-0.3c-0.1-0.1-0.1-0.1-0.3-0.1c-0.1,0-0.1,0-0.2,0.1c-0.1,0-0.1,0.1-0.1,0.2
			c0,0.1-0.1,0.2-0.1,0.3V23h-0.3v-1c0-0.1,0-0.2-0.1-0.3c-0.1-0.1-0.1-0.1-0.3-0.1c-0.1,0-0.1,0-0.2,0.1c-0.1,0-0.1,0.1-0.1,0.2
			c0,0.1-0.1,0.2-0.1,0.3V23H19.9z"/>
		<path class="st6" d="M22.6,23.6v-2.2h0.2l0,0.2c0-0.1,0.1-0.1,0.1-0.1c0,0,0.1-0.1,0.2-0.1s0.1,0,0.2,0c0.1,0,0.3,0,0.4,0.1
			c0.1,0.1,0.2,0.2,0.3,0.3s0.1,0.3,0.1,0.4c0,0.2,0,0.3-0.1,0.4c-0.1,0.1-0.1,0.2-0.3,0.3S23.5,23,23.3,23c-0.1,0-0.2,0-0.3-0.1
			c-0.1-0.1-0.2-0.1-0.2-0.2v0.9L22.6,23.6L22.6,23.6z M23.3,22.8c0.1,0,0.2,0,0.3-0.1c0.1,0,0.1-0.1,0.2-0.2c0-0.1,0.1-0.2,0.1-0.3
			s0-0.2-0.1-0.3c0-0.1-0.1-0.2-0.2-0.2s-0.2-0.1-0.3-0.1c-0.1,0-0.2,0-0.3,0.1c-0.1,0-0.1,0.1-0.2,0.2c0,0.1-0.1,0.2-0.1,0.3
			s0,0.2,0.1,0.3c0,0.1,0.1,0.2,0.2,0.2C23.1,22.8,23.2,22.8,23.3,22.8z"/>
		<path class="st6" d="M24.9,23c-0.1,0-0.2,0-0.3-0.1c-0.1,0-0.1-0.1-0.2-0.2c0-0.1-0.1-0.2-0.1-0.2c0-0.1,0-0.2,0.1-0.3
			s0.1-0.1,0.2-0.2c0.1,0,0.2-0.1,0.3-0.1h0.4c0-0.1,0-0.2,0-0.3c0-0.1-0.1-0.1-0.1-0.2s-0.1-0.1-0.2-0.1c-0.1,0-0.2,0-0.2,0.1
			c-0.1,0-0.1,0.1-0.1,0.2h-0.2c0-0.1,0-0.2,0.1-0.3s0.1-0.1,0.2-0.2c0.1,0,0.2-0.1,0.3-0.1c0.1,0,0.3,0,0.4,0.1
			c0.1,0.1,0.2,0.1,0.2,0.2c0,0.1,0.1,0.2,0.1,0.3v1h-0.3v-0.3c0,0,0,0.1-0.1,0.1c0,0-0.1,0.1-0.1,0.1c0,0-0.1,0.1-0.1,0.1
			C25,23,25,23,24.9,23z M24.9,22.8c0.1,0,0.1,0,0.2,0c0.1,0,0.1-0.1,0.1-0.1c0-0.1,0.1-0.1,0.1-0.2s0-0.1,0-0.2v0H25
			c-0.1,0-0.2,0-0.2,0s-0.1,0.1-0.1,0.1c0,0,0,0.1,0,0.1c0,0.1,0,0.1,0,0.2c0,0,0.1,0.1,0.1,0.1C24.8,22.8,24.9,22.8,24.9,22.8z"/>
		<path class="st6" d="M26,23v-1.6h0.2v0.3c0-0.1,0.1-0.2,0.2-0.2c0.1-0.1,0.2-0.1,0.3-0.1c0.1,0,0.2,0,0.3,0.1s0.2,0.1,0.2,0.2
			s0.1,0.2,0.1,0.3v1h-0.3v-1c0-0.1,0-0.2-0.1-0.3c-0.1-0.1-0.2-0.1-0.3-0.1c-0.1,0-0.2,0-0.2,0.1s-0.1,0.1-0.2,0.2
			c0,0.1-0.1,0.2-0.1,0.3V23H26z"/>
		<path class="st6" d="M27.9,23.6l0.4-0.8h-0.1l-0.6-1.4h0.3l0.5,1.2l0.5-1.2h0.3l-1,2.2H27.9z"/>
	</g>
</g>
<g>
	<g>
		<path class="st7" d="M5.7,22.4l-1.6-2.2c-0.1-0.1-0.1-0.1-0.2-0.1c-0.2,0-0.3,0.1-0.3,0.3v2.7H4v-2.3l1.6,2.2
			C5.7,23,5.8,23,5.9,23c0.2,0,0.3-0.1,0.3-0.3V20H5.7V22.4L5.7,22.4z"/>
		<path class="st7" d="M7.5,20.8c-0.7,0-1.2,0.5-1.2,1.1s0.5,1.1,1.2,1.1c0.7,0,1.2-0.5,1.2-1.1C8.7,21.3,8.2,20.8,7.5,20.8z
			 M7.5,22.8c-0.5,0-0.8-0.3-0.8-0.8c0-0.5,0.3-0.8,0.8-0.8c0.5,0,0.8,0.3,0.8,0.8C8.3,22.4,8,22.8,7.5,22.8L7.5,22.8z"/>
		<path class="st7" d="M10,20.8c-0.3,0-0.6,0.1-0.8,0.3v-1.2H8.9V22l0,0c0,0.6,0.5,1.1,1.2,1.1c0.7,0,1.2-0.5,1.2-1.1
			C11.2,21.3,10.7,20.8,10,20.8L10,20.8z M10,22.8c-0.5,0-0.8-0.3-0.8-0.8c0-0.5,0.3-0.8,0.8-0.8s0.8,0.3,0.8,0.8
			C10.8,22.4,10.5,22.8,10,22.8z"/>
		<rect x="11.4" y="19.9" class="st7" width="0.4" height="3.1"/>
	</g>
	<path class="st8" d="M13.6,20.5C13.6,20.5,13.6,20.5,13.6,20.5l-0.3-0.6L13.2,20L13.6,20.5L13.6,20.5z"/>
	<path class="st9" d="M13.4,20.7C13.4,20.7,13.4,20.7,13.4,20.7L13,20.2c0,0-0.1,0.1-0.1,0.1L13.4,20.7L13.4,20.7z"/>
	<path class="st10" d="M13.2,20.9C13.2,20.9,13.3,20.9,13.2,20.9l-0.6-0.5c0,0,0,0.1-0.1,0.1L13.2,20.9L13.2,20.9z"/>
	<path class="st11" d="M12.4,21l0.7,0.2l0,0c0,0,0-0.1,0-0.1l-0.7-0.2C12.5,20.9,12.5,20.9,12.4,21L12.4,21z"/>
	<path class="st12" d="M12.4,21.3h0.7c0,0,0-0.1,0-0.1l-0.7-0.1C12.4,21.2,12.4,21.2,12.4,21.3L12.4,21.3L12.4,21.3z"/>
	<path class="st13" d="M12.4,21.8l0.7-0.2c0,0,0-0.1,0-0.1l-0.7,0.1C12.4,21.6,12.4,21.7,12.4,21.8L12.4,21.8z"/>
	<path class="st13" d="M13.2,21.8C13.2,21.8,13.2,21.7,13.2,21.8l-0.7,0.2l0,0.1c0,0,0,0.1,0,0.1L13.2,21.8
		C13.2,21.8,13.2,21.8,13.2,21.8"/>
	<path class="st14" d="M12.8,22.5l0.5-0.5c0,0-0.1-0.1-0.1-0.1l-0.6,0.4l0,0L12.8,22.5C12.8,22.4,12.8,22.5,12.8,22.5L12.8,22.5z"/>
	<path class="st15" d="M13.1,22.8l0.4-0.6c0,0-0.1-0.1-0.1-0.1L13,22.6C13,22.7,13.1,22.7,13.1,22.8z"/>
	<path class="st16" d="M13.5,23l0.3-0.7c0,0-0.1,0-0.1-0.1l-0.3,0.6C13.3,22.9,13.4,22.9,13.5,23L13.5,23z"/>
	<path class="st17" d="M13.8,23c0,0,0.1,0,0.1,0l0.1-0.7c0,0-0.1,0-0.1,0l0,0L13.8,23C13.7,23,13.7,23,13.8,23L13.8,23z"/>
	<path class="st18" d="M14,23.1L14,23.1c0.1,0,0.1,0,0.1,0c0,0,0.1,0,0.1,0l-0.1-0.7c-0.1,0-0.1,0-0.2,0L14,23.1L14,23.1z"/>
	<path class="st7" d="M15.4,22.4c0,0,0.1-0.1,0.1-0.1c0,0,0,0,0-0.1l0-0.1l-0.6-0.3c0,0-0.1,0.1-0.1,0.1L15.4,22.4L15.4,22.4z"/>
	<path class="st19" d="M15.6,22.1c0,0,0-0.1,0-0.1s0-0.1,0-0.1L15,21.6l0,0c0,0,0,0.1,0,0.1L15.6,22.1L15.6,22.1z"/>
	<path class="st20" d="M15,21.5l0.7,0.1c0-0.1,0-0.2,0-0.3l-0.7,0C15.1,21.4,15.1,21.5,15,21.5L15,21.5z"/>
	<path class="st21" d="M15.1,21.3l0.7,0c0-0.1,0-0.2,0-0.2L15,21.2C15,21.2,15.1,21.3,15.1,21.3L15.1,21.3z"/>
	<path class="st22" d="M15,21.1l0.7-0.2c0,0,0-0.1,0-0.1l0-0.1l0,0L14.9,21C15,21,15,21,15,21.1L15,21.1z"/>
	<path class="st23" d="M14.9,20.9l0.6-0.4c0,0,0-0.1-0.1-0.1l-0.1-0.1L14.9,20.9C14.9,20.8,14.9,20.8,14.9,20.9L14.9,20.9z"/>
	<path class="st24" d="M14.7,20.7l0.5-0.5c0,0-0.1-0.1-0.1-0.1L14.7,20.7C14.7,20.6,14.7,20.7,14.7,20.7L14.7,20.7z"/>
	<path class="st25" d="M14.6,20.5l0.4-0.6l-0.1,0c0,0-0.1,0-0.1,0L14.6,20.5C14.5,20.5,14.5,20.5,14.6,20.5L14.6,20.5z"/>
	<path class="st26" d="M14.3,20.4C14.3,20.4,14.3,20.4,14.3,20.4L14.3,20.4l0.3-0.6c-0.1,0-0.1,0-0.2,0L14.3,20.4L14.3,20.4z"/>
	<path class="st27" d="M14.1,20.4C14.1,20.4,14.1,20.4,14.1,20.4l0.1-0.7c0,0-0.1,0-0.1,0L14.1,20.4L14.1,20.4z"/>
	<path class="st28" d="M13.8,20.4C13.9,20.4,13.9,20.4,13.8,20.4l-0.1-0.7c0,0-0.1,0-0.1,0L13.8,20.4L13.8,20.4z"/>
	<path class="st29" d="M14.4,23L14.4,23c0.1,0,0.1,0,0.2,0c0,0,0.1,0,0.2-0.1l-0.3-0.6c-0.1,0-0.1,0-0.2,0L14.4,23L14.4,23z"/>
	<path class="st30" d="M15.7,23c-0.1,0.2-0.3,0.3-0.5,0.4l-1-1.7c0,0,0.1,0,0.1-0.1L15.7,23L15.7,23z"/>
</g>
<ellipse transform="matrix(0.8857 -0.4642 0.4642 0.8857 -1.8065 6.9832)" class="st31" cx="13.3" cy="7.2" rx="10.6" ry="3.6"/>
<g>
	<path class="st32" d="M3.2,18.6v-1.7l-0.6,0v-0.4l1.7,0v0.4H3.8v1.7H3.2z M5,18.6l-0.3-2.1l1.4-0.2l0,0.4l-0.9,0.1l0,0.4l0.8-0.1
		l0,0.4l-0.8,0.1l0.1,0.5l0.9-0.1l0,0.4C6.4,18.5,5,18.6,5,18.6z M8,18.2c-0.3,0-0.6,0-0.8-0.2c-0.2-0.2-0.4-0.4-0.4-0.8
		c-0.1-0.3,0-0.6,0.1-0.9c0.1-0.2,0.4-0.4,0.7-0.4c0.1,0,0.2,0,0.2,0H8c0,0,0.1,0,0.2,0c0.1,0,0.1,0,0.1,0l0.1,0.5H8.3
		c0,0-0.1,0-0.1-0.1c0,0-0.1-0.1-0.1-0.1c-0.1,0-0.1,0-0.2-0.1H7.7c-0.1,0-0.1,0-0.2,0.1c-0.1,0-0.1,0.1-0.2,0.2
		c0,0.1-0.1,0.1-0.1,0.2v0.3c0,0.1,0.1,0.2,0.1,0.3c0.1,0.1,0.1,0.2,0.2,0.2l0.2,0.1h0.2c0.1,0,0.1,0,0.2-0.1c0.1,0,0.1-0.1,0.1-0.1
		l0.1-0.1c0,0,0.1-0.1,0.1-0.1h0l0.1,0.5c0,0-0.1,0.1-0.1,0.1c0,0-0.1,0.1-0.1,0.1c-0.1,0-0.1,0.1-0.2,0.1C8.2,18.2,8.1,18.2,8,18.2
		z M11,17.5l-0.5,0.1l-0.2-0.9l-0.7,0.1l0.3,0.9l-0.5,0.1l-0.5-2.1l0.5-0.1l0.2,0.8l0.7-0.1L10,15.6l0.5-0.1L11,17.5z"/>
	<path class="st32" d="M13.5,16.8L13,16.9l-1.2-1.1l0.5,1.4l-0.4,0.1l-0.7-2l0.6-0.2l1,1l-0.4-1.2l0.5-0.1
		C12.8,14.7,13.5,16.8,13.5,16.8z"/>
	<path class="st32" d="M15.5,14.8c0.1,0.3,0.1,0.6,0.1,0.9c-0.1,0.3-0.3,0.4-0.6,0.6c-0.3,0.1-0.6,0.1-0.8,0
		c-0.2-0.1-0.4-0.3-0.6-0.7s-0.1-0.6-0.1-0.9c0.1-0.3,0.3-0.4,0.6-0.6c0.3-0.1,0.6-0.1,0.8,0C15.2,14.3,15.4,14.5,15.5,14.8z M15,15
		c0-0.1-0.1-0.2-0.2-0.3c-0.1-0.1-0.1-0.1-0.2-0.2c-0.1,0-0.1-0.1-0.2-0.1s-0.1,0-0.2,0c-0.1,0-0.1,0.1-0.1,0.1c0,0-0.1,0.1-0.1,0.2
		c0,0.1,0,0.2,0,0.2c0,0.1,0,0.2,0.1,0.3c0,0.1,0.1,0.2,0.2,0.3c0.1,0.1,0.1,0.1,0.2,0.2c0.1,0,0.1,0.1,0.2,0.1s0.1,0,0.2,0
		c0.1,0,0.1-0.1,0.2-0.1c0,0,0.1-0.1,0.1-0.2s0-0.2,0-0.2C15.1,15.2,15.1,15.1,15,15z M17.8,14.9l-1.2,0.6l-0.9-1.9l0.5-0.2l0.7,1.6
		l0.8-0.4L17.8,14.9z M19.5,12.8c0.2,0.3,0.2,0.6,0.1,0.9c-0.1,0.3-0.2,0.5-0.5,0.6c-0.3,0.1-0.5,0.2-0.8,0.1
		c-0.3-0.1-0.5-0.3-0.6-0.6c-0.2-0.3-0.2-0.6-0.1-0.9c0.1-0.3,0.2-0.5,0.5-0.6c0.3-0.1,0.5-0.2,0.8-0.1
		C19.1,12.3,19.3,12.5,19.5,12.8z M19,13.1c-0.1-0.1-0.1-0.2-0.2-0.3c-0.1-0.1-0.1-0.1-0.2-0.2c-0.1,0-0.1,0-0.2,0
		c-0.1,0-0.1,0-0.2,0c-0.1,0-0.1,0.1-0.1,0.1c0,0-0.1,0.1-0.1,0.2v0.2c0,0.1,0.1,0.2,0.1,0.3c0.1,0.1,0.1,0.2,0.2,0.3
		c0.1,0.1,0.1,0.1,0.2,0.1c0.1,0,0.1,0,0.2,0c0.1,0,0.1,0,0.2,0c0.1,0,0.1-0.1,0.1-0.1c0-0.1,0.1-0.1,0.1-0.2v-0.2
		C19.1,13.3,19.1,13.2,19,13.1z M21.9,12.4c-0.1,0.1-0.1,0.2-0.2,0.3c-0.1,0.1-0.2,0.2-0.3,0.3c-0.3,0.2-0.5,0.2-0.8,0.2
		c-0.3-0.1-0.5-0.2-0.7-0.5c-0.2-0.3-0.2-0.6-0.2-0.8c0.1-0.3,0.2-0.5,0.5-0.7c0.1-0.1,0.3-0.2,0.4-0.2c0.1,0,0.2-0.1,0.4-0.1
		l0.3,0.4l0,0h-0.3c-0.1,0-0.1,0-0.2,0c-0.1,0-0.1,0-0.2,0.1c-0.1,0-0.1,0.1-0.2,0.2c0,0.1-0.1,0.1-0.1,0.2v0.3
		c0,0.1,0.1,0.2,0.1,0.3c0.1,0.2,0.3,0.3,0.5,0.4c0.2,0,0.3,0,0.5-0.1c0,0,0,0,0.1,0s0,0,0.1,0l-0.2-0.4l-0.3,0.2l-0.2-0.3l0.8-0.5
		C21.4,11.6,21.9,12.4,21.9,12.4z M23.5,11.5l-0.9,0.6l-0.2-0.3l0.2-0.2l-0.8-1.1l-0.3,0.2l-0.2-0.3l0.9-0.7l0.2,0.3l-0.3,0.2
		l0.8,1.1l0.2-0.2L23.5,11.5L23.5,11.5z M24,11.1l-1.3-1.7l1.1-0.9L24,8.8l-0.7,0.6l0.2,0.3l0.6-0.5l0.3,0.3L23.8,10l0.3,0.4
		l0.7-0.5l0.2,0.3L24,11.1z M26.1,9.2c-0.1,0.1-0.2,0.2-0.3,0.3c-0.1,0.1-0.2,0.1-0.3,0.2l-0.4-0.4l0,0c0.1,0,0.3,0,0.4-0.1
		C25.7,9.1,25.8,9,25.8,9c0,0,0-0.1,0.1-0.1c0,0,0-0.1,0.1-0.1c0,0,0-0.1,0-0.1c0,0,0-0.1-0.1-0.1c0,0-0.1-0.1-0.1,0
		c-0.1,0-0.1,0-0.2,0.1c-0.1,0-0.1,0.1-0.2,0.1c-0.1,0-0.1,0.1-0.2,0.1C25.1,8.9,24.9,9,24.8,9c-0.1,0-0.2-0.1-0.3-0.2
		c-0.1-0.1-0.2-0.3-0.2-0.5c0-0.2,0.1-0.4,0.3-0.6c0.1-0.1,0.2-0.2,0.3-0.2c0.1-0.1,0.2-0.1,0.3-0.2l0.3,0.3l0,0
		c-0.1,0-0.2,0-0.3,0.1c-0.1,0-0.2,0.1-0.3,0.2c0,0-0.1,0.1-0.1,0.1c0,0,0,0.1-0.1,0.1v0.1c0,0,0,0.1,0,0.1c0,0,0.1,0.1,0.1,0.1
		c0,0,0.1,0,0.2-0.1c0.1,0,0.1-0.1,0.2-0.1L25.4,8C25.6,8,25.7,7.9,25.8,8C25.9,8,26,8,26.1,8.1c0.2,0.2,0.2,0.3,0.2,0.5
		C26.4,8.8,26.3,9,26.1,9.2z"/>
	<g>
		<path class="st33" d="M11.3,3c6.4-3,12.5-3.5,13.6-1.2c1.1,2.3-3.3,6.7-9.7,9.7c-6.4,3-12.5,3.5-13.6,1.2S4.9,6,11.3,3L11.3,3z"/>
		<path class="st34" d="M14.9,4.3l-0.2,0.1L14,8l-0.2-3.2l-0.2,0.1L13.2,5l0.4,4.2l0.2-0.1L14.1,9l1.1-4.9L14.9,4.3z M11.1,10.4
			l1.6-0.8l0-0.4l0-0.4l-1.2,0.6l0.1-1.2l1.1-0.5l0-0.4V7l-1.1,0.5l0.1-1l1.1-0.6l0-0.4l0-0.4l-1.6,0.7L11.1,10.4z M8.5,7.3
			l-0.2,3.2c0,0.2,0,0.4-0.1,0.5c0,0.1-0.1,0.2-0.2,0.3c-0.1,0.1-0.2,0-0.2-0.1s0-0.4,0-0.8l-0.4,0.2c-0.1,0.7,0,1.1,0,1.3
			c0.1,0.2,0.3,0.3,0.5,0.2c0.2-0.1,0.4-0.3,0.6-0.6c0.1-0.3,0.2-0.7,0.3-1.2L8.9,7L8.7,7.1C8.7,7.1,8.5,7.3,8.5,7.3z M18.9,2.4
			l-0.2,3.1l-0.6-2.7l-0.3,0.1L17.6,3l-0.3,4.5l0.2-0.1l0.2-0.1l0.2-3.3L18.5,7l0.2-0.1L19,6.7l0.3-4.5l-0.2,0.1L18.9,2.4z
			 M16.3,3.6L16,3.7l-1.1,4.9l0.2-0.1l0.3-0.1l0.2-1l0.8-0.4l0.1,0.9l0.2-0.1L17,7.7l-0.4-4.2L16.3,3.6z"/>
		<path class="st6" d="M24.1,2.2c-1-2-6.6-1.4-12.6,1.4c-6,2.8-10.1,6.7-9.1,8.8S9,13.8,15,11C21,8.2,25.1,4.2,24.1,2.2z M8.7,10.3
			c0,0.5-0.1,0.9-0.3,1.2c-0.1,0.3-0.3,0.5-0.6,0.6c-0.3,0.1-0.4,0.1-0.5-0.2c-0.1-0.2-0.1-0.7,0-1.3l0.4-0.2c0,0.4,0,0.7,0,0.8
			c0,0.1,0.1,0.2,0.2,0.1c0.1,0,0.2-0.1,0.2-0.3c0-0.1,0.1-0.3,0.1-0.5l0.2-3.2l0.2-0.1l0.2-0.1C8.9,7.1,8.7,10.3,8.7,10.3z M11,6.5
			l0,0.4L9.8,7.4l-0.1,1l1.1-0.5v0.4l0,0.4L9.7,9.2l-0.1,1.2l1.2-0.6l0,0.4l0,0.4l-1.6,0.8l0.3-4.5L11,6L11,6.5L11,6.5z M13,5.5
			l0,0.4l-1.1,0.5l-0.1,1l1.1-0.5l0,0.4l0,0.4l-1.1,0.5l-0.1,1.2l1.2-0.6v0.4l0,0.4l-1.6,0.8l0.3-4.5L13,5.1C13,5.1,13,5.5,13,5.5z
			 M13.9,9.1l-0.2,0.1L13.3,5l0.2-0.1l0.2-0.1L13.9,8l0.7-3.7l0.2-0.1l0.2-0.1L14,9.1C14,9.1,13.9,9.1,13.9,9.1z M16.7,7.8l-0.2,0.1
			L16.4,7l-0.8,0.4l-0.2,1l-0.3,0.1l-0.2,0.1L16,3.7l0.3-0.1l0.3-0.1L17,7.6L16.7,7.8z M19,6.7l-0.2,0.1L18.5,7l-0.7-2.8l-0.2,3.3
			l-0.2,0.1l-0.2,0.1L17.6,3l0.2-0.1L18,2.8l0.6,2.7l0.2-3.1l0.2-0.1l0.2-0.1C19.3,2.2,19,6.7,19,6.7z"/>
		<path class="st6" d="M16.2,4.6l-0.4,2l0.6-0.3L16.2,4.6z"/>
	</g>
</g>
</svg>
