<svg class="animated" id="jeevan-website-creator" xmlns="http://www.w3.org/2000/svg" xmlns:xlink="http://www.w3.org/1999/xlink" viewBox="0 0 500 500" ><style>svg#jeevan-website-creator:not(.animated) .animable{opacity:0}svg#jeevan-website-creator.animated #jvn--Floor--inject-58{animation:1s 1 forwards cubic-bezier(.36,-0.01,.5,1.38) slideLeft,3s Infinite linear shake;animation-delay:0s,1s}svg#jeevan-website-creator.animated #elfc5k46q0nxm{animation:1s 1 forwards ease-in slideUp;animation-delay:0s}svg#jeevan-website-creator.animated #ell27zec007se{animation:1s 1 forwards ease-in slideUp;animation-delay:.08333333333333333s;opacity:0}svg#jeevan-website-creator.animated #el0cmkl2pzuz9{animation:1s 1 forwards ease-in slideUp;animation-delay:.16666666666666666s;opacity:0}svg#jeevan-website-creator.animated #elyu8bjy78k48{animation:1s 1 forwards ease-in slideUp;animation-delay:.25s;opacity:0}svg#jeevan-website-creator.animated #eldg43qdsz7ho{animation:1s 1 forwards ease-in slideUp;animation-delay:.3333333333333333s;opacity:0}svg#jeevan-website-creator.animated #elcoa3memh6y9{animation:1s 1 forwards ease-in slideUp;animation-delay:.41666666666666663s;opacity:0}svg#jeevan-website-creator.animated #elfl9ywbk9qrp{animation:1s 1 forwards ease-in slideUp;animation-delay:.5s;opacity:0}svg#jeevan-website-creator.animated #elrd4o74ucq7f{animation:1s 1 forwards ease-in slideUp;animation-delay:.5833333333333333s;opacity:0}svg#jeevan-website-creator.animated #elzwcbwg66mx{animation:1s 1 forwards ease-in slideUp;animation-delay:.6666666666666666s;opacity:0}svg#jeevan-website-creator.animated #el9liqxsf8zv7{animation:1s 1 forwards ease-in slideUp;animation-delay:.75s;opacity:0}svg#jeevan-website-creator.animated #elko5eymicp2{animation:1s 1 forwards ease-in slideUp;animation-delay:.8333333333333333s;opacity:0}svg#jeevan-website-creator.animated #else2gduf364{animation:1s 1 forwards ease-in slideUp;animation-delay:.9166666666666666s;opacity:0}svg#jeevan-website-creator.animated #jvn--Graphics--inject-58{animation:1s 1 forwards ease-in slideUp,3s Infinite linear floating;animation-delay:0s,1s}svg#jeevan-website-creator.animated #jvn--Window--inject-58{animation:1s 1 forwards ease-in slideLeft,6s Infinite linear shake;animation-delay:0s,1s}svg#jeevan-website-creator.animated #elbplqsx4uxrv{animation:1s 1 forwards cubic-bezier(.36,-0.01,.5,1.38) slideLeft;animation-delay:0s}svg#jeevan-website-creator.animated #elkpy6xompny{animation:1s 1 forwards cubic-bezier(.36,-0.01,.5,1.38) slideLeft;animation-delay:.07142857142857142s;opacity:0}svg#jeevan-website-creator.animated #elwq0ssfwnye{animation:1s 1 forwards cubic-bezier(.36,-0.01,.5,1.38) slideLeft;animation-delay:.14285714285714285s;opacity:0}svg#jeevan-website-creator.animated #el3afaifh4rv{animation:1s 1 forwards cubic-bezier(.36,-0.01,.5,1.38) slideLeft;animation-delay:.21428571428571427s;opacity:0}svg#jeevan-website-creator.animated #elwoj6kqsp5zl{animation:1s 1 forwards cubic-bezier(.36,-0.01,.5,1.38) slideLeft;animation-delay:.2857142857142857s;opacity:0}svg#jeevan-website-creator.animated #el0rbhlrviucgr{animation:1s 1 forwards cubic-bezier(.36,-0.01,.5,1.38) slideLeft;animation-delay:.3571428571428571s;opacity:0}svg#jeevan-website-creator.animated #el2ozyngsznke{animation:1s 1 forwards cubic-bezier(.36,-0.01,.5,1.38) slideLeft;animation-delay:.42857142857142855s;opacity:0}svg#jeevan-website-creator.animated #elqmqh5z6zw7{animation:1s 1 forwards cubic-bezier(.36,-0.01,.5,1.38) slideLeft;animation-delay:.5s;opacity:0}svg#jeevan-website-creator.animated #elzty8mrb6v6m{animation:1s 1 forwards cubic-bezier(.36,-0.01,.5,1.38) slideLeft;animation-delay:.5714285714285714s;opacity:0}svg#jeevan-website-creator.animated #elj5uq5uatjgk{animation:1s 1 forwards cubic-bezier(.36,-0.01,.5,1.38) slideLeft;animation-delay:.6428571428571428s;opacity:0}svg#jeevan-website-creator.animated #el5vuwdrbtfyv{animation:1s 1 forwards cubic-bezier(.36,-0.01,.5,1.38) slideLeft;animation-delay:.7142857142857142s;opacity:0}svg#jeevan-website-creator.animated #eld23lcpx4usm{animation:1s 1 forwards cubic-bezier(.36,-0.01,.5,1.38) slideLeft;animation-delay:.7857142857142857s;opacity:0}svg#jeevan-website-creator.animated #elohb9kk5aaaj{animation:1s 1 forwards cubic-bezier(.36,-0.01,.5,1.38) slideLeft;animation-delay:.8571428571428571s;opacity:0}svg#jeevan-website-creator.animated #el8353lugmrv5{animation:1s 1 forwards cubic-bezier(.36,-0.01,.5,1.38) slideLeft;animation-delay:.9285714285714285s;opacity:0}svg#jeevan-website-creator.animated #jvn--Screens--inject-58{animation:1s 1 forwards cubic-bezier(.36,-0.01,.5,1.38) slideLeft,6s Infinite linear shake;animation-delay:0s,2s}svg#jeevan-website-creator.animated #jvn--speech-bubble--inject-58{animation:1s 1 forwards cubic-bezier(.36,-0.01,.5,1.38) slideUp,3s Infinite linear floating;animation-delay:0s,1s}svg#jeevan-website-creator.animated #jvn--Character--inject-58{animation:1.6s 1 forwards cubic-bezier(.36,-0.01,.5,1.38) slideRight,6s Infinite linear shake;animation-delay:0s,1.6s}@keyframes slideLeft{0%{opacity:0;transform:translateX(-30px)}100%{opacity:1;transform:translateX(0)}}@keyframes shake{10%,90%{transform:translate3d(-1px,0,0)}20%,80%{transform:translate3d(2px,0,0)}30%,50%,70%{transform:translate3d(-4px,0,0)}40%,60%{transform:translate3d(4px,0,0)}}@keyframes slideUp{0%{opacity:0;transform:translateY(30px)}100%{opacity:1;transform:inherit}}@keyframes floating{0%{opacity:1;transform:translateY(0px)}50%{transform:translateY(-10px)}100%{opacity:1;transform:translateY(0px)}}@keyframes slideRight{0%{opacity:0;transform:translateX(30px)}100%{opacity:1;transform:translateX(0)}}</style><g id="jvn--Floor--inject-58" style="transform-origin:251.15px 431.66px 0" class="animable"><path d="M41.99 431.66H460.31z" style="fill:none;stroke:#263238;stroke-linecap:round;stroke-linejoin:round;transform-origin:251.15px 431.66px 0" id="el73yg3j0qtst" class="animable"/></g><g id="jvn--Graphics--inject-58" style="transform-origin:285.545px 233.91px 0" class="animable"><path d="M279 113.39V97.69l-11.76-1a32.58 32.58.0 0 0-2.9-7.05l7.59-9-11.1-11.1-9 7.59a32 32 0 0 0-7-2.91l-1-11.76H228l-1 11.76a32 32 0 0 0-7 2.91l-9-7.59-11.1 11.1 7.59 9a32.58 32.58.0 0 0-2.9 7.05l-11.76 1v15.7l11.76 1a32.58 32.58.0 0 0 2.9 7l-7.59 9 11.1 11.1 9-7.59a32 32 0 0 0 7 2.91l1 11.76H243.7l1-11.76a32.31 32.31.0 0 0 7.05-2.91l9 7.59 11.1-11.1-7.59-9a32.58 32.58.0 0 0 2.9-7zm-43.1 10.39a18.24 18.24.0 1 1 18.24-18.24A18.25 18.25.0 0 1 235.86 123.78z" style="fill:none;stroke:#263238;stroke-linecap:round;stroke-linejoin:round;transform-origin:235.914px 105.516px 0" id="elfc5k46q0nxm" class="animable"/><path d="M447.69 266.84v-7.52l-5.64-.49a15.92 15.92.0 0 0-1.39-3.38l3.64-4.33L439 245.8l-4.32 3.64a15.41 15.41.0 0 0-3.38-1.39l-.49-5.64h-7.53l-.48 5.64a15.21 15.21.0 0 0-3.38 1.39l-4.33-3.64-5.32 5.32 3.64 4.33a15.44 15.44.0 0 0-1.4 3.38l-5.64.49v7.52l5.64.49a15.44 15.44.0 0 0 1.4 3.38L409.74 275l5.32 5.32 4.33-3.64a15.21 15.21.0 0 0 3.38 1.39l.48 5.64h7.53l.49-5.64a15.41 15.41.0 0 0 3.38-1.39l4.32 3.64L444.3 275l-3.64-4.33a15.92 15.92.0 0 0 1.39-3.38zm-20.67 5a8.75 8.75.0 1 1 8.74-8.75A8.75 8.75.0 0 1 427 271.83z" style="fill:none;stroke:#263238;stroke-linecap:round;stroke-linejoin:round;transform-origin:427.031px 263.061px 0" id="ell27zec007se" class="animable"/><path d="M442 129.8a20.53 20.53.0 0 0-25.36-24.44 19.7 19.7.0 0 0-36.82 8.43 16.08 16.08.0 0 0-19 14 9 9 0 0 0 .2 17.92h75.28A9 9 0 0 0 442 129.8z" style="fill:none;stroke:#263238;stroke-linecap:round;stroke-linejoin:round;transform-origin:398.998px 120.523px 0" id="el0cmkl2pzuz9" class="animable"/><path d="M400.63 138.83v20.75z" style="fill:none;stroke:#263238;stroke-linecap:round;stroke-linejoin:round;transform-origin:400.63px 149.205px 0" id="elyu8bjy78k48" class="animable"/><path d="M400.63 126.39V134.68z" style="fill:none;stroke:#263238;stroke-linecap:round;stroke-linejoin:round;transform-origin:400.63px 130.535px 0" id="eldg43qdsz7ho" class="animable"/><path d="M400.63 118.63V123.07z" style="fill:none;stroke:#263238;stroke-linecap:round;stroke-linejoin:round;transform-origin:400.63px 120.85px 0" id="elcoa3memh6y9" class="animable"/><path d="M396.71 157.16 400.63 162.01 404.55 157.16" style="fill:none;stroke:#263238;stroke-linecap:round;stroke-linejoin:round;transform-origin:400.63px 159.585px 0" id="elfl9ywbk9qrp" class="animable"/><path d="M212.64 373.15a20.54 20.54.0 0 0-25.37-24.44 19.69 19.69.0 0 0-36.81 8.44 16.27 16.27.0 0 0-3-.29 16.09 16.09.0 0 0-16 14.28 9 9 0 0 0 .19 17.92H207a9 9 0 0 0 5.67-15.91z" style="fill:none;stroke:#263238;stroke-linecap:round;stroke-linejoin:round;transform-origin:169.652px 363.867px 0" id="elrd4o74ucq7f" class="animable"/><path d="M171.24 385.15V364.41z" style="fill:none;stroke:#263238;stroke-linecap:round;stroke-linejoin:round;transform-origin:171.24px 374.78px 0" id="elzwcbwg66mx" class="animable"/><path d="M171.24 397.6V389.3z" style="fill:none;stroke:#263238;stroke-linecap:round;stroke-linejoin:round;transform-origin:171.24px 393.45px 0" id="el9liqxsf8zv7" class="animable"/><path d="M171.24 405.36V400.92z" style="fill:none;stroke:#263238;stroke-linecap:round;stroke-linejoin:round;transform-origin:171.24px 403.14px 0" id="elko5eymicp2" class="animable"/><path d="M175.16 366.83 171.24 361.98 167.32 366.83" style="fill:none;stroke:#263238;stroke-linecap:round;stroke-linejoin:round;transform-origin:171.24px 364.405px 0" id="else2gduf364" class="animable"/></g><g id="jvn--Window--inject-58" style="transform-origin:188.295px 211.869px 0" class="animable"><path d="M53.48 109.9H304.93a4.24 4.24.0 0 1 4.24 4.24V126a0 0 0 0 1 0 0H49.24a0 0 0 0 1 0 0V114.14A4.24 4.24.0 0 1 53.48 109.9z" style="fill:#90caf9;stroke:#263238;stroke-linecap:round;stroke-linejoin:round;transform-origin:179.205px 117.949px 0" id="el2qvoiu71fg9" class="animable"/><path d="M60.62 128.97h262.71v184.87H60.62z" style="fill:#fff;stroke:#263238;stroke-linecap:round;stroke-linejoin:round;transform-origin:191.975px 221.405px 0" id="elb2vd9gswd2c" class="animable"/><path d="M327.35 117.94a4 4 0 1 1-4-4 4 4 0 0 1 4 4z" style="fill:#fff;stroke:#263238;stroke-linecap:round;stroke-linejoin:round;transform-origin:323.352px 117.941px 0" id="elfagfdzms6sp" class="animable"/><path d="M313.19 117.94a4 4 0 1 1-4-4 4 4 0 0 1 4 4z" style="fill:#fff;stroke:#263238;stroke-linecap:round;stroke-linejoin:round;transform-origin:309.191px 117.941px 0" id="el87mzmvm62l2" class="animable"/><path d="M299 117.94a4 4 0 1 1-4-4 4 4 0 0 1 4 4z" style="fill:#fff;stroke:#263238;stroke-linecap:round;stroke-linejoin:round;transform-origin:295px 117.941px 0" id="elwp26ixgwvm" class="animable"/><path d="M315.37 136.9H304.97z" style="fill:none;stroke:#263238;stroke-linecap:round;stroke-linejoin:round;stroke-width:2px;transform-origin:310.17px 136.9px 0" id="el5ppdofaiq6q" class="animable"/><path d="M315.37 141.12H304.97z" style="fill:none;stroke:#263238;stroke-linecap:round;stroke-linejoin:round;stroke-width:2px;transform-origin:310.17px 141.12px 0" id="el5mnqmyytkk3" class="animable"/><path d="M315.37 145.34H304.97z" style="fill:none;stroke:#263238;stroke-linecap:round;stroke-linejoin:round;stroke-width:2px;transform-origin:310.17px 145.34px 0" id="elz6uskzel4w9" class="animable"/><path d="M78.81 245.98H157.54z" style="fill:none;stroke:#263238;stroke-linecap:round;stroke-linejoin:round;stroke-width:2px;transform-origin:118.175px 245.98px 0" id="elpu1lw1osrik" class="animable"/><path d="M78.81 252.19H157.54z" style="fill:none;stroke:#263238;stroke-linecap:round;stroke-linejoin:round;stroke-width:2px;transform-origin:118.175px 252.19px 0" id="elri10ddz0c1d" class="animable"/><path d="M78.81 258.51H140.89z" style="fill:none;stroke:#263238;stroke-linecap:round;stroke-linejoin:round;stroke-width:2px;transform-origin:109.85px 258.51px 0" id="el54royljgim3" class="animable"/><path d="M245.76 131.05v.5z" style="fill:none;stroke:#263238;stroke-linecap:round;stroke-linejoin:round;transform-origin:245.76px 131.3px 0" id="elqghmvvx54r" class="animable"/><path d="M245.76 134.55V308.78z" style="fill:none;stroke:#263238;stroke-linecap:round;stroke-linejoin:round;stroke-dasharray:.99845px,2.99535px;transform-origin:245.76px 221.665px 0" id="el6vvzlb682xl" class="animable"/><path d="M245.76 310.28v.5z" style="fill:none;stroke:#263238;stroke-linecap:round;stroke-linejoin:round;transform-origin:245.76px 310.53px 0" id="elezm44av47k8" class="animable"/><path d="M63.78 272.38h.5z" style="fill:none;stroke:#263238;stroke-linecap:round;stroke-linejoin:round;transform-origin:64.03px 272.38px 0" id="elgn8wmdad6fg" class="animable"/><path d="M67.27 272.38H317.31z" style="fill:none;stroke:#263238;stroke-linecap:round;stroke-linejoin:round;stroke-dasharray:.998138px,2.99441px;transform-origin:192.29px 272.38px 0" id="elamjue8a13dc" class="animable"/><path d="M318.81 272.38h.5z" style="fill:none;stroke:#263238;stroke-linecap:round;stroke-linejoin:round;transform-origin:319.06px 272.38px 0" id="eloim7e9mbw1" class="animable"/><path d="M244.04 270.65h3.45v3.45H244.04z" style="fill:#fff;stroke:#263238;stroke-linecap:round;stroke-linejoin:round;transform-origin:245.765px 272.375px 0" id="elcicitpd7h3u" class="animable"/><path d="M231.99 239.24H185.93z" style="fill:none;stroke:#263238;stroke-linecap:round;stroke-linejoin:round;transform-origin:208.96px 239.24px 0" id="elx1lh6hd786o" class="animable"/><path d="M232.88 260.54s0-21.41-23.92-21.41S185 260.54 185 260.54" style="fill:none;stroke:#263238;stroke-linecap:round;stroke-linejoin:round;transform-origin:208.939px 249.834px 0" id="el9ctn0sw9ezs" class="animable"/><circle cx="232.88" cy="260.54" r="2.02" style="fill:#90caf9;stroke:#263238;stroke-linecap:round;stroke-linejoin:round;transform-origin:232.88px 260.54px 0" id="elaffl9d4o7j7" class="animable"/><path d="M183 260.54a2 2 0 1 1 2 2 2 2 0 0 1-2-2z" style="fill:#90caf9;stroke:#263238;stroke-linecap:round;stroke-linejoin:round;transform-origin:185px 260.539px 0" id="elkneiwgr4kf" class="animable"/><g id="elqgkp7yzv179"><path d="M231.11 237.36h3.54v3.54H231.11z" style="fill:#90caf9;stroke:#263238;stroke-linecap:round;stroke-linejoin:round;transform-origin:232.88px 239.13px 0;transform:rotate(180deg)" class="animable"/></g><g id="elfeqx3tqsn3h"><path d="M207.19 237.36h3.54v3.54H207.19z" style="fill:#90caf9;stroke:#263238;stroke-linecap:round;stroke-linejoin:round;transform-origin:208.96px 239.13px 0;transform:rotate(180deg)" class="animable"/></g><g id="elqgrlpfe6h9j"><path d="M183.27 237.36h3.54v3.54H183.27z" style="fill:#90caf9;stroke:#263238;stroke-linecap:round;stroke-linejoin:round;transform-origin:185.04px 239.13px 0;transform:rotate(180deg)" class="animable"/></g><path d="M107.43 174.87v-7.08l-5.29-.45a15.09 15.09.0 0 0-1.31-3.18l3.42-4.06-5-5-4.07 3.42A14.22 14.22.0 0 0 92 157.21l-.46-5.3H84.48l-.46 5.3a14 14 0 0 0-3.17 1.31l-4.07-3.42-5 5 3.42 4.06a14.58 14.58.0 0 0-1.31 3.18l-5.3.45v7.08l5.3.45a14.78 14.78.0 0 0 1.31 3.18l-3.42 4.06 5 5 4.07-3.42A14 14 0 0 0 84 185.45l.46 5.3h7.07l.46-5.3a14.22 14.22.0 0 0 3.17-1.31l4.07 3.42 5-5-3.42-4.06a15.31 15.31.0 0 0 1.31-3.18zM88 179.55a8.22 8.22.0 1 1 8.22-8.22A8.22 8.22.0 0 1 88 179.55z" style="fill:#90caf9;stroke:#263238;stroke-linecap:round;stroke-linejoin:round;transform-origin:88.0098px 171.33px 0" id="el99j0ao55ch" class="animable"/><path d="M131.47 190.73v-4.84l-3.63-.32a9.81 9.81.0 0 0-.89-2.17l2.34-2.78-3.43-3.42-2.78 2.34a10.34 10.34.0 0 0-2.17-.9L120.6 175h-4.84l-.32 3.63a10.34 10.34.0 0 0-2.17.9l-2.78-2.34-3.43 3.42 2.35 2.78a9.38 9.38.0 0 0-.9 2.17l-3.63.32v4.84l3.63.31a9.2 9.2.0 0 0 .9 2.17L107.06 196l3.43 3.42 2.78-2.34a10.34 10.34.0 0 0 2.17.9l.32 3.62h4.84l.31-3.62a10.34 10.34.0 0 0 2.17-.9l2.78 2.34 3.43-3.42L127 193.21a9.61 9.61.0 0 0 .89-2.17zm-13.29 3.2a5.63 5.63.0 1 1 5.62-5.62A5.63 5.63.0 0 1 118.18 193.93z" style="fill:#90caf9;stroke:#263238;stroke-linecap:round;stroke-linejoin:round;transform-origin:118.174px 188.301px 0" id="elfbmat1ucjom" class="animable"/><path d="M255.64 284.14H294.37z" style="fill:none;stroke:#263238;stroke-linecap:round;stroke-linejoin:round;stroke-width:2px;transform-origin:275.005px 284.14px 0" id="elg4uymirj86w" class="animable"/><path d="M255.64 290.35H294.37z" style="fill:none;stroke:#263238;stroke-linecap:round;stroke-linejoin:round;stroke-width:2px;transform-origin:275.005px 290.35px 0" id="ellr6iko94efb" class="animable"/><path d="M255.64 296.67H277.72z" style="fill:none;stroke:#263238;stroke-linecap:round;stroke-linejoin:round;stroke-width:2px;transform-origin:266.68px 296.67px 0" id="elt0oz54l67s" class="animable"/><path d="M204.61 299.25H184.22a5 5 0 0 1-5-5h0a5 5 0 0 1 5-5h20.39a5 5 0 0 1 5 5h0a5 5 0 0 1-5 5z" style="fill:#90caf9;stroke:#263238;stroke-linecap:round;stroke-linejoin:round;transform-origin:194.414px 294.25px 0" id="el1zc5xvupjtt" class="animable"/><path d="M242.61 299.25H222.22a5 5 0 0 1-5-5h0a5 5 0 0 1 5-5h20.39a5 5 0 0 1 5 5h0a5 5 0 0 1-5 5z" style="fill:#90caf9;stroke:#263238;stroke-linecap:round;stroke-linejoin:round;transform-origin:232.414px 294.25px 0" id="elpdmu2qcdgan" class="animable"/><path d="M258.47 191.97h43.24v43.24H258.47z" style="fill:#fff;stroke:#263238;stroke-linecap:round;stroke-linejoin:round;transform-origin:280.09px 213.59px 0" id="elprbps1jfjgc" class="animable"/><path d="M258.47 191.97 301.71 235.21z" style="fill:#fff;stroke:#263238;stroke-linecap:round;stroke-linejoin:round;transform-origin:280.09px 213.59px 0" id="elxfl1b7f06jm" class="animable"/><path d="M301.71 191.97 258.47 235.21z" style="fill:#fff;stroke:#263238;stroke-linecap:round;stroke-linejoin:round;transform-origin:280.09px 213.59px 0" id="elotlf2or5z2" class="animable"/><path d="M275.43 142.88V152.97L270.98 157.42H260.89V142.88H275.43z" style="fill:#fff;stroke:#263238;stroke-linecap:round;stroke-linejoin:round;transform-origin:268.16px 150.15px 0" id="elqw9cbabms9h" class="animable"/><path d="M275.43 152.97 270.98 157.42V152.97H275.43z" style="fill:#fff;stroke:#263238;stroke-linecap:round;stroke-linejoin:round;transform-origin:273.205px 155.195px 0" id="elnma8w3iicqo" class="animable"/><path d="M120.8 220.91V231L116.35 235.46H106.26V220.91H120.8z" style="fill:#fff;stroke:#263238;stroke-linecap:round;stroke-linejoin:round;transform-origin:113.53px 228.185px 0" id="elt8324l7fral" class="animable"/><path d="M120.8 231 116.35 235.46V231H120.8z" style="fill:#fff;stroke:#263238;stroke-linecap:round;stroke-linejoin:round;transform-origin:118.575px 233.23px 0" id="el4f0rzrdagwg" class="animable"/><path d="M65.86 283.08V293.17L61.41 297.62H51.31V283.08H65.86z" style="fill:#fff;stroke:#263238;stroke-linecap:round;stroke-linejoin:round;transform-origin:58.585px 290.35px 0" id="elrgardv60c4p" class="animable"/><path d="M65.86 293.17 61.41 297.62V293.17H65.86z" style="fill:#fff;stroke:#263238;stroke-linecap:round;stroke-linejoin:round;transform-origin:63.635px 295.395px 0" id="elebkw5yzic2f" class="animable"/></g><g id="jvn--Screens--inject-58" style="transform-origin:220.935px 250.75px 0" class="animable"><path d="M295.01 166.28h53.66v33.63H295.01z" style="fill:#263238;stroke:#263238;stroke-linecap:round;stroke-linejoin:round;transform-origin:321.84px 183.095px 0" id="elbplqsx4uxrv" class="animable"/><path d="M295.01 166.28h53.66v5.11H295.01z" style="fill:#90caf9;stroke:#263238;stroke-linecap:round;stroke-linejoin:round;transform-origin:321.84px 168.835px 0" id="elkpy6xompny" class="animable"/><path d="M300.48 175.7H314.2z" style="fill:none;stroke:#fff;stroke-linecap:round;stroke-linejoin:round;transform-origin:307.34px 175.7px 0" id="elwq0ssfwnye" class="animable"/><path d="M307.34 179.53H331.08z" style="fill:none;stroke:#fff;stroke-linecap:round;stroke-linejoin:round;transform-origin:319.21px 179.53px 0" id="el3afaifh4rv" class="animable"/><path d="M304.31 183.1H311.3z" style="fill:none;stroke:#fff;stroke-linecap:round;stroke-linejoin:round;transform-origin:307.805px 183.1px 0" id="elwoj6kqsp5zl" class="animable"/><path d="M307.34 187.31H323.33z" style="fill:none;stroke:#fff;stroke-linecap:round;stroke-linejoin:round;transform-origin:315.335px 187.31px 0" id="el0rbhlrviucgr" class="animable"/><path d="M300.48 191.13H314.2z" style="fill:none;stroke:#fff;stroke-linecap:round;stroke-linejoin:round;transform-origin:307.34px 191.13px 0" id="el2ozyngsznke" class="animable"/><path d="M93.2 301.59h53.66v33.63H93.2z" style="fill:#263238;stroke:#263238;stroke-linecap:round;stroke-linejoin:round;transform-origin:120.03px 318.405px 0" id="elqmqh5z6zw7" class="animable"/><path d="M93.2 301.59h53.66v5.11H93.2z" style="fill:#90caf9;stroke:#263238;stroke-linecap:round;stroke-linejoin:round;transform-origin:120.03px 304.145px 0" id="elzty8mrb6v6m" class="animable"/><path d="M98.68 311.02H112.39z" style="fill:none;stroke:#fff;stroke-linecap:round;stroke-linejoin:round;transform-origin:105.535px 311.02px 0" id="elj5uq5uatjgk" class="animable"/><path d="M105.53 314.84H129.27z" style="fill:none;stroke:#fff;stroke-linecap:round;stroke-linejoin:round;transform-origin:117.4px 314.84px 0" id="el5vuwdrbtfyv" class="animable"/><path d="M102.5 318.41H109.49z" style="fill:none;stroke:#fff;stroke-linecap:round;stroke-linejoin:round;transform-origin:105.995px 318.41px 0" id="eld23lcpx4usm" class="animable"/><path d="M105.53 322.62H121.52z" style="fill:none;stroke:#fff;stroke-linecap:round;stroke-linejoin:round;transform-origin:113.525px 322.62px 0" id="elohb9kk5aaaj" class="animable"/><path d="M98.68 326.45H112.39z" style="fill:none;stroke:#fff;stroke-linecap:round;stroke-linejoin:round;transform-origin:105.535px 326.45px 0" id="el8353lugmrv5" class="animable"/></g><g id="jvn--speech-bubble--inject-58" style="transform-origin:142.35px 76.1758px 0" class="animable animator-active"><path d="M167 58h-49.3a2.19 2.19.0 0 0-2.18 2.18v23a2.18 2.18.0 0 0 2.18 2.17H139.8l2.52 9 2.53-9H167a2.18 2.18.0 0 0 2.18-2.17v-23A2.19 2.19.0 0 0 167 58z" style="fill:#90caf9;stroke:#263238;stroke-linecap:round;stroke-linejoin:round;transform-origin:142.35px 76.1758px 0" id="elxvq49x5wzh" class="animable"/><path d="M123.7 64.58H160.95z" style="fill:none;stroke:#263238;stroke-linecap:round;stroke-linejoin:round;stroke-width:2px;transform-origin:142.325px 64.58px 0" id="elncopwse0icd" class="animable"/><path d="M123.7 69.3H160.95z" style="fill:none;stroke:#263238;stroke-linecap:round;stroke-linejoin:round;stroke-width:2px;transform-origin:142.325px 69.3px 0" id="elk2hp8pyk5r" class="animable"/><path d="M123.7 74.02H160.95z" style="fill:none;stroke:#263238;stroke-linecap:round;stroke-linejoin:round;stroke-width:2px;transform-origin:142.325px 74.02px 0" id="elhpe588otokg" class="animable"/><path d="M123.7 78.74H151.77z" style="fill:none;stroke:#263238;stroke-linecap:round;stroke-linejoin:round;stroke-width:2px;transform-origin:137.735px 78.74px 0" id="el5kcg6wyms12" class="animable"/></g><g id="jvn--Character--inject-58" style="transform-origin:276.488px 293.534px 0" class="animable"><path d="M247.87 221.58c-5.29.45-12-5.87-12-5.87a1.19 1.19.0 0 1-1.89-.24c-.86-1.24-4.59-4.11-4.8-6.59s4.19-6.5 4.19-6.5c-3.39.92-3.75-1.07-3.75-1.07s5.71-4.71 7.71-4.84c.78-.05 4.18 1.91 7.47 4.55 3.44 2.77 9.9 12.52 9.9 12.52s21.85 15.87 27.37 19.93c7.29 5.36 15.93 14.87 15.93 14.87s29 13.08 37 20.27l-10.82 25.62s-26.37-17.67-29-22.15-5.27-1.79-7.91-4.72-5.17-6.28-5.17-6.28A44.58 44.58.0 0 1 269.51 252c-6.16-6.33-11.59-16-15-21.82A36 36 0 0 0 247.87 221.58z" style="fill:#fff;stroke:#263238;stroke-linecap:round;stroke-linejoin:round;transform-origin:282.086px 245.35px 0" id="elfca4l8ua8" class="animable"/><path d="M249.48 217.84s-7.87-1.91-8.55-7.1a9.55 9.55.0 0 0-1.69-3.63s-7.34-.36-6.88-3.35l9.8-.87a17.06 17.06.0 0 1 8.53 7.18" style="fill:#fff;stroke:#263238;stroke-linecap:round;stroke-linejoin:round;transform-origin:241.516px 210.365px 0" id="elgr7tff9r3oc" class="animable"/><path d="M235.86 215.71a3.22 3.22.0 0 0 .33-2.12s2.16-.4 1.92-2.31c0 0 3.2-.39 1.13-4.17" style="fill:none;stroke:#263238;stroke-linecap:round;stroke-linejoin:round;transform-origin:237.898px 211.41px 0" id="elkj1skrt8af" class="animable"/><path d="M238.11 211.28s-4.31-3.19-4.79-4.65" style="fill:none;stroke:#263238;stroke-linecap:round;stroke-linejoin:round;transform-origin:235.715px 208.955px 0" id="elhj3i3wufc2j" class="animable"/><path d="M236.19 213.59s-4.59-2.8-4.67-4.43" style="fill:none;stroke:#263238;stroke-linecap:round;stroke-linejoin:round;transform-origin:233.855px 211.375px 0" id="elhd6ct4f2frh" class="animable"/><path d="M237.24 199.21s-1.46 2.62-3.88 3.17" style="fill:none;stroke:#263238;stroke-linecap:round;stroke-linejoin:round;transform-origin:235.299px 200.795px 0" id="elxu9lwidsvz" class="animable"/><path d="M236.51 200.23a12.55 12.55.0 0 1 2.16 1.43" style="fill:none;stroke:#263238;stroke-linecap:round;stroke-linejoin:round;transform-origin:237.592px 200.945px 0" id="elq5wkoch70b" class="animable"/><path d="M404.12 288.8a236.19 236.19.0 0 0-34.91-11.66c-17.56-4.11-46-7.78-46-7.78s7.82 79.8 5.76 84.6-14.42 20.92-14.42 20.92 66.89 26.08 78.55 28.3 5.58-38.25 5.58-38.25S411 313.49 404.12 288.8z" style="fill:#263238;transform-origin:360.381px 336.314px 0" id="elnx88db8qi7l" class="animable"/><path d="M380.11 280.23s1.59 3-2.59 4.57c-10.83 4-22.37.47-21.14-3.77.47-1.62 3.15.0 3-6a7.37 7.37.0 0 0-.73-2.66 27.47 27.47.0 0 0-2.75-4.61 57.26 57.26.0 0 0-3.71-4.63s17.19-11 29.94.0C382.11 263.08 377.37 265.48 380.11 280.23z" style="fill:#fff;stroke:#263238;stroke-linecap:round;stroke-linejoin:round;transform-origin:367.16px 272.396px 0" id="el9gzyhac834" class="animable"/><path d="M401.41 422.36c-6.77 11-41.12 16.21-59.87 15.72s-72.7-26-76.36-31.44c-3.39-5-11.72-21.57 1.12-31.58a24.88 24.88.0 0 1 3.46-2.24c8.79-4.76 67.25 10.25 67.25 10.25s3.62-2.29 4.95-2.12c4.08.52 7 3.82 15.24 6.17 5.77 1.65 21.52-4.69 31.58.76a13.88 13.88.0 0 1 3.06 2.22C401.24 399.08 408.17 411.33 401.41 422.36z" style="fill:#90caf9;transform-origin:331.75px 404.998px 0" id="el5unvqdyss7" class="animable"/><g style='clip-path:url("#jvn--clip-path--inject-58");transform-origin:327.541px 393.418px 0' id="el7whv32zudzp" class="animable"><g id="el3o79s3ci9dt"><path d="M388.78 387.88c-10.31-.69-19.5 1.47-25.92 5.26-7.61 4.5-43.55 21.81-43.55 21.81.08-1.86 2.08-5.61 2.08-5.61-3.38-3-12.22-5.35-12.22-5.35-6.85-5.85-34-23.3-42.87-28.93a24.88 24.88.0 0 1 3.46-2.24c8.79-4.76 67.25 10.25 67.25 10.25s3.62-2.29 4.95-2.12c4.08.52 7 3.82 15.24 6.17C363 388.77 378.72 382.43 388.78 387.88z" style="fill-opacity:.7;opacity:.3;transform-origin:327.541px 393.418px 0" class="animable"/></g></g><path d="M401.41 422.36c-6.77 11-41.12 16.21-59.87 15.72s-72.7-26-76.36-31.44c-3.39-5-11.72-21.57 1.12-31.58a24.88 24.88.0 0 1 3.46-2.24c8.79-4.76 67.25 10.25 67.25 10.25s3.62-2.29 4.95-2.12c4.08.52 7 3.82 15.24 6.17 5.77 1.65 21.52-4.69 31.58.76a13.88 13.88.0 0 1 3.06 2.22C401.24 399.08 408.17 411.33 401.41 422.36z" style="fill:none;stroke:#263238;stroke-linecap:round;stroke-linejoin:round;transform-origin:331.75px 404.998px 0" id="elsfe7b81icx" class="animable"/><path d="M390.87 432.32l.86 3.77s-2.3 6.52-12.41 7.59-16.1 3.3-21 3.59a40.82 40.82.0 0 1-7.69-.12l-1-1.48z" style="fill:#fff;stroke:#263238;stroke-linecap:round;stroke-linejoin:round;transform-origin:370.68px 439.859px 0" id="elhqp0ucmxoy" class="animable"/><path d="M332.16 431.92l17.52 13.75a200.72 200.72.0 0 0 25.12-3.76h0c8.3-1.92 15.55-4.67 15.94-8.45.61-5.74-5.53-7.31-12.82-7.09-1.36.0-2.76.14-4.17.28-11.67 1.25-26.51-5.19-26.51-5.19z" style="fill:#263238;transform-origin:361.471px 433.566px 0" id="elrbnr8vq1kxi" class="animable"/><g style='clip-path:url("#jvn--clip-path-2--inject-58");transform-origin:361.469px 431.607px 0' id="elhd3mjsngx7" class="animable"><g id="elob12tsvgqw"><path d="M390.75 433.32a53.46 53.46.0 0 0-9.74 4.8s-16.27 8.37-41.28-.25l-7.57-5.95 15.08-10.47s14.83 6.45 26.51 5.19c1.41-.15 2.81-.25 4.17-.28C385.16 426.14 391.25 427.68 390.75 433.32z" style="fill-opacity:.7;opacity:.3;transform-origin:361.469px 431.607px 0" class="animable"/></g></g><path d="M332.16 431.92l17.52 13.75a200.72 200.72.0 0 0 25.12-3.76h0c8.3-1.92 15.55-4.67 15.94-8.45.61-5.74-5.53-7.31-12.82-7.09-1.36.0-2.76.14-4.17.28-11.67 1.25-26.51-5.19-26.51-5.19z" style="fill:none;stroke:#263238;stroke-linecap:round;stroke-linejoin:round;transform-origin:361.471px 433.566px 0" id="el25rtxr2ko0h" class="animable"/><path d="M348.49 437.34c-3.16.51.31 7 4.59 5S351.65 436.82 348.49 437.34z" style="fill:#fff;transform-origin:350.939px 440.006px 0" id="el9vsy3kyak2l" class="animable"/><g style='clip-path:url("#jvn--clip-path-3--inject-58");transform-origin:350.943px 439.299px 0' id="elg9k20fktmhs" class="animable"><g id="el7yv3r2y4d8f"><path d="M354.42 441.31a66.94 66.94.0 0 1-6.81-1.19c-.6-1.27-.46-2.57.88-2.78C351.14 436.9 355.6 439.35 354.42 441.31z" style="fill-opacity:.7;opacity:.2;transform-origin:350.943px 439.299px 0" class="animable"/></g></g><path d="M348.49 437.34c-3.16.51.31 7 4.59 5S351.65 436.82 348.49 437.34z" style="fill:none;stroke:#263238;stroke-linecap:round;stroke-linejoin:round;transform-origin:350.939px 440.006px 0" id="elnudygnevqm" class="animable"/><path d="M374.8 441.9c8.3-1.92 15.55-4.67 15.94-8.45.61-5.74-5.53-7.31-12.82-7.09C377.6 426.67 370.53 433.5 374.8 441.9z" style="fill:#fff;transform-origin:382.107px 434.119px 0" id="ell1tbdswi3j" class="animable"/><g style='clip-path:url("#jvn--clip-path-4--inject-58");transform-origin:382.109px 433.375px 0' id="ell4u6xe8esr" class="animable"><g id="elt59ssh5h29q"><path d="M390.75 433.32a53.46 53.46.0 0 0-9.74 4.8 32.78 32.78.0 0 1-6.85 2.29c-2.8-7.7 3.46-13.76 3.76-14.05C385.16 426.14 391.25 427.68 390.75 433.32z" style="fill-opacity:.7;opacity:.3;transform-origin:382.109px 433.375px 0" class="animable"/></g></g><path d="M374.8 441.9c8.3-1.92 15.55-4.67 15.94-8.45.61-5.74-5.53-7.31-12.82-7.09C377.6 426.67 370.53 433.5 374.8 441.9z" style="fill:none;stroke:#263238;stroke-linecap:round;stroke-linejoin:round;transform-origin:382.107px 434.119px 0" id="el5wp67tilagg" class="animable"/><path d="M368.88 434.77h.05a.86.86.0 0 0 .9-.83 11.78 11.78.0 0 1 3-6.59.86.86.0 0 0 0-1.22.87.87.0 0 0-1.22.0 13.36 13.36.0 0 0-3.47 7.71A.86.86.0 0 0 368.88 434.77z" style="fill:#fff;stroke:#263238;stroke-linecap:round;stroke-linejoin:round;transform-origin:370.609px 430.324px 0" id="ell78iz9h2tns" class="animable"/><path d="M365.41 435h.07a.86.86.0 0 0 .88-.85 12.84 12.84.0 0 1 2.66-6.86.87.87.0 1 0-1.34-1.1 14.48 14.48.0 0 0-3.05 7.92A.86.86.0 0 0 365.41 435z" style="fill:#fff;stroke:#263238;stroke-linecap:round;stroke-linejoin:round;transform-origin:366.947px 430.406px 0" id="elyvtsx5wz3u9" class="animable"/><path d="M361.26 434.54h0a.86.86.0 0 0 .94-.78c.27-3 2.85-6.93 2.88-7a.88.88.0 0 0-.24-1.21.87.87.0 0 0-1.2.24c-.12.17-2.86 4.29-3.17 7.77A.87.87.0 0 0 361.26 434.54z" style="fill:#fff;stroke:#263238;stroke-linecap:round;stroke-linejoin:round;transform-origin:362.842px 429.975px 0" id="elkx7tcuyfaod" class="animable"/><path d="M357.34 434.13a.91.91.0 0 0 .23.0.86.86.0 0 0 .71-1c-.61-3.68 2.81-6.83 2.84-6.86A.87.87.0 0 0 360 425c-.17.15-4.16 3.81-3.39 8.44A.88.88.0 0 0 357.34 434.13z" style="fill:#fff;stroke:#263238;stroke-linecap:round;stroke-linejoin:round;transform-origin:358.895px 429.518px 0" id="elc9qyl78q6b9" class="animable"/><path d="M353.08 433.1a.88.88.0 0 0 .28.0.87.87.0 0 0 .65-1c-.75-3.28 2.48-7 2.52-7a.87.87.0 0 0-.08-1.22.86.86.0 0 0-1.22.07c-.16.18-3.86 4.41-2.91 8.57A.86.86.0 0 0 353.08 433.1z" style="fill:#fff;stroke:#263238;stroke-linecap:round;stroke-linejoin:round;transform-origin:354.453px 428.385px 0" id="eliligsft459n" class="animable"/><path d="M263 426.68l-1.25 3.66s1.6 6.73 11.54 8.85 15.66 5 20.46 5.78a41.19 41.19.0 0 0 7.66.68l1.15-1.37z" style="fill:#fff;stroke:#263238;stroke-linecap:round;stroke-linejoin:round;transform-origin:282.154px 436.164px 0" id="elwlchen1q4k9" class="animable"/><path d="M321.39 432.45l-18.86 11.83a201.2 201.2.0 0 1-24.59-6.37h0c-8.05-2.78-15-6.28-15-10.08.0-5.78 6.27-6.69 13.5-5.71 1.35.18 2.73.43 4.12.72 11.47 2.47 26.9-2.38 26.9-2.38z" style="fill:#263238;transform-origin:292.166px 432.371px 0" id="elzpjmew0lsj" class="animable"/><g style='clip-path:url("#jvn--clip-path-5--inject-58");transform-origin:304.576px 429.969px 0' id="elsccmjk209x" class="animable"><g id="elwbemoy9re8f"><path d="M321.39 432.45l-11.09 7a44.86 44.86.0 0 1-22.54-15.87 75.09 75.09.0 0 0 19.73-3.09z" style="fill-opacity:.7;opacity:.3;transform-origin:304.576px 429.969px 0" class="animable"/></g></g><path d="M321.39 432.45l-18.86 11.83a201.2 201.2.0 0 1-24.59-6.37h0c-8.05-2.78-15-6.28-15-10.08.0-5.78 6.27-6.69 13.5-5.71 1.35.18 2.73.43 4.12.72 11.47 2.47 26.9-2.38 26.9-2.38z" style="fill:none;stroke:#263238;stroke-linecap:round;stroke-linejoin:round;transform-origin:292.166px 432.371px 0" id="eltngk48e4qbg" class="animable"/><path d="M277.94 437.9c-8.05-2.78-15-6.28-15-10.08.0-5.78 6.27-6.69 13.5-5.71C276.76 422.45 283.07 430 277.94 437.9z" style="fill:#fff;stroke:#263238;stroke-linecap:round;stroke-linejoin:round;transform-origin:271.441px 429.834px 0" id="elia95ptsh1d8" class="animable"/><path d="M284.58 431.43h-.05a.88.88.0 0 1-.82-.92 11.73 11.73.0 0 0-2.27-6.86.87.87.0 1 1 1.36-1.07 13.27 13.27.0 0 1 2.64 8A.86.86.0 0 1 284.58 431.43z" style="fill:#fff;stroke:#263238;stroke-linecap:round;stroke-linejoin:round;transform-origin:283.318px 426.803px 0" id="elsft3gh8poel" class="animable"/><path d="M288 432h-.08a.87.87.0 0 1-.79-.94 12.77 12.77.0 0 0-1.91-7.09.87.87.0 1 1 1.44-1 14.33 14.33.0 0 1 2.2 8.2A.87.87.0 0 1 288 432z" style="fill:#fff;stroke:#263238;stroke-linecap:round;stroke-linejoin:round;transform-origin:286.967px 427.297px 0" id="ell0re0yi0ms" class="animable"/><path d="M292.18 432h0a.88.88.0 0 1-.86-.88c.06-3.05-2.1-7.18-2.13-7.22a.88.88.0 0 1 .37-1.18.87.87.0 0 1 1.17.37c.1.18 2.39 4.56 2.33 8.06A.87.87.0 0 1 292.18 432z" style="fill:#fff;stroke:#263238;stroke-linecap:round;stroke-linejoin:round;transform-origin:291.076px 427.311px 0" id="eliaeuik9lcfq" class="animable"/><path d="M296.12 432h-.23a.87.87.0 0 1-.6-1.07c1-3.59-2.07-7.09-2.1-7.12a.87.87.0 1 1 1.29-1.16c.15.17 3.74 4.23 2.48 8.75A.88.88.0 0 1 296.12 432z" style="fill:#fff;stroke:#263238;stroke-linecap:round;stroke-linejoin:round;transform-origin:295.074px 427.154px 0" id="elovnhh38v4l" class="animable"/><path d="M300.47 431.43a.66.66.0 0 1-.28-.05.85.85.0 0 1-.54-1.1c1.09-3.18-1.74-7.21-1.76-7.25a.87.87.0 1 1 1.41-1c.14.19 3.37 4.79 2 8.83A.88.88.0 0 1 300.47 431.43z" style="fill:#fff;stroke:#263238;stroke-linecap:round;stroke-linejoin:round;transform-origin:299.654px 426.506px 0" id="elp5wbi8ml5f" class="animable"/><path d="M304.58 436.12c3.09.85-1 6.9-5.09 4.5S301.5 435.28 304.58 436.12z" style="fill:#fff;stroke:#263238;stroke-linecap:round;stroke-linejoin:round;transform-origin:301.893px 438.576px 0" id="elvvnea6rfb8k" class="animable"/><path d="M268.92 404c4.63 6.49 18.36 13.66 32 19.57a64.23 64.23.0 0 0 8.58 11.21c8.42 8.66 11.85 3.81 11.85 3.81s5.32-.6 13.17-1.67a3.75 3.75.0 0 0 4 2.23c1-.16 3-1.62 5.21-3.55 19.83-3 46.74-8 54-13.82" style="fill:#90caf9;stroke:#263238;stroke-linecap:round;stroke-linejoin:round;transform-origin:333.326px 421.973px 0" id="els20buwjnu8" class="animable"/><path d="M390 391.64c-3.43-3.77-6.86-3.94-14.06-3.43.0.0-18.79 6-31.9 13.89s-32.23 16.26-32.23 16.26-5.83-1.69-9.89.0c0 0-2.85.22-.94 5.2" style="fill:none;stroke:#263238;stroke-linecap:round;stroke-linejoin:round;transform-origin:345.16px 405.779px 0" id="eljx3zvdnf3rh" class="animable"/><path d="M398.72 414.17s.1 5.81-8.14 9.83" style="fill:none;stroke:#263238;stroke-linecap:round;stroke-linejoin:round;transform-origin:394.648px 419.086px 0" id="el9ypi5qhu6nu" class="animable"/><path d="M307.84 389.93s13 9.4 15.61 15.6a53.53 53.53.0 0 1 7.38 3.81" style="fill:none;stroke:#263238;stroke-linecap:round;stroke-linejoin:round;transform-origin:319.334px 399.635px 0" id="elzahn75qkjt" class="animable"/><path d="M324.39 397.74a15 15 0 0 1 .46 8.41" style="fill:none;stroke:#263238;stroke-linecap:round;stroke-linejoin:round;transform-origin:324.818px 401.943px 0" id="eltqq8f7ddy8" class="animable"/><path d="M321.39 391.64a22.74 22.74.0 0 1 1.86 3.25" style="fill:none;stroke:#263238;stroke-linecap:round;stroke-linejoin:round;transform-origin:322.32px 393.266px 0" id="el1bn840yvrzm" class="animable"/><path d="M339.91 390.78s4.35 5.82 5.43 10.54" style="fill:none;stroke:#263238;stroke-linecap:round;stroke-linejoin:round;transform-origin:342.625px 396.051px 0" id="elqtaz7dvv1r" class="animable"/><path d="M364.14 425.94a37.33 37.33.0 0 0 4.82-.6" style="fill:none;stroke:#263238;stroke-linecap:round;stroke-linejoin:round;transform-origin:366.551px 425.641px 0" id="elcz8bmoibs97" class="animable"/><path d="M323.33 421.77a231.67 231.67.0 0 0 37.39 4.29" style="fill:none;stroke:#263238;stroke-linecap:round;stroke-linejoin:round;transform-origin:342.023px 423.914px 0" id="elndiu25b1vb" class="animable"/><path d="M411.32 333.59s-2.35 41-5.12 43.35-7.14 3.08-15.41 3.77-44.85 2.93-44.85 2.93L342 371.89s19.45-2 28.08-5.15A144.73 144.73.0 0 1 390 361.48s-1.64-10.31-1.64-14.75V325.85" style="fill:#fff;stroke:#263238;stroke-linecap:round;stroke-linejoin:round;transform-origin:376.66px 354.746px 0" id="el3vex7bjm8ui" class="animable"/><path d="M404.12 288.8c8.91 5.49 11.54 18.18 8.46 45.27.0.0 2.63 3.2-1.26 4.8.0.0-14.57-5.45-21.34-1.69s-5-5.19-5-5.19-2.79-24.92 3.38-29.43" style="fill:#263238;transform-origin:399.084px 313.836px 0" id="elsrtfnfpf81" class="animable"/><path d="M387.54 298.75s-8.57 8.91-1 31.43a36.74 36.74.0 0 0-1 5.6c0 1.51 2.07 2.29 2.07 2.29" style="fill:none;stroke:#fff;stroke-linecap:round;stroke-linejoin:round;transform-origin:385.512px 318.41px 0" id="elpynlep6pbuk" class="animable"/><path d="M377.52 313.84s.62 11 7.44 15.77" style="fill:none;stroke:#fff;stroke-linecap:round;stroke-linejoin:round;transform-origin:381.24px 321.725px 0" id="elmw4sbo0ebx" class="animable"/><path d="M379.72 288.3s-13.29 5.09-23.86-.55c-6.27-3.34-3.69-8.71-3.69-8.71" style="fill:none;stroke:#fff;stroke-linecap:round;stroke-linejoin:round;transform-origin:365.682px 284.723px 0" id="elpkpbxae2dqp" class="animable"/><path d="M284.15 391.66h72.34a18.85 18.85.0 0 0 4.84-.63l14.27-3.74a.92.92.0 0 0 .69-.89h0a.93.93.0 0 0-.93-.93h-94.2a.93.93.0 0 0-.92.93v1.35A3.91 3.91.0 0 0 284.15 391.66z" style="fill:#757575;stroke:#263238;stroke-linecap:round;stroke-linejoin:round;transform-origin:328.264px 388.564px 0" id="elec2iyjhziib" class="animable"/><path d="M277 388.06h72.54a1.72 1.72.0 0 0 1.69-2.32l-13.45-52.33a3.2 3.2.0 0 0-2.9-2.33H262.32a1.73 1.73.0 0 0-1.69 2.33l13.46 52.33A3.18 3.18.0 0 0 277 388.06z" style="fill:#999;stroke:#263238;stroke-linecap:round;stroke-linejoin:round;transform-origin:305.932px 359.568px 0" id="el5ye7t1n89z" class="animable"/><path d="M264.88 332.94H263.51z" style="fill:none;stroke:#263238;stroke-linecap:round;stroke-linejoin:round;transform-origin:264.195px 332.94px 0" id="eloakop9c4lf" class="animable"/><path d="M275.51 332.94H268.43z" style="fill:none;stroke:#263238;stroke-linecap:round;stroke-linejoin:round;transform-origin:271.97px 332.94px 0" id="elx9q7v7ma4fo" class="animable"/><path d="M347.78 381.45 335.9 335.27a3.19 3.19.0 0 0-2.89-2.33h-55.9" style="fill:none;stroke:#263238;stroke-linecap:round;stroke-linejoin:round;transform-origin:312.445px 357.195px 0" id="eljrsizleg95k" class="animable"/><path d="M348.81 385.47 348.51 384.32z" style="fill:none;stroke:#263238;stroke-linecap:round;stroke-linejoin:round;transform-origin:348.66px 384.895px 0" id="elorxbwqdhdd" class="animable"/><path d="M298.81 360.89a7.14 7.14.0 0 0 .26 1.25c.92 3.15 3.87 5.07 6.58 4.27s4.16-4 3.24-7.15-3.89-5.07-6.6-4.27a4.62 4.62.0 0 0-.91.39A5.59 5.59.0 0 1 298.81 360.89z" style="fill:#fff;stroke:#263238;stroke-linecap:round;stroke-linejoin:round;transform-origin:303.988px 360.701px 0" id="elt8h1rbbdg8o" class="animable"/><path d="M330.83 262.82c-6.28-.68-9.7-6.65-13.48-7.58a41.65 41.65.0 0 1-6.18-2s-1.3-4.54-3.25-3-4.51 35.5-2 34.43 2.52 2.94 2.52 2.94l23.31 20.54 19.54-34.6S337.11 263.51 330.83 262.82z" style="fill:#263238;transform-origin:328.084px 279.033px 0" id="elcfrtuzmxcu6" class="animable"/><path d="M140.88 141.89v-.5h.5" style="fill:none;stroke:#263238;stroke-linecap:round;stroke-linejoin:round;transform-origin:141.13px 141.64px 0" id="elpk3uuifxb" class="animable"/><path d="M144.32 141.39h84.6z" style="fill:none;stroke:#263238;stroke-linecap:round;stroke-linejoin:round;stroke-dasharray:.978022px,2.93407px;transform-origin:186.62px 141.39px 0" id="el1qvj81cipg7" class="animable"/><path d="M230.38 141.39h.5v.5" style="fill:none;stroke:#263238;stroke-linecap:round;stroke-linejoin:round;transform-origin:230.63px 141.64px 0" id="eluleri8vy3sg" class="animable"/><path d="M230.89 144.89v54.5z" style="fill:none;stroke:#263238;stroke-linecap:round;stroke-linejoin:round;stroke-dasharray:1px,3px;transform-origin:230.89px 172.14px 0" id="eleoxa0nwezc8" class="animable"/><path d="M230.88 200.89v.5h-.5" style="fill:none;stroke:#263238;stroke-linecap:round;stroke-linejoin:round;transform-origin:230.63px 201.14px 0" id="el5l6q9kbpnt6" class="animable"/><path d="M227.45 201.39h-84.6z" style="fill:none;stroke:#263238;stroke-linecap:round;stroke-linejoin:round;stroke-dasharray:.978022px,2.93407px;transform-origin:185.15px 201.39px 0" id="elg6y6gg86zy7" class="animable"/><path d="M141.38 201.39h-.5v-.5" style="fill:none;stroke:#263238;stroke-linecap:round;stroke-linejoin:round;transform-origin:141.13px 201.14px 0" id="elgtdyeaa143f" class="animable"/><path d="M140.89 197.89v-54.5z" style="fill:none;stroke:#263238;stroke-linecap:round;stroke-linejoin:round;stroke-dasharray:1px,3px;transform-origin:140.89px 170.64px 0" id="el8fiv7075ion" class="animable"/><circle cx="185.89" cy="141.39" r="1.48" style="fill:#90caf9;stroke:#263238;stroke-linecap:round;stroke-linejoin:round;transform-origin:185.89px 141.39px 0" id="el6memspc8u37" class="animable"/><circle cx="140.89" cy="171.39" r="1.48" style="fill:#90caf9;stroke:#263238;stroke-linecap:round;stroke-linejoin:round;transform-origin:140.89px 171.39px 0" id="eltr9yr94gyj9" class="animable"/><circle cx="185.89" cy="201.39" r="1.48" style="fill:#90caf9;stroke:#263238;stroke-linecap:round;stroke-linejoin:round;transform-origin:185.89px 201.39px 0" id="el2qs7aw8ju06" class="animable"/><circle cx="230.89" cy="171.39" r="1.48" style="fill:#90caf9;stroke:#263238;stroke-linecap:round;stroke-linejoin:round;transform-origin:230.89px 171.39px 0" id="elyaiyp9ymkea" class="animable"/><path d="M229.16 199.67h3.45v3.45H229.16z" style="fill:#90caf9;stroke:#263238;stroke-linecap:round;stroke-linejoin:round;transform-origin:230.885px 201.395px 0" id="ela6hgy3bzk3k" class="animable"/><path d="M229.16 139.67h3.45v3.45H229.16z" style="fill:#90caf9;stroke:#263238;stroke-linecap:round;stroke-linejoin:round;transform-origin:230.885px 141.395px 0" id="elc736knj7d7" class="animable"/><path d="M139.16 199.67h3.45v3.45H139.16z" style="fill:#90caf9;stroke:#263238;stroke-linecap:round;stroke-linejoin:round;transform-origin:140.885px 201.395px 0" id="el997nuyc6q3g" class="animable"/><path d="M139.16 139.67h3.45v3.45H139.16z" style="fill:#90caf9;stroke:#263238;stroke-linecap:round;stroke-linejoin:round;transform-origin:140.885px 141.395px 0" id="elnnm3sfuq27e" class="animable"/><path d="M146.86 146.7h78.33v49.77H146.86z" style="fill:#fff;stroke:#263238;stroke-linecap:round;stroke-linejoin:round;transform-origin:186.025px 171.585px 0" id="eld5pzscw672c" class="animable"/><path d="M225.19 181.77 216.48 190.48 192.92 166.92 183.01 176.83 167.21 161.03 146.86 181.37V196.47H225.19V181.77z" style="fill:#90caf9;stroke:#263238;stroke-linecap:round;stroke-linejoin:round;transform-origin:186.025px 178.75px 0" id="elw2w584px5t" class="animable"/><circle cx="208.96" cy="160.83" r="5.53" style="fill:#90caf9;stroke:#263238;stroke-linecap:round;stroke-linejoin:round;transform-origin:208.96px 160.83px 0" id="eln2a0xizjsm" class="animable"/><path d="M335 272s-6 11.17-6.71 28.26" style="fill:none;stroke:#fff;stroke-linecap:round;stroke-linejoin:round;transform-origin:331.645px 286.131px 0" id="el3tykfstejhg" class="animable"/><path d="M317.36 279.73s1.79 9.5 7 16.38" style="fill:none;stroke:#fff;stroke-linecap:round;stroke-linejoin:round;transform-origin:320.859px 287.92px 0" id="elrq6lld323k" class="animable"/><path d="M342 318.93s9 29.56 28.55 38.26" style="fill:none;stroke:#fff;stroke-linecap:round;stroke-linejoin:round;transform-origin:356.275px 338.061px 0" id="ellexfp16c7q8" class="animable"/><path d="M365.68 265.42s-.85 6.45-7.05 6.9a27.47 27.47.0 0 0-2.75-4.61A86.58 86.58.0 0 1 365.68 265.42z" style="fill:#263238;transform-origin:360.779px 268.871px 0" id="elgk2m0sd6nfs" class="animable"/><path d="M378.89 265.87s10.37 1.27 14.71-12.65.93-24.41-16.23-29.46c-9.52-2.8-19-.55-22.47 6.66-2.94 6.17-1.55 11.3-2.22 13.37-.76 2.32-7.78 4.29-7.78 5.88.0 1.31 3.89 3.55 3.89 3.55l-1.14 3.46 1.07.57s-2 7.79-1.07 10.54c.66 2 18.23 2.84 19.6-2.14" style="fill:#fff;stroke:#263238;stroke-linecap:round;stroke-linejoin:round;transform-origin:370.104px 245.977px 0" id="eltngamajdo99" class="animable"/><path d="M355 235.47s3.43.86 4.37 2.66" style="fill:none;stroke:#263238;stroke-linecap:round;stroke-linejoin:round;transform-origin:357.186px 236.799px 0" id="elr2kpim865u" class="animable"/><path d="M355.6 243.38c-.15 1 .08 1.87.52 1.93s.9-.7 1.05-1.71-.09-1.87-.52-1.93S355.75 242.37 355.6 243.38z" style="fill:#263238;transform-origin:356.385px 243.49px 0" id="elgkns5x0nid" class="animable"/><path d="M348.72 257.25s5.58 2.14 7.66.85" style="fill:none;stroke:#263238;stroke-linecap:round;stroke-linejoin:round;transform-origin:352.549px 257.883px 0" id="elyndppxwaeuf" class="animable"/><path d="M350.68 242.58c-.41 2.24.09 4.2 1.12 4.39s2.21-1.46 2.62-3.69-.08-4.21-1.12-4.4S351.1 240.35 350.68 242.58z" style="fill:none;stroke:#263238;stroke-linecap:round;stroke-linejoin:round;transform-origin:352.551px 242.924px 0" id="elj2uex1zs7g9" class="animable"/><path d="M394.06 231.19a16.5 16.5.0 0 0-6.52-10.06A30.51 30.51.0 0 0 375 216s3.31 1.45 4.57 3.36c0 0-8.57-6.44-18.75-2.21s-8.91 15.22-8.91 15.22l1.48-2.88s-.17 3.43 1.63 4.69a22.52 22.52.0 0 1 2.19-4.8s2.7 8.11 10.13 10.86a5.9 5.9.0 0 1-.12-4s4.12 8.91 2.92 13.26l1.31 2.28s4.73-4.79 8.58-.8c2.21 2.3-4.23 11-5.15 11l3.89 5.71s9.72 1.39 15.32-9.14 4.23-15 4.23-15 1.83 2.56 2 4C400.34 247.53 402 236.22 394.06 231.19z" style="fill:#263238;transform-origin:376.168px 241.73px 0" id="elmlawjkb7v7" class="animable"/><path d="M371.19 252.79s3-10.08 9.38-6.53 1.83 8.93-.46 11-4 5.83-5.49 5.83-1.82-1.83-1.82-1.83" style="fill:#fff;stroke:#263238;stroke-linecap:round;stroke-linejoin:round;transform-origin:377.512px 254.297px 0" id="el5krxr1r49br" class="animable"/><path d="M354.42 243.28 372.22 246.97z" style="fill:none;stroke:#263238;stroke-linecap:round;stroke-linejoin:round;transform-origin:363.32px 245.125px 0" id="el2m49t6ncr4u" class="animable"/></g><defs><filter id="active" height="200%"><feMorphology in="SourceAlpha" result="DILATED" operator="dilate" radius="2"/><feFlood flood-color="#32dfec" flood-opacity="1" result="PINK"/><feComposite in="PINK" in2="DILATED" operator="in" result="OUTLINE"/><feMerge><feMergeNode in="OUTLINE"/><feMergeNode in="SourceGraphic"/></feMerge></filter><filter id="hover" height="200%"><feMorphology in="SourceAlpha" result="DILATED" operator="dilate" radius="2"/><feFlood flood-color="red" flood-opacity=".5" result="PINK"/><feComposite in="PINK" in2="DILATED" operator="in" result="OUTLINE"/><feMerge><feMergeNode in="OUTLINE"/><feMergeNode in="SourceGraphic"/></feMerge><feColorMatrix type="matrix" values="0 0 0 0 0 0 1 0 0 0 0 0 0 0 0 0 0 0 1 0"/></filter></defs><defs><clipPath id="jvn--clip-path--inject-58"><path d="M401.41 422.36c-6.77 11-41.12 16.21-59.87 15.72s-72.7-26-76.36-31.44c-3.39-5-11.72-21.57 1.12-31.58a24.88 24.88.0 0 1 3.46-2.24c8.79-4.76 67.25 10.25 67.25 10.25s3.62-2.29 4.95-2.12c4.08.52 7 3.82 15.24 6.17 5.77 1.65 21.52-4.69 31.58.76a13.88 13.88.0 0 1 3.06 2.22C401.24 399.08 408.17 411.33 401.41 422.36z" style="fill:#90caf9;stroke:#263238;stroke-linecap:round;stroke-linejoin:round"/></clipPath><clipPath id="jvn--clip-path-2--inject-58"><path d="M332.16 431.92l17.52 13.75a200.72 200.72.0 0 0 25.12-3.76h0c8.3-1.92 15.55-4.67 15.94-8.45.61-5.74-5.53-7.31-12.82-7.09-1.36.0-2.76.14-4.17.28-11.67 1.25-26.51-5.19-26.51-5.19z" style="fill:#263238;stroke:#263238;stroke-linecap:round;stroke-linejoin:round"/></clipPath><clipPath id="jvn--clip-path-3--inject-58"><path d="M348.49 437.34c-3.16.51.31 7 4.59 5S351.65 436.82 348.49 437.34z" style="fill:#fff;stroke:#263238;stroke-linecap:round;stroke-linejoin:round"/></clipPath><clipPath id="jvn--clip-path-4--inject-58"><path d="M374.8 441.9c8.3-1.92 15.55-4.67 15.94-8.45.61-5.74-5.53-7.31-12.82-7.09C377.6 426.67 370.53 433.5 374.8 441.9z" style="fill:#fff;stroke:#263238;stroke-linecap:round;stroke-linejoin:round"/></clipPath><clipPath id="jvn--clip-path-5--inject-58"><path d="M321.39 432.45l-18.86 11.83a201.2 201.2.0 0 1-24.59-6.37h0c-8.05-2.78-15-6.28-15-10.08.0-5.78 6.27-6.69 13.5-5.71 1.35.18 2.73.43 4.12.72 11.47 2.47 26.9-2.38 26.9-2.38z" style="fill:#263238;stroke:#263238;stroke-linecap:round;stroke-linejoin:round"/></clipPath></defs></svg>