<svg class="animated" id="jeevan-version-control" xmlns="http://www.w3.org/2000/svg" viewBox="0 0 500 500" xmlns:xlink="http://www.w3.org/1999/xlink" ><style>svg#jeevan-version-control:not(.animated) .animable{opacity:0}svg#jeevan-version-control.animated #elagn58qick1p{animation:1s 1 forwards ease-in slideRight;animation-delay:.2s;opacity:0}svg#jeevan-version-control.animated #elpirfjwbrff{animation:1s 1 forwards ease-in slideRight;animation-delay:.07692307692307693s;opacity:0}svg#jeevan-version-control.animated #ely68gd342wac{animation:1s 1 forwards ease-in slideRight;animation-delay:.15384615384615385s;opacity:0}svg#jeevan-version-control.animated #elf5l3fbtzuhd{animation:1s 1 forwards ease-in slideRight;animation-delay:.23076923076923078s;opacity:0}svg#jeevan-version-control.animated #elxzdaupexx5i{animation:1s 1 forwards ease-in slideRight;animation-delay:.3076923076923077s;opacity:0}svg#jeevan-version-control.animated #el97pybsl86hm{animation:1s 1 forwards ease-in slideRight;animation-delay:.38461538461538464s;opacity:0}svg#jeevan-version-control.animated #elpzlwcskc5kp{animation:1s 1 forwards ease-in slideRight;animation-delay:.46153846153846156s;opacity:0}svg#jeevan-version-control.animated #elwb18qlflkkn{animation:1s 1 forwards ease-in slideRight;animation-delay:.5384615384615385s;opacity:0}svg#jeevan-version-control.animated #elxl0e1drhx0p{animation:1s 1 forwards ease-in slideRight;animation-delay:.6153846153846154s;opacity:0}svg#jeevan-version-control.animated #eliv4cvm2p9o{animation:1s 1 forwards ease-in slideRight;animation-delay:.6923076923076923s;opacity:0}svg#jeevan-version-control.animated #eltim4008a0pl{animation:1s 1 forwards ease-in slideRight;animation-delay:.7692307692307693s;opacity:0}svg#jeevan-version-control.animated #elgzcxow7wj7h{animation:1s 1 forwards ease-in slideRight;animation-delay:.8461538461538463s;opacity:0}svg#jeevan-version-control.animated #elcoe8lgsux8{animation:1s 1 forwards ease-in slideRight;animation-delay:.9230769230769231s;opacity:0}svg#jeevan-version-control.animated #jvn--Window--inject-85{animation:1s 1 forwards ease-in slideRight,6s Infinite linear floating;animation-delay:.2s,1.2s;opacity:0}svg#jeevan-version-control.animated #el52qgo8z00cy{animation:1s 1 forwards ease-in slideLeft;animation-delay:.2s;opacity:0}svg#jeevan-version-control.animated #ele13fwp8i6cb{animation:1s 1 forwards ease-in slideLeft;animation-delay:.022222222222222223s;opacity:0}svg#jeevan-version-control.animated #elbs6xur9r5s6{animation:1s 1 forwards ease-in slideLeft;animation-delay:.044444444444444446s;opacity:0}svg#jeevan-version-control.animated #elx5f2f8gfh4n{animation:1s 1 forwards ease-in slideLeft;animation-delay:.06666666666666667s;opacity:0}svg#jeevan-version-control.animated #elkwqun398u4s{animation:1s 1 forwards ease-in slideLeft;animation-delay:.08888888888888889s;opacity:0}svg#jeevan-version-control.animated #elrj48m8wydc{animation:1s 1 forwards ease-in slideLeft;animation-delay:.11111111111111112s;opacity:0}svg#jeevan-version-control.animated #el0oxj3pbibt69{animation:1s 1 forwards ease-in slideLeft;animation-delay:.13333333333333333s;opacity:0}svg#jeevan-version-control.animated #elx76gcnm1vv{animation:1s 1 forwards ease-in slideLeft;animation-delay:.15555555555555556s;opacity:0}svg#jeevan-version-control.animated #elkp0erpacs2c{animation:1s 1 forwards ease-in slideLeft;animation-delay:.17777777777777778s;opacity:0}svg#jeevan-version-control.animated #ela3lgj1xwl25{animation:1s 1 forwards ease-in slideLeft;animation-delay:.2s;opacity:0}svg#jeevan-version-control.animated #elkcxj7mcpkua{animation:1s 1 forwards ease-in slideLeft;animation-delay:.22222222222222224s;opacity:0}svg#jeevan-version-control.animated #elj02h65n779s{animation:1s 1 forwards ease-in slideLeft;animation-delay:.24444444444444446s;opacity:0}svg#jeevan-version-control.animated #eln6uw107a81{animation:1s 1 forwards ease-in slideLeft;animation-delay:.26666666666666666s;opacity:0}svg#jeevan-version-control.animated #elvbph5cmpx7d{animation:1s 1 forwards ease-in slideLeft;animation-delay:.2888888888888889s;opacity:0}svg#jeevan-version-control.animated #elr5tywjhuvz{animation:1s 1 forwards ease-in slideLeft;animation-delay:.3111111111111111s;opacity:0}svg#jeevan-version-control.animated #elnsxlf1eglx{animation:1s 1 forwards ease-in slideLeft;animation-delay:.33333333333333337s;opacity:0}svg#jeevan-version-control.animated #elrwl2t9967rg{animation:1s 1 forwards ease-in slideLeft;animation-delay:.35555555555555557s;opacity:0}svg#jeevan-version-control.animated #el2onbzkl59g{animation:1s 1 forwards ease-in slideLeft;animation-delay:.37777777777777777s;opacity:0}svg#jeevan-version-control.animated #el9jrwnef6k2m{animation:1s 1 forwards ease-in slideLeft;animation-delay:.4s;opacity:0}svg#jeevan-version-control.animated #elmoqlq0qsw1{animation:1s 1 forwards ease-in slideLeft;animation-delay:.4222222222222222s;opacity:0}svg#jeevan-version-control.animated #elwpmwyy9bdsg{animation:1s 1 forwards ease-in slideLeft;animation-delay:.4444444444444445s;opacity:0}svg#jeevan-version-control.animated #elwqhlbq9tcy{animation:1s 1 forwards ease-in slideLeft;animation-delay:.4666666666666667s;opacity:0}svg#jeevan-version-control.animated #ely8uwl2krj5n{animation:1s 1 forwards ease-in slideLeft;animation-delay:.48888888888888893s;opacity:0}svg#jeevan-version-control.animated #elgdahuiggirj{animation:1s 1 forwards ease-in slideLeft;animation-delay:.5111111111111112s;opacity:0}svg#jeevan-version-control.animated #el36go71xqqi8{animation:1s 1 forwards ease-in slideLeft;animation-delay:.5333333333333333s;opacity:0}svg#jeevan-version-control.animated #elv7ti0zig3ft{animation:1s 1 forwards ease-in slideLeft;animation-delay:.5555555555555556s;opacity:0}svg#jeevan-version-control.animated #el3qfxhbr2m0w{animation:1s 1 forwards ease-in slideLeft;animation-delay:.5777777777777778s;opacity:0}svg#jeevan-version-control.animated #els4nu74e57l{animation:1s 1 forwards ease-in slideLeft;animation-delay:.6s;opacity:0}svg#jeevan-version-control.animated #eld1slkk6dqk{animation:1s 1 forwards ease-in slideLeft;animation-delay:.6222222222222222s;opacity:0}svg#jeevan-version-control.animated #elbf0bkjmo9cv{animation:1s 1 forwards ease-in slideLeft;animation-delay:.6444444444444445s;opacity:0}svg#jeevan-version-control.animated #elane69fod4fl{animation:1s 1 forwards ease-in slideLeft;animation-delay:.6666666666666667s;opacity:0}svg#jeevan-version-control.animated #el0p1l2jsp0ym{animation:1s 1 forwards ease-in slideLeft;animation-delay:.6888888888888889s;opacity:0}svg#jeevan-version-control.animated #elknga5unwmah{animation:1s 1 forwards ease-in slideLeft;animation-delay:.7111111111111111s;opacity:0}svg#jeevan-version-control.animated #elcuft7m4ugah{animation:1s 1 forwards ease-in slideLeft;animation-delay:.7333333333333334s;opacity:0}svg#jeevan-version-control.animated #elu9ck8ef7rzm{animation:1s 1 forwards ease-in slideLeft;animation-delay:.7555555555555555s;opacity:0}svg#jeevan-version-control.animated #elpynyuddsiyf{animation:1s 1 forwards ease-in slideLeft;animation-delay:.7777777777777778s;opacity:0}svg#jeevan-version-control.animated #elcz9l0rv3mzv{animation:1s 1 forwards ease-in slideLeft;animation-delay:.8s;opacity:0}svg#jeevan-version-control.animated #eljkauvfr40xn{animation:1s 1 forwards ease-in slideLeft;animation-delay:.8222222222222223s;opacity:0}svg#jeevan-version-control.animated #el5lu6vi459n6{animation:1s 1 forwards ease-in slideLeft;animation-delay:.8444444444444444s;opacity:0}svg#jeevan-version-control.animated #el881pj3842kf{animation:1s 1 forwards ease-in slideLeft;animation-delay:.8666666666666667s;opacity:0}svg#jeevan-version-control.animated #ela00ukldlqwi{animation:1s 1 forwards ease-in slideLeft;animation-delay:.888888888888889s;opacity:0}svg#jeevan-version-control.animated #elzphuu0uqtom{animation:1s 1 forwards ease-in slideLeft;animation-delay:.9111111111111111s;opacity:0}svg#jeevan-version-control.animated #el5t9iwxubrem{animation:1s 1 forwards ease-in slideLeft;animation-delay:.9333333333333333s;opacity:0}svg#jeevan-version-control.animated #el829dl8anc7r{animation:1s 1 forwards ease-in slideLeft;animation-delay:.9555555555555556s;opacity:0}svg#jeevan-version-control.animated #el6jck1xb1zii{animation:1s 1 forwards ease-in slideLeft;animation-delay:.9777777777777779s;opacity:0}svg#jeevan-version-control.animated #jvn--Graphics--inject-85{animation:1s 1 forwards ease-in slideLeft,3s Infinite linear wind;animation-delay:.2s,1.2s;opacity:0}svg#jeevan-version-control.animated #jvn--Table--inject-85{animation:1s 1 forwards ease-in slideDown,6s Infinite linear floating;animation-delay:.2s,1.2s;opacity:0}svg#jeevan-version-control.animated #jvn--Character--inject-85{animation:1.5s 1 forwards ease-in slideDown,6s Infinite linear floating;animation-delay:.4s,1.9s;opacity:0}@keyframes slideRight{0%{opacity:0;transform:translateX(30px)}100%{opacity:1;transform:translateX(0)}}@keyframes floating{0%{opacity:1;transform:translateY(0px)}50%{transform:translateY(-10px)}100%{opacity:1;transform:translateY(0px)}}@keyframes slideLeft{0%{opacity:0;transform:translateX(-30px)}100%{opacity:1;transform:translateX(0)}}@keyframes wind{0%{transform:rotate( 0deg )}25%{transform:rotate( 1deg )}75%{transform:rotate( -1deg )}}@keyframes slideDown{0%{opacity:0;transform:translateY(-30px)}100%{opacity:1;transform:translateY(0)}}</style><g id="jvn--Window--inject-85" style="transform-origin:237.639px 198.539px 0" class="animable"><path d="M387.88 94.31V302.77A11.22 11.22.0 0 1 376.65 314h-278A11.21 11.21.0 0 1 87.4 302.77V94.31A11.22 11.22.0 0 1 98.62 83.08h278A11.22 11.22.0 0 1 387.88 94.31z" style="fill:#fff;transform-origin:237.639px 198.539px 0" id="elagn58qick1p" class="animable"/><path d="M387.88 100.75v202A11.22 11.22.0 0 1 376.65 314h-278a11.1 11.1.0 0 1-3.12-.44z" style="fill:#263238;transform-origin:241.705px 207.375px 0" id="elpirfjwbrff" class="animable"/><g id="ely68gd342wac"><path d="M387.88 100.75v202A11.22 11.22.0 0 1 376.65 314h-278a11.1 11.1.0 0 1-3.12-.44z" style="fill:#fff;opacity:.9;transform-origin:241.705px 207.375px 0" class="animable"/></g><path d="M310.81 213.6 326 206.76l-3.24-18.11L306 187.31a68.67 68.67.0 0 0-8.39-15.75l5.24-8.87 3.35-5.69-13-12.9-14.55 8.74a71.24 71.24.0 0 0-27.84-11.48l-4.19-16.68H228.26L224 141.48a77.09 77.09.0 0 0-16.48 5.3l-13.19-11.36-15.05 10.25 6.26 16.25a68.07 68.07.0 0 0-10.25 13.72l-17.32-1.75-6.23 17.29L166 200.91a70.22 70.22.0 0 0-1 12.29 36 36 0 0 0 0 5.09l-15.14 8.5 4.8 17.71h17.1a72.69 72.69.0 0 0 5.74 10.13q1.68 2.47 3.55 4.81l-7.38 15.25 14.13 11.85 13.63-10.21a71.77 71.77.0 0 0 16.48 6.95l2.73 16.48L239 301.39l5.5-15.54A77.67 77.67.0 0 0 262.1 282l11.65 11.64 15.95-9.2-4.39-15.88a71.86 71.86.0 0 0 12.28-13.26l16.16 2.9 7.78-16.66-12.7-10.24A73.29 73.29.0 0 0 310.81 213.6zm-41.95.0a31.21 31.21.0 1 1-9.21-22.14c.56.56 1.11 1.14 1.61 1.75a31 31 0 0 1 7.6 20.19z" style="fill:#90caf9;stroke:#263238;stroke-miterlimit:10;stroke-width:1.02934px;transform-origin:237.93px 213.035px 0" id="elf5l3fbtzuhd" class="animable"/><g id="elxzdaupexx5i"><path d="M308.83 231.25l12.7 10.24-7.78 16.66-16.16-2.9a71.86 71.86.0 0 1-12.28 13.26l4.39 15.88-15.95 9.2L262.1 282a77.67 77.67.0 0 1-17.62 3.9L239 301.39l-18.35-1.63-2.73-16.48a71.77 71.77.0 0 1-16.48-6.95l-13.63 10.21-14.13-11.85L181 259.44q-1.87-2.34-3.55-4.81L211.07 230a31.23 31.23.0 0 0 57.79-16.41v-.2a31 31 0 0 0-7.6-20.19l41.63-30.52-5.24 8.87A68.67 68.67.0 0 1 306 187.31l16.68 1.34L326 206.76l-15.15 6.84A73.29 73.29.0 0 1 308.83 231.25z" style="opacity:.2;transform-origin:249.84px 232.035px 0" class="animable"/></g><path d="M373.92 165.46l.76-.35a2.06 2.06.0 0 0 1.2-2.26l-.16-.93a2.06 2.06.0 0 0-1.89-1.72l-.92-.07A2.07 2.07.0 0 1 371.2 159c-.25-.53-.51-1-.8-1.53a2.05 2.05.0 0 1 0-2.06l.47-.8a2.1 2.1.0 0 0-.33-2.54l-.66-.66a2 2 0 0 0-2.55-.31l-.81.48a2.05 2.05.0 0 1-2.06.0 16.61 16.61.0 0 0-4.19-1.7 2.06 2.06.0 0 1-1.48-1.51l-.24-1a2.05 2.05.0 0 0-2.06-1.59h-.92a2.05 2.05.0 0 0-2.06 1.58l-.26 1a2.08 2.08.0 0 1-1.45 1.49c-.52.14-1 .3-1.51.48a2.06 2.06.0 0 1-2.06-.38l-.83-.71a2.06 2.06.0 0 0-2.53-.14l-.73.49a2.07 2.07.0 0 0-.77 2.48l.37 1a2.08 2.08.0 0 1-.32 2.06c-.33.39-.64.8-.93 1.22a2 2 0 0 1-1.91.89l-1-.1a2.06 2.06.0 0 0-2.17 1.37l-.33.91a2.06 2.06.0 0 0 .75 2.41l.95.67a2.06 2.06.0 0 1 .86 1.88 14.64 14.64.0 0 0-.08 1.62h0a2.15 2.15.0 0 1-1 1.75l-1 .53a2.06 2.06.0 0 0-1 2.38l.24.9a2.06 2.06.0 0 0 2.06 1.54h1a2.06 2.06.0 0 1 1.8 1c.28.49.58 1 .89 1.43a2.06 2.06.0 0 1 .16 2.06l-.42.87a2.06 2.06.0 0 0 .54 2.51l.71.6a2.06 2.06.0 0 0 2.57.09l.73-.51a2.06 2.06.0 0 1 2.06-.2c.52.25 1.05.48 1.6.68a2.05 2.05.0 0 1 1.31 1.59l.15.89a2.05 2.05.0 0 0 1.9 1.72l.94.09a2.07 2.07.0 0 0 2.14-1.39l.29-.81a2.08 2.08.0 0 1 1.6-1.35 14.8 14.8.0 0 0 1.73-.37 2 2 0 0 1 2 .55l.61.62a2.06 2.06.0 0 0 2.52.34l.82-.47a2.06 2.06.0 0 0 1-2.37l-.23-.81a2.07 2.07.0 0 1 .52-2.06 16.87 16.87.0 0 0 1.22-1.32 2 2 0 0 1 2-.7l.82.15a2 2 0 0 0 2.27-1.17l.39-.85a2.05 2.05.0 0 0-.58-2.51l-.62-.5a2.06 2.06.0 0 1-.76-1.92 16.33 16.33.0 0 0 .19-1.85A2.06 2.06.0 0 1 373.92 165.46zm-7.39.54a10.44 10.44.0 1 1-10.44-10.44h0a10.41 10.41.0 0 1 10.42 10.37z" style="fill:#90caf9;stroke:#263238;stroke-miterlimit:10;stroke-width:1.02934px;transform-origin:356.197px 165.855px 0" id="el97pybsl86hm" class="animable"/><path d="M387.88 94.31v.57H87.4v-.57A11.22 11.22.0 0 1 98.62 83.08h278A11.22 11.22.0 0 1 387.88 94.31z" style="fill:#263238;transform-origin:237.639px 88.9785px 0" id="elpzlwcskc5kp" class="animable"/><path d="M387.88 94.31V302.77A11.22 11.22.0 0 1 376.65 314h-278A11.22 11.22.0 0 1 87.4 302.77V94.31A11.22 11.22.0 0 1 98.62 83.08h278A11.22 11.22.0 0 1 387.88 94.31z" style="fill:none;stroke:#263238;stroke-linecap:round;stroke-linejoin:round;stroke-width:1.02934px;transform-origin:237.639px 198.539px 0" id="elwb18qlflkkn" class="animable"/><path d="M87.4 94.31H387.88z" style="fill:none;stroke:#263238;stroke-linecap:round;stroke-linejoin:round;stroke-width:1.02934px;transform-origin:237.64px 94.31px 0" id="elxl0e1drhx0p" class="animable"/><path d="M112.45 89a2.28 2.28.0 1 1-2.28-2.28A2.28 2.28.0 0 1 112.45 89z" style="fill:#90caf9;transform-origin:110.17px 89px 0" id="eliv4cvm2p9o" class="animable"/><path d="M123.24 89A2.28 2.28.0 1 1 121 86.7 2.28 2.28.0 0 1 123.24 89z" style="fill:#90caf9;transform-origin:120.959px 88.9785px 0" id="eltim4008a0pl" class="animable"/><path d="M134 89a2.28 2.28.0 1 1-2.28-2.28A2.28 2.28.0 0 1 134 89z" style="fill:#90caf9;transform-origin:131.721px 89px 0" id="elgzcxow7wj7h" class="animable"/><path d="M285.63 213.6a47.73 47.73.0 1 1-47.73-47.73h0a47.73 47.73.0 0 1 47.73 47.43z" style="fill:none;stroke:#263238;stroke-miterlimit:10;stroke-width:4.11736px;transform-origin:237.898px 213.602px 0" id="elcoe8lgsux8" class="animable"/></g><g id="jvn--Graphics--inject-85" style="transform-origin:249.975px 229.505px 0" class="animable"><rect x="281.7" y="106" width="192.32" height="60.15" rx="11.22" style="fill:#fff;stroke:#263238;stroke-miterlimit:10;stroke-width:1.02934px;transform-origin:377.86px 136.075px 0" id="el52qgo8z00cy" class="animable"/><path d="M315.36 135.81H446.43z" style="fill:none;stroke:#263238;stroke-miterlimit:10;stroke-width:1.02934px;transform-origin:380.895px 135.81px 0" id="ele13fwp8i6cb" class="animable"/><path d="M311.27 135.81 331.97 121.22H384.69L406.2 135.81" style="fill:none;stroke:#263238;stroke-miterlimit:10;stroke-width:1.02934px;transform-origin:358.735px 128.515px 0" id="elbs6xur9r5s6" class="animable"/><path d="M410.28 135.81a4.09 4.09.0 1 1-4.08-4.09A4.09 4.09.0 0 1 410.28 135.81z" style="fill:#90caf9;stroke:#263238;stroke-miterlimit:10;stroke-width:1.02934px;transform-origin:406.189px 135.811px 0" id="elx5f2f8gfh4n" class="animable"/><circle cx="331.97" cy="121.22" r="4.09" style="fill:#90caf9;stroke:#263238;stroke-miterlimit:10;stroke-width:1.02934px;transform-origin:331.97px 121.22px 0" id="elkwqun398u4s" class="animable"/><path d="M388.77 121.22a4.09 4.09.0 1 1-4.08-4.08A4.09 4.09.0 0 1 388.77 121.22z" style="fill:#90caf9;stroke:#263238;stroke-miterlimit:10;stroke-width:1.02934px;transform-origin:384.68px 121.23px 0" id="elrj48m8wydc" class="animable"/><path d="M311.27 135.81 331.97 150.4H429.13L446.43 135.81" style="fill:none;stroke:#263238;stroke-miterlimit:10;stroke-width:1.02934px;transform-origin:378.85px 143.105px 0" id="el0oxj3pbibt69" class="animable"/><path d="M367.71 150.4a4.09 4.09.0 1 1-4.09-4.09A4.09 4.09.0 0 1 367.71 150.4z" style="fill:#90caf9;stroke:#263238;stroke-miterlimit:10;stroke-width:1.02934px;transform-origin:363.619px 150.4px 0" id="elx76gcnm1vv" class="animable"/><path d="M336.06 150.4a4.09 4.09.0 1 1-4.09-4.09A4.09 4.09.0 0 1 336.06 150.4z" style="fill:#90caf9;stroke:#263238;stroke-miterlimit:10;stroke-width:1.02934px;transform-origin:331.969px 150.4px 0" id="elkp0erpacs2c" class="animable"/><path d="M433.22 150.4a4.09 4.09.0 1 1-4.09-4.09A4.09 4.09.0 0 1 433.22 150.4z" style="fill:#90caf9;stroke:#263238;stroke-miterlimit:10;stroke-width:1.02934px;transform-origin:429.129px 150.4px 0" id="ela3lgj1xwl25" class="animable"/><circle cx="446.43" cy="135.81" r="4.09" style="fill:#90caf9;stroke:#263238;stroke-miterlimit:10;stroke-width:1.02934px;transform-origin:446.43px 135.81px 0" id="elkcxj7mcpkua" class="animable"/><path d="M315.36 135.81a4.09 4.09.0 1 1-4.08-4.09A4.09 4.09.0 0 1 315.36 135.81z" style="fill:#90caf9;stroke:#263238;stroke-miterlimit:10;stroke-width:1.02934px;transform-origin:311.27px 135.811px 0" id="elj02h65n779s" class="animable"/><rect x="82.98" y="232.7" width="120.31" height="120.31" rx="11.22" style="fill:#fff;stroke:#263238;stroke-miterlimit:10;stroke-width:1.02934px;transform-origin:143.135px 292.855px 0" id="eln6uw107a81" class="animable"/><path d="M128.09 301.39 112.51 331.68H183.13" style="fill:none;stroke:#263238;stroke-linecap:round;stroke-linejoin:round;stroke-width:1.02934px;transform-origin:147.82px 316.535px 0" id="elvbph5cmpx7d" class="animable"/><path d="M183.13 255.63 150.17 277.54 183.13 287.46" style="fill:none;stroke:#263238;stroke-linecap:round;stroke-linejoin:round;stroke-width:1.02934px;transform-origin:166.65px 271.545px 0" id="elr5tywjhuvz" class="animable"/><path d="M175.34 247.84h15.58v15.58H175.34z" style="fill:#90caf9;stroke:#263238;stroke-miterlimit:10;stroke-width:1.02934px;transform-origin:183.13px 255.63px 0" id="elnsxlf1eglx" class="animable"/><path d="M175.34 279.67h15.58v15.58H175.34z" style="fill:#90caf9;stroke:#263238;stroke-miterlimit:10;stroke-width:1.02934px;transform-origin:183.13px 287.46px 0" id="elrwl2t9967rg" class="animable"/><path d="M142.38 269.75h15.58v15.58H142.38z" style="fill:#90caf9;stroke:#263238;stroke-miterlimit:10;stroke-width:1.02934px;transform-origin:150.17px 277.54px 0" id="el2onbzkl59g" class="animable"/><path d="M120.3 293.6h15.58v15.58H120.3z" style="fill:#90caf9;stroke:#263238;stroke-miterlimit:10;stroke-width:1.02934px;transform-origin:128.09px 301.39px 0" id="el9jrwnef6k2m" class="animable"/><path d="M104.72 323.88h15.58v15.58H104.72z" style="fill:#90caf9;stroke:#263238;stroke-miterlimit:10;stroke-width:1.02934px;transform-origin:112.51px 331.67px 0" id="elmoqlq0qsw1" class="animable"/><path d="M175.34 323.88h15.58v15.58H175.34z" style="fill:#90caf9;stroke:#263238;stroke-miterlimit:10;stroke-width:1.02934px;transform-origin:183.13px 331.67px 0" id="elwpmwyy9bdsg" class="animable"/><rect x="25.93" y="185.55" width="120.31" height="120.31" rx="11.22" style="fill:#fff;stroke:#263238;stroke-miterlimit:10;stroke-width:1.02934px;transform-origin:86.085px 245.705px 0" id="elwqhlbq9tcy" class="animable"/><path d="M38.66 197.19h80.03v6.2H38.66z" style="fill:#90caf9;transform-origin:78.675px 200.29px 0" id="ely8uwl2krj5n" class="animable"/><path d="M38.66 207.4H84.9v6.2H38.66z" style="fill:#90caf9;transform-origin:61.78px 210.5px 0" id="elgdahuiggirj" class="animable"/><path d="M38.66 217.61h26.93v6.2H38.66z" style="fill:#90caf9;transform-origin:52.125px 220.71px 0" id="el36go71xqqi8" class="animable"/><path d="M38.66 227.81h44.32v6.2H38.66z" style="fill:#90caf9;transform-origin:60.82px 230.91px 0" id="elv7ti0zig3ft" class="animable"/><path d="M38.66 238.02h69.09v6.2H38.66z" style="fill:#90caf9;transform-origin:73.205px 241.12px 0" id="el3qfxhbr2m0w" class="animable"/><path d="M38.66 248.22H84.9v6.2H38.66z" style="fill:#90caf9;transform-origin:61.78px 251.32px 0" id="els4nu74e57l" class="animable"/><path d="M38.66 258.43h32.26v6.2H38.66z" style="fill:#90caf9;transform-origin:54.79px 261.53px 0" id="eld1slkk6dqk" class="animable"/><path d="M38.66 268.64h52.23v6.2H38.66z" style="fill:#90caf9;transform-origin:64.775px 271.74px 0" id="elbf0bkjmo9cv" class="animable"/><path d="M38.66 278.84h63.32v6.2H38.66z" style="fill:#90caf9;transform-origin:70.32px 281.94px 0" id="elane69fod4fl" class="animable"/><path d="M38.66 289.05h80.03v6.2H38.66z" style="fill:#90caf9;transform-origin:78.675px 292.15px 0" id="el0p1l2jsp0ym" class="animable"/><g id="elknga5unwmah"><path d="M38.66 197.19h80.03v6.2H38.66z" style="opacity:.3;transform-origin:78.675px 200.29px 0" class="animable"/></g><g id="elcuft7m4ugah"><path d="M38.66 207.4H84.9v6.2H38.66z" style="opacity:.3;transform-origin:61.78px 210.5px 0" class="animable"/></g><g id="elu9ck8ef7rzm"><path d="M38.66 217.61h26.93v6.2H38.66z" style="opacity:.3;transform-origin:52.125px 220.71px 0" class="animable"/></g><g id="elpynyuddsiyf"><path d="M38.66 227.81h44.32v6.2H38.66z" style="opacity:.3;transform-origin:60.82px 230.91px 0" class="animable"/></g><g id="elcz9l0rv3mzv"><path d="M38.66 238.02h69.09v6.2H38.66z" style="opacity:.3;transform-origin:73.205px 241.12px 0" class="animable"/></g><g id="eljkauvfr40xn"><path d="M38.66 248.22H84.9v6.2H38.66z" style="opacity:.3;transform-origin:61.78px 251.32px 0" class="animable"/></g><g id="el5lu6vi459n6"><path d="M38.66 258.43h32.26v6.2H38.66z" style="opacity:.3;transform-origin:54.79px 261.53px 0" class="animable"/></g><g id="el881pj3842kf"><path d="M38.66 268.64h52.23v6.2H38.66z" style="opacity:.3;transform-origin:64.775px 271.74px 0" class="animable"/></g><g id="ela00ukldlqwi"><path d="M38.66 278.84h63.32v6.2H38.66z" style="opacity:.3;transform-origin:70.32px 281.94px 0" class="animable"/></g><g id="elzphuu0uqtom"><path d="M38.66 289.05h80.03v6.2H38.66z" style="opacity:.3;transform-origin:78.675px 292.15px 0" class="animable"/></g><path d="M90.19 175h29.12a5.3 5.3.0 0 1 5.3 5.3v5.27a0 0 0 0 1 0 0H84.89a0 0 0 0 1 0 0v-5.27A5.3 5.3.0 0 1 90.19 175z" style="fill:#fff;stroke:#263238;stroke-miterlimit:10;stroke-width:1.02934px;transform-origin:104.75px 180.285px 0" id="el5t9iwxubrem" class="animable"/><path d="M70.5 175H99.28a5.48 5.48.0 0 1 5.48 5.48v5.1a0 0 0 0 1 0 0H65a0 0 0 0 1 0 0v-5.1A5.48 5.48.0 0 1 70.5 175z" style="fill:#90caf9;stroke:#263238;stroke-miterlimit:10;stroke-width:1.02934px;transform-origin:84.8809px 180.289px 0" id="el829dl8anc7r" class="animable"/><path d="M48.37 175H77.85A5.13 5.13.0 0 1 83 180.1v5.45a0 0 0 0 1 0 0H43.25a0 0 0 0 1 0 0V180.1A5.13 5.13.0 0 1 48.37 175z" style="fill:#fff;stroke:#263238;stroke-miterlimit:10;stroke-width:1.02934px;transform-origin:63.125px 180.275px 0" id="el6jck1xb1zii" class="animable"/></g><g id="jvn--Table--inject-85" style="transform-origin:261.86px 359.934px 0" class="animable"><path d="M423.18 395.54H445.05z" style="fill:none;stroke:#263238;stroke-linecap:round;stroke-linejoin:round;stroke-width:1.02934px;transform-origin:434.115px 395.54px 0" id="eljp49qrkidz8" class="animable"/><path d="M78.67 395.54h333z" style="fill:none;stroke:#263238;stroke-linecap:round;stroke-linejoin:round;stroke-width:1.02934px;transform-origin:245.17px 395.54px 0" id="elb8otyd8ee65" class="animable"/><g id="jvn--Coffee--inject-189--inject-85" style="transform-origin:410.262px 383.215px 0" class="animable"><path d="M417.18 382.73s3.87-3.17 5.72.29c1.59 3-2.22 6.35-6.57 6.35v2.53s9.32.25 10-7.6-9.19-5.68-9.19-5.68z" style="fill:#90caf9;stroke:#263238;stroke-linecap:round;stroke-linejoin:round;stroke-width:1.02934px;transform-origin:421.346px 385.121px 0" id="elqhh8r4gl4i" class="animable"/><path d="M416.86 395.49H398.2L395.4 372.06H419.66L416.86 395.49z" style="fill:#90caf9;stroke:#263238;stroke-linecap:round;stroke-linejoin:round;stroke-width:1.02934px;transform-origin:407.53px 383.775px 0" id="elucw5rrmhyl" class="animable"/><rect x="394.16" y="370.94" width="26.74" height="2.68" rx="1.28" style="fill:#fff;stroke:#263238;stroke-linecap:round;stroke-linejoin:round;stroke-width:1.02934px;transform-origin:407.53px 372.28px 0" id="elejcpxd6zome" class="animable"/></g><path d="M404.36 368.39s8.58-5.15 5.78-11.06-12.27-9.8-12.27-19c0-7.92 8.42-10.85 13.92-14" style="fill:none;stroke:#263238;stroke-linecap:round;stroke-linejoin:round;stroke-width:1.02934px;transform-origin:404.83px 346.359px 0" id="elvkh4jrnti1" class="animable"/><path d="M407.18 329.92a10.27 10.27.0 0 0-2.72 14.3" style="fill:none;stroke:#263238;stroke-linecap:round;stroke-linejoin:round;stroke-width:1.02934px;transform-origin:404.924px 337.07px 0" id="el1xnzpij157" class="animable"/><path d="M411.85 353.27A15.51 15.51.0 0 1 413.19 364" style="fill:none;stroke:#263238;stroke-linecap:round;stroke-linejoin:round;stroke-width:1.02934px;transform-origin:412.729px 358.635px 0" id="elrkyviwdrraf" class="animable"/><path d="M182 393.6s-.39-6.72-6.32-9.09-9.1-1.39-22.33 2.17a126.49 126.49.0 0 1-25.5 3.95v3z" style="fill:#fff;stroke:#263238;stroke-linecap:round;stroke-linejoin:round;stroke-width:1.02934px;transform-origin:154.926px 388.424px 0" id="el2nv3j476lc8" class="animable"/><path d="M181.81 393.6s.39-6.72 6.32-9.09 9.09-1.39 22.33 2.17A126.28 126.28.0 0 0 236 390.63v3z" style="fill:#fff;stroke:#263238;stroke-linecap:round;stroke-linejoin:round;stroke-width:1.02934px;transform-origin:208.904px 388.424px 0" id="el6kjyp8hf3b6" class="animable"/><path d="M126.49 392.41h111.66v2.17H126.49z" style="fill:#263238;stroke:#263238;stroke-linecap:round;stroke-linejoin:round;stroke-width:1.02934px;transform-origin:182.32px 393.495px 0" id="el2z0ra3238xr" class="animable"/><path d="M184.69 393.48a11.89 11.89.0 0 1 6.57-7.14" style="fill:none;stroke:#263238;stroke-linecap:round;stroke-linejoin:round;stroke-width:1.02934px;transform-origin:187.977px 389.91px 0" id="el9xt4i48mdv" class="animable"/><path d="M188.07 393a11 11 0 0 1 7.43-5.28c3.69-.68 7.45.59 10.93 2S216 393 219.72 393" style="fill:none;stroke:#263238;stroke-linecap:round;stroke-linejoin:round;stroke-width:1.02934px;transform-origin:203.895px 390.266px 0" id="elhpnda5qwo78" class="animable"/><path d="M149.4 392.39a40.34 40.34.0 0 0 10.77-2.7 47.15 47.15.0 0 1 6.42-2.46 8.87 8.87.0 0 1 6.66.67 9.1 9.1.0 0 1 2.29 2.13 16 16 0 0 1 2.17 3.65" style="fill:none;stroke:#263238;stroke-linecap:round;stroke-linejoin:round;stroke-width:1.02934px;transform-origin:163.555px 390.273px 0" id="elw1kot19mtq" class="animable"/><path d="M169.82 389.37A5.29 5.29.0 0 1 173 391a16.1 16.1.0 0 1 2.11 2.94" style="fill:none;stroke:#263238;stroke-linecap:round;stroke-linejoin:round;stroke-width:1.02934px;transform-origin:172.465px 391.656px 0" id="elcgmao99qhs" class="animable"/></g><g id="jvn--Character--inject-85" style="transform-origin:310.736px 301.32px 0" class="animable animator-active"><path d="M266.6 392.52a33.09 33.09.0 0 1-13 3c-6.92.0-21-14.3-21-14.3s-.51-1.54.59-7.3 11.44-58.61 11.44-58.61 1.22-12.3 8.21-19.85 20.71-10.24 20.71-10.24 30.34-13.21 47.36-9.13c17 6.75 35.57 13.61 41.77 18.93s21.44 48 26.72 69.92c0 0-11.63 24.71-22.48 31.65s-37 4.68-37 4.68z" style="fill:#90caf9;transform-origin:310.941px 338.465px 0" id="elamv7in90tp" class="animable"/><g id="elilqh7ch0j88"><path d="M262.75 349.57l-4.39-58.25a19.12 19.12.0 0 0-11.49 13.59c-2.27 10.42-16 74.55-14.3 76.33s10.65 9.45 10.65 9.45 9.65 8.25 19.53 3.32S262.75 349.57 262.75 349.57z" style="opacity:.3;transform-origin:249.783px 343.451px 0" class="animable"/></g><g id="eltc48d6t08el"><path d="M306.31 296.72c-.51 1.74-2.7 2.3-4.52 2.32a21.54 21.54.0 0 1-14.27-5.2c-.72-.63-13.59 7.32-15.07 8.11-2.34 1.26-4.63 2.64-7 3.81-2.22 1.09-4.32 1.63-5.77 3.83a19.76 19.76.0 0 0-2.15 5.2c-3.12 10.22-6.41 20.41-9.25 30.7-2.46 8.91-5.77 18.77-5.63 28.12a14.83 14.83.0 0 0 .14 2c2 11.95 23.82 16.91 23.82 16.91s-7.72 4.73-13 3-17.62-8.79-21.51-15.39l10.71-56s-.13-27 19.33-35 27.1-9.23 27.1-9.23z" style="opacity:.3;transform-origin:269.205px 337.898px 0" class="animable"/></g><g id="elil18ehsqon"><path d="M378.12 384.81s8.5-9.39 11.25-19.85c0 0-13-42.94-16.38-51s-8.85-17.21-12.68-21.13l-6.22 88.38-1.31 18.6s7 .29 11.85-2S378.12 384.81 378.12 384.81z" style="opacity:.3;transform-origin:371.076px 346.324px 0" class="animable"/></g><path d="M352.78 399.84l7.53-107s-36.46-17-46-18.62-55.87 16.64-55.87 16.64l6.74 102.62" style="fill:none;stroke:#263238;stroke-linecap:round;stroke-linejoin:round;stroke-width:1.02934px;transform-origin:309.375px 336.979px 0" id="elmxfgfphgmi" class="animable"/><path d="M287.06 222l-3.74 17.95s-4.8-3.39-5.82.44 2.1 9.1 8.13 9.39c0 0 1.64 8.13 7 13.65a99.72 99.72.0 0 0 8 7.64s2.11 13.63 9 14.15 8.23-5.68 9.62-14.3c0 0 5.95-10.32 7.69-15.9.0.0 7.3-5.09 2.43-12.52.0.0 2.41-17.77-1.78-20.77S294.37 220.26 287.06 222z" style="fill:#fff;transform-origin:304.176px 252.639px 0" id="eltua8x3xf27o" class="animable"/><path d="M309.29 286.64s-2.31 11.64-3.75 11.93-7.14-5.15-12.12-11.93-4.21-6.79-4.21-6.79 2.31-8.9 4.21-10.2 8.75-1.14 8.75-1.14l15-.57s5-.71 8.09 1.28 4.59 10.63 4.59 10.63-9 16.59-16.34 18.72A109.11 109.11.0 0 1 309.29 286.64z" style="fill:#fff;transform-origin:309.51px 283.199px 0" id="ellvdsw01o1i" class="animable"/><path d="M260.12 374.04 262.11 346.12z" style="fill:none;stroke:#263238;stroke-miterlimit:10;stroke-width:1.02934px;transform-origin:261.115px 360.08px 0" id="elr8kc06hhpx" class="animable"/><path d="M329.85 227.14s-8.52 3.3-16.05 2.67c0 0-7.95 8-18.13 3.25.0.0-9.18 24.86 11.87 41.12a36 36 0 0 1-21.91-24.41s-6 .93-8.13-8c0 0-1.73-3.45 6.16-3.47l-.34-17.3 20.27 4.07 14.55-2.13z" style="fill:#90caf9;transform-origin:303.596px 247.59px 0" id="elwxu9fgff7fb" class="animable"/><g id="elswufs7elqgd"><path d="M329.85 227.14s-8.52 3.3-16.05 2.67c0 0-7.95 8-18.13 3.25.0.0-7.42 26.62 11 40.67.0.0-16.71-5.79-21.05-24 0 0-5.94-.63-8.13-8 0 0-1.73-3.45 6.16-3.47l-.34-17.3 20.27 4.07 14.55-2.13z" style="fill:#fff;opacity:.4;transform-origin:303.59px 247.346px 0" class="animable"/></g><path d="M306.68 261.6a21.61 21.61.0 0 0 2.07 1.48c.47.3 1.18.54 1.51.1a1.11 1.11.0 0 0 .17-.6c.3-4.91-.85-9.87-.15-14.74" style="fill:none;stroke:#263238;stroke-linecap:round;stroke-linejoin:round;stroke-width:1.02934px;transform-origin:308.58px 255.631px 0" id="el5t870nhppbb" class="animable"/><path d="M313.51 245.05s2.44-5.38 8.73-.55" style="fill:none;stroke:#263238;stroke-linecap:round;stroke-linejoin:round;stroke-width:2.05868px;transform-origin:317.875px 243.77px 0" id="ellw8pgme9fxh" class="animable"/><path d="M305.6 246s-4.6-5.72-10.3.18" style="fill:none;stroke:#263238;stroke-linecap:round;stroke-linejoin:round;stroke-width:2.05868px;transform-origin:300.451px 244.846px 0" id="eldf3193mit2p" class="animable"/><path d="M299.39 270.21s2.45 14.67 11.09 15.12c7 .36 8.38-11.77 8.65-16.11" style="fill:none;stroke:#263238;stroke-linecap:round;stroke-linejoin:round;stroke-width:1.02934px;transform-origin:309.26px 277.277px 0" id="eloqfq0ijvpk" class="animable"/><path d="M284.5 241.58s-3.81-4.55-6.39-2.33 1.29 12 7.52 10.52" style="fill:none;stroke:#263238;stroke-linecap:round;stroke-linejoin:round;stroke-width:1.02934px;transform-origin:281.465px 244.281px 0" id="elvi8e30ttzjm" class="animable"/><path d="M301 263.42a13.46 13.46.0 0 0 7.32 4.52" style="fill:none;stroke:#263238;stroke-linecap:round;stroke-linejoin:round;stroke-width:1.02934px;transform-origin:304.66px 265.682px 0" id="el908ekh5hd1o" class="animable"/><ellipse cx="300.58" cy="252.81" rx=".99" ry="2.1" style="fill:#263238;transform-origin:300.58px 252.81px 0" id="el5ns5xgow3zo" class="animable"/><path d="M317.62 252.81c0 1.16-.45 2.1-1 2.1s-1-.94-1-2.1.44-2.11 1-2.11S317.62 251.65 317.62 252.81z" style="fill:#263238;transform-origin:316.621px 252.805px 0" id="el0i84zpe9722j" class="animable"/><path d="M309.57 285.21s-2.4 13.07-4 13.36-13.91-10.87-16.33-18.72c0 0 2.6-10.26 5-10.63 1.13-.18 2.43-.35 3.46-.48" style="fill:none;stroke:#263238;stroke-linecap:round;stroke-linejoin:round;stroke-width:1.02934px;transform-origin:299.404px 283.656px 0" id="elmopkollsa5" class="animable"/><path d="M309.57 285.21s2.32 13.07 3.94 13.36 13.92-10.87 16.34-18.72c0 0-2.94-10.19-5.17-11.05a27.52 27.52.0 0 0-4.38-1.24" style="fill:none;stroke:#263238;stroke-linecap:round;stroke-linejoin:round;stroke-width:1.02934px;transform-origin:319.711px 283.066px 0" id="elvkighf35prp" class="animable"/><path d="M286.81 253.06c1.58 2.74 3.54-6.91 2.71-10-.56-2-1.65-3.94-1.75-6-.1-2.34 1-4.53 1.86-6.72s1.31-4.8.0-6.76a30.57 30.57.0 0 0 15.42 5.53 9.69 9.69.0 0 0 4.22-.34 4.14 4.14.0 0 0 2.74-3c5.2.66 10.35 1.34 15.53.63 4.35-.59 11.11-1.69 13.34-6.13 3.27-6.48-5.15-13.21-10.12-15.48-12-5.49-28.22-6.42-39.06 2.2a39.6 39.6.0 0 1-3.49 2.7c-2.39 1.5-7.83 2.66-9.74 4.75-2.56 2.81.65 24.51.65 24.51s4.18-1.94 5.9 4.53C286.22 247.84 285.21 250.3 286.81 253.06z" style="fill:#263238;transform-origin:309.547px 227.066px 0" id="elm0bcvxg8n7n" class="animable"/><path d="M326.13 225a4.85 4.85.0 0 0-.14.82 22.47 22.47.0 0 0 .87 7.29c.27 1.06.66 2.09.83 3.17.4 2.57.4 5.05 2.3 7.14.0.0 3.64-12.73 2.17-21.83-.17-1-.5-3.7-2.11-3.21-1.18.36-2 2.38-2.52 3.36A16.86 16.86.0 0 0 326.13 225z" style="fill:#263238;transform-origin:329.236px 230.871px 0" id="elxb613rzx9kn" class="animable"/><path d="M275.89 213a12.36 12.36.0 0 1 11.17-1.5 39.1 39.1.0 0 1 11.83-13" style="fill:none;stroke:#263238;stroke-linecap:round;stroke-linejoin:round;stroke-width:1.02934px;transform-origin:287.391px 205.75px 0" id="el0dc2205glhq" class="animable"/><g id="elud2kv827pf"><path d="M291.53 209.94s19.6 13.94 31.47 10.49 8.55-13.66 8.55-13.66" style="fill:none;stroke:#fff;stroke-linecap:round;stroke-linejoin:round;stroke-width:1.02934px;opacity:.47;transform-origin:311.754px 213.873px 0" class="animable"/></g><g id="el56up1pf5vam"><path d="M293.42 207.6s24.61 11.31 28.75-4.7" style="fill:none;stroke:#fff;stroke-linecap:round;stroke-linejoin:round;stroke-width:1.02934px;opacity:.47;transform-origin:307.797px 207.188px 0" class="animable"/></g><path d="M299.39 270.21s4.68 9.09 8.35 8.94 10.4-9.93 10.4-9.93-3.63 4.68-9.14 5.16C305.37 274.7 299.39 270.21 299.39 270.21z" style="fill:#263238;transform-origin:308.766px 274.184px 0" id="elnit167uh8v" class="animable"/><path d="M327.71 336.58l.76-.35a2.06 2.06.0 0 0 1.19-2.27l-.15-.92a2.05 2.05.0 0 0-1.89-1.72l-.92-.08a2.05 2.05.0 0 1-1.71-1.17c-.25-.52-.51-1-.8-1.52a2.05 2.05.0 0 1 0-2.06l.47-.8a2.13 2.13.0 0 0-.33-2.55l-.66-.65a2 2 0 0 0-2.55-.31l-.81.48a2.05 2.05.0 0 1-2.06.0 16.64 16.64.0 0 0-4.19-1.71 2.06 2.06.0 0 1-1.48-1.5l-.24-1a2 2 0 0 0-2.06-1.58h-.92a2 2 0 0 0-2.06 1.57l-.26 1a2 2 0 0 1-1.45 1.48c-.52.15-1 .3-1.52.49a2.07 2.07.0 0 1-2.05-.38l-.83-.71a2 2 0 0 0-2.53-.15l-.73.5a2 2 0 0 0-.77 2.48l.37 1a2.07 2.07.0 0 1-.32 2.06 14.16 14.16.0 0 0-.93 1.23 2.05 2.05.0 0 1-1.91.88l-1-.09a2 2 0 0 0-2.17 1.37l-.33.9a2.06 2.06.0 0 0 .75 2.41l1 .67a2.09 2.09.0 0 1 .86 1.89 12.31 12.31.0 0 0-.08 1.61h0a2.13 2.13.0 0 1-1 1.75l-1 .54a2.06 2.06.0 0 0-1 2.37l.24.9a2.05 2.05.0 0 0 2.06 1.54h1a2.08 2.08.0 0 1 1.8 1c.28.5.57 1 .89 1.43a2.06 2.06.0 0 1 .16 2.06l-.42.88a2.06 2.06.0 0 0 .54 2.51l.71.6a2.06 2.06.0 0 0 2.56.09l.74-.52a2 2 0 0 1 2-.19c.53.25 1.06.47 1.61.68a2.05 2.05.0 0 1 1.31 1.58l.15.9a2.07 2.07.0 0 0 1.9 1.72l.94.08a2.05 2.05.0 0 0 2.14-1.39l.29-.8a2.07 2.07.0 0 1 1.6-1.35 17.18 17.18.0 0 0 1.73-.37 2.07 2.07.0 0 1 2 .54l.61.62a2.06 2.06.0 0 0 2.52.34l.82-.46a2.06 2.06.0 0 0 1-2.38l-.23-.8a2.07 2.07.0 0 1 .52-2.06 17 17 0 0 0 1.22-1.33 2.06 2.06.0 0 1 2-.7l.83.16a2.06 2.06.0 0 0 2.27-1.18l.39-.84a2.05 2.05.0 0 0-.58-2.51l-.62-.51a2 2 0 0 1-.76-1.91 16.57 16.57.0 0 0 .19-1.85A2.06 2.06.0 0 1 327.71 336.58zm-12.39.53a5.44 5.44.0 1 1-5.44-5.43h0a5.42 5.42.0 0 1 5.43 5.4z" style="fill:#263238;transform-origin:310.008px 336.938px 0" id="elzao7zfczief" class="animable"/><path d="M260.33 370.28a20.84 20.84.0 0 1-2.67 2.47 22.4 22.4.0 0 0-5.69 9.08 7.41 7.41.0 0 0 0 4.92c1.21 3 5.05 6 8.12 4.08" style="fill:none;stroke:#263238;stroke-linecap:round;stroke-linejoin:round;stroke-width:1.02934px;transform-origin:255.939px 380.857px 0" id="eln2rfiqlr2b" class="animable"/><path d="M260.09 365c-2.93-.46-5.81 1.24-7.81 3.41s-3.39 4.85-5.21 7.18" style="fill:none;stroke:#263238;stroke-linecap:round;stroke-linejoin:round;stroke-width:1.02934px;transform-origin:253.58px 370.258px 0" id="elp12899jbc" class="animable"/><path d="M259.86 395.07a19.81 19.81.0 0 1-11.59-1.24 32.78 32.78.0 0 1-6.42-4.52l-7.6-6.28c-1.22-1-2.57-2.45-2.07-3.95.0.0 12.7-66.93 14.69-74.17 2.31-8.35 11.61-14 11.61-14" style="fill:none;stroke:#263238;stroke-linecap:round;stroke-linejoin:round;stroke-width:1.02934px;transform-origin:245.967px 343.172px 0" id="elf0bls0or61q" class="animable"/><path d="M355.15 371a21.51 21.51.0 0 1 7.21 9.63 53.21 53.21.0 0 1 2.27 10.93c-2 1.1-6 4-9.48 4" style="fill:none;stroke:#263238;stroke-linecap:round;stroke-linejoin:round;stroke-width:1.02934px;transform-origin:359.889px 383.279px 0" id="elgt5obuqh6a7" class="animable"/><path d="M355.58 365.43c3.08-.82 6.13 1.28 8.46 3.46s4.72 4.71 7.89 5.05" style="fill:none;stroke:#263238;stroke-linecap:round;stroke-linejoin:round;stroke-width:1.02934px;transform-origin:363.754px 369.596px 0" id="el6hckc064nbu" class="animable"/><path d="M356.17 400.21c6-.63 11.4-3.9 15.72-8.07s7.64-9.23 10.93-14.24c2.67-4.06 5.38-8.23 6.55-12.94.0.0-10.53-34.81-16.38-51-6.1-16.83-12.68-21.13-12.68-21.13" style="fill:none;stroke:#263238;stroke-linecap:round;stroke-linejoin:round;stroke-width:1.02934px;transform-origin:372.771px 346.52px 0" id="elhbtj3dr1oyc" class="animable"/><path d="M355.58 365.43c5.43-4.56 13.76-.87 19.6 2.19" style="fill:none;stroke:#263238;stroke-linecap:round;stroke-linejoin:round;stroke-width:1.02934px;transform-origin:365.379px 365.455px 0" id="el17bcqngzmpq" class="animable"/><path d="M260.33 346.8h94.81v54.49H260.33z" style="fill:#fff;transform-origin:307.735px 374.045px 0" id="elaowjtww8fee" class="animable"/><path d="M259.86 401.29h95.72v2.85H259.86z" style="fill:#263238;transform-origin:307.72px 402.715px 0" id="el5filjn395x7" class="animable"/><path d="M259.86 401.29 355.15 346.8 355.58 401.29H259.86z" style="fill:#263238;transform-origin:307.72px 374.045px 0" id="elv3nl9ufek7n" class="animable"/><g id="elz96axuzvgw"><path d="M259.86 401.29 355.15 346.8 355.58 401.29H259.86z" style="fill:#fff;opacity:.9;transform-origin:307.72px 374.045px 0" class="animable"/></g><g id="elu0r43frq0mb"><circle cx="309.02" cy="373.16" r="8.08" style="fill:#263238;transform-origin:309.02px 373.16px 0;transform:rotate(-45deg)" class="animable"/></g><path d="M260.33 346.8h94.81v54.49H260.33z" style="fill:none;stroke:#263238;stroke-linecap:round;stroke-linejoin:round;stroke-width:1.02934px;transform-origin:307.735px 374.045px 0" id="elnd3l1k9enq" class="animable"/><path d="M284.06 236.06s2.08 19 4.72 22.43 11.12 15.84 20.36 15.65 15.27-12.07 16.78-17.16a88.22 88.22.0 0 0 3.39-19.79" style="fill:none;stroke:#263238;stroke-linecap:round;stroke-linejoin:round;stroke-width:1.02934px;transform-origin:306.684px 255.102px 0" id="elhgin8pihu6c" class="animable"/><path d="M326.88 255s6.85-3.54 2.43-12.52" style="fill:none;stroke:#263238;stroke-linecap:round;stroke-linejoin:round;stroke-width:1.02934px;transform-origin:328.838px 248.74px 0" id="elqso1hvbw0mq" class="animable"/></g><defs><filter id="active" height="200%"><feMorphology in="SourceAlpha" result="DILATED" operator="dilate" radius="2"/><feFlood flood-color="#32dfec" flood-opacity="1" result="PINK"/><feComposite in="PINK" in2="DILATED" operator="in" result="OUTLINE"/><feMerge><feMergeNode in="OUTLINE"/><feMergeNode in="SourceGraphic"/></feMerge></filter><filter id="hover" height="200%"><feMorphology in="SourceAlpha" result="DILATED" operator="dilate" radius="2"/><feFlood flood-color="red" flood-opacity=".5" result="PINK"/><feComposite in="PINK" in2="DILATED" operator="in" result="OUTLINE"/><feMerge><feMergeNode in="OUTLINE"/><feMergeNode in="SourceGraphic"/></feMerge><feColorMatrix type="matrix" values="0 0 0 0 0 0 1 0 0 0 0 0 0 0 0 0 0 0 1 0"/></filter></defs></svg>