<?xml version="1.0" encoding="utf-8"?>
<!-- Generator: Adobe Illustrator 26.0.0, SVG Export Plug-In . SVG Version: 6.00 Build 0)  -->
<svg version="1.1" id="jeevan-website-creator" xmlns="http://www.w3.org/2000/svg" xmlns:xlink="http://www.w3.org/1999/xlink"
	 x="0px" y="0px" viewBox="0 0 500 500" style="enable-background:new 0 0 500 500;" xml:space="preserve">
<style type="text/css">
	.st0{fill:#C6C717;}
	.st1{fill:#E9C507;}
	.st2{fill:#F4C402;}
	.st3{fill:#F7C401;}
	.st4{fill:#F9C400;}
	.st5{fill:#FAC400;}
	.st6{fill:#FAC300;}
	.st7{fill:#F8B001;}
	.st8{fill:#F49703;}
	.st9{fill:#F17E05;}
	.st10{fill:#EE6706;}
	.st11{fill:#007F78;}
	.st12{fill:#008A77;}
	.st13{fill:#009476;}
	.st14{fill:#009F76;}
	.st15{fill:#00AA75;}
	.st16{fill:#00B474;}
	.st17{fill:#00BE73;}
	.st18{fill:#00C672;}
	.st19{fill:#00D071;}
	.st20{fill:#37CD58;}
	.st21{fill:#8CC931;}
	.st22{fill:#EF4C26;}
	.st23{fill:#07847B;}
</style>
<path class="st0" d="M185.1,123.9c2.3-1.4,4.6-2.7,7-4l-40.4-76.8L140,49.9L185.1,123.9L185.1,123.9z"/>
<path class="st1" d="M158.2,145.8c2.1-2.3,4.3-4.4,6.5-6.5l-59.6-64.1c-3.8,3.6-7.6,7.2-11.1,11L158.2,145.8L158.2,145.8z"/>
<path class="st2" d="M140.4,170.5c1.6-3,3.4-6,5.3-8.8l-73-48.4c-3.4,4.7-6.2,10-9.1,15L140.4,170.5L140.4,170.5z"/>
<path class="st3" d="M44.3,176.2l84.7,22.6l0.3-1.2c0.9-3.3,2-6.6,3.2-9.8l-82.3-30.2C48.2,163.8,46,169.9,44.3,176.2L44.3,176.2z"
	/>
<path class="st4" d="M37.3,227.4l87.6,1.5c0.1-4.2,0.4-8.4,0.8-12.6l-86.9-10.4c-0.4,3.6-1,7.1-1.1,10.7L37.3,227.4L37.3,227.4z"/>
<path class="st5" d="M42.7,279.1l85.4-19.8c-1-4.5-1.9-9-2.4-13.6l-87.1,10.2C39.8,263.6,40.8,271.4,42.7,279.1L42.7,279.1z"/>
<path class="st5" d="M135,280.3c-0.9-2.1-1.7-4.1-2.5-6.2l-82.2,30.2l4.6,12c1.8,3.8,3.7,7.6,5.6,11.4l78-39.8
	C137.2,285.4,136.1,282.9,135,280.3"/>
<path class="st6" d="M89.3,370.6l66.3-57.5c-3.5-4.1-6.8-8.4-9.8-12.9l-73,48.4l3.8,5.8l4.2,5.5C83.5,363.5,86.4,367.1,89.3,370.6
	L89.3,370.6z"/>
<path class="st7" d="M128,405.3l50.2-71.8c-4.8-3.3-9.3-7-13.5-10.9l-59.8,64.2C112.4,393.2,119.7,399.9,128,405.3z"/>
<path class="st8" d="M173.6,429.8l31.5-81.9c-5.8-2.2-11.5-4.9-16.8-8l-43.2,76.2C154.2,421.6,163.9,425.6,173.6,429.8L173.6,429.8z
	"/>
<path class="st9" d="M207.3,439.5c5.4,1.4,11,2,16.5,2.7l10.8-86.9c-6-0.7-12-2-18-3.6l-1.3-0.4L191,435.5
	C196.3,437.2,201.8,438.2,207.3,439.5L207.3,439.5z"/>
<path class="st10" d="M240.1,443.6l8.9,0.3c3,0.1,5.9,0.1,8.9-0.1c6-0.4,11.9-0.7,17.8-1.3l-10.5-87.1c-6.8,0.8-13.8,1.1-20.9,0.8
	L240.1,443.6L240.1,443.6z"/>
<path class="st11" d="M418.3,361.7c3.6-4.7,6.9-9.7,10.3-14.6c1.7-2.4,3.2-5,4.7-7.6l4.4-7.8l-77.2-41.5
	c-3.3,6.2-7.1,12.1-11.4,17.5L418.3,361.7L418.3,361.7z"/>
<path class="st12" d="M444.8,317.1c2.2-5.1,4.5-10.2,6.2-15.6c1.7-5.3,3.7-10.6,5-16l-84.7-22.5l-0.4,1.3c-1.7,6-3.7,11.8-6.2,17.3
	L444.8,317.1L444.8,317.1z"/>
<path class="st13" d="M373.5,252.5l86.4,15.2c1.4-10.4,3-20.8,3-31.4l-87.6-2.2C375.2,240.2,374.6,246.3,373.5,252.5L373.5,252.5z"
	/>
<path class="st14" d="M375,222.1l87.4-6.2c-0.4-9.9-2.3-19.6-4-29.3l-85.8,18.3C373.9,210.5,374.7,216.3,375,222.1L375,222.1z"/>
<path class="st15" d="M369.2,192.2l83.4-27.3c-1.6-4.3-3.2-8.6-4.8-12.9l-2.5-6.4l-3-6.2l-79,37.7
	C365.5,182,367.5,187.1,369.2,192.2L369.2,192.2z"/>
<path class="st16" d="M356.3,164.6l74.3-46.4c-2.3-3.6-4.6-7.2-6.9-10.7l-7.9-10.1l-68.2,54.9C350.8,156.2,353.6,160.3,356.3,164.6
	L356.3,164.6z"/>
<path class="st17" d="M337,140.7L398.2,78c-5.6-5.5-11.8-10.5-17.8-15.6l-53.9,69.2C330.2,134.5,333.7,137.5,337,140.7L337,140.7z"
	/>
<path class="st18" d="M312.8,122.5l43.8-75.8l-9.5-5.2c-3.1-1.8-6.5-3.1-9.8-4.6l-35.8,79.9C305.4,118.5,309.2,120.4,312.8,122.5
	L312.8,122.5z"/>
<path class="st19" d="M273.6,107.9c3.3,0.6,6.7,1.4,10,2.3l1.2,0.3L309,26.4c-6.3-1.8-12.7-3.1-19-4.6L273.6,107.9L273.6,107.9z"/>
<path class="st20" d="M244.3,105.8c3.4-0.2,6.9-0.2,10.3-0.1l3.3-87.5c-5.8-0.1-11.7-0.5-17.6,0.1L244.3,105.8L244.3,105.8z"/>
<path class="st21" d="M215.4,110.6c2.9-0.8,5.9-1.6,8.9-2.2l-18.1-85.8c-5.1,1.1-10.1,2.5-15.1,3.9L215.4,110.6L215.4,110.6z"/>
<path class="st22" d="M291.2,438l8.7-1.8c2.9-0.6,9.4-2.4,12.2-3.3c5.7-1.7,15.1-5.2,20.7-7.2l-37.8-79.3
	c-6.5,2.4-13.2,4.3-20.1,5.6L291.2,438L291.2,438z"/>
<path class="st23" d="M456.1,433c-17.8,20.6-39.7,37.7-64.4,50L268.3,265.9c3.4-2.2,6.6-4.7,9.7-7.3L456.1,433L456.1,433z"/>
</svg>
